<svg width="20" height="21" viewBox="0 0 20 21" fill="none" xmlns="http://www.w3.org/2000/svg">
<path fill-rule="evenodd" clip-rule="evenodd" d="M10.0433 1.83272H9.95663C9.20746 1.83272 8.58329 1.83272 8.08829 1.89938C7.56496 1.96938 7.09246 2.12438 6.71329 2.50355C6.33329 2.88355 6.17829 3.35605 6.10829 3.87855C6.06079 4.23438 6.04663 5.08355 6.04329 5.81188C4.35829 5.86772 3.34579 6.06438 2.64329 6.76772C1.66663 7.74355 1.66663 9.31522 1.66663 12.4577C1.66663 15.6002 1.66663 17.1719 2.64329 18.1477C3.61996 19.1236 5.19079 19.1244 8.33329 19.1244H11.6666C14.8091 19.1244 16.3808 19.1244 17.3566 18.1477C18.3325 17.1711 18.3333 15.6002 18.3333 12.4577C18.3333 9.31522 18.3333 7.74355 17.3566 6.76772C16.6541 6.06438 15.6416 5.86772 13.9566 5.81272C13.9533 5.08355 13.94 4.23438 13.8916 3.87938C13.8216 3.35605 13.6666 2.88355 13.2866 2.50438C12.9075 2.12438 12.435 1.96938 11.9116 1.89938C11.4166 1.83272 10.7916 1.83272 10.0433 1.83272ZM12.7066 5.79272C12.7025 5.08688 12.6908 4.32772 12.6533 4.04522C12.6008 3.66105 12.5116 3.49605 12.4033 3.38772C12.295 3.27938 12.13 3.19022 11.745 3.13772C11.3433 3.08438 10.8033 3.08272 9.99996 3.08272C9.19663 3.08272 8.65663 3.08438 8.25413 3.13855C7.86996 3.19022 7.70496 3.27938 7.59663 3.38855C7.48829 3.49772 7.39913 3.66105 7.34663 4.04522C7.30913 4.32855 7.29663 5.08688 7.29329 5.79272C7.61996 5.79105 7.96663 5.7905 8.33329 5.79105H11.6666C12.0344 5.79105 12.3811 5.79161 12.7066 5.79272ZM9.99996 8.49938C10.1657 8.49938 10.3247 8.56523 10.4419 8.68244C10.5591 8.79965 10.625 8.95862 10.625 9.12438V9.13272C11.5325 9.36105 12.2916 10.0769 12.2916 11.0686C12.2916 11.2343 12.2258 11.3933 12.1086 11.5105C11.9914 11.6277 11.8324 11.6936 11.6666 11.6936C11.5009 11.6936 11.3419 11.6277 11.2247 11.5105C11.1075 11.3933 11.0416 11.2343 11.0416 11.0686C11.0416 10.7486 10.6866 10.3052 9.99996 10.3052C9.31329 10.3052 8.95829 10.7486 8.95829 11.0686C8.95829 11.3886 9.31329 11.8327 9.99996 11.8327C11.1541 11.8327 12.2916 12.6327 12.2916 13.8469C12.2916 14.8386 11.5325 15.5536 10.625 15.7827V15.7911C10.625 15.9568 10.5591 16.1158 10.4419 16.233C10.3247 16.3502 10.1657 16.4161 9.99996 16.4161C9.8342 16.4161 9.67523 16.3502 9.55802 16.233C9.44081 16.1158 9.37496 15.9568 9.37496 15.7911V15.7827C8.46746 15.5544 7.70829 14.8386 7.70829 13.8469C7.70829 13.6811 7.77414 13.5222 7.89135 13.4049C8.00856 13.2877 8.16753 13.2219 8.33329 13.2219C8.49905 13.2219 8.65802 13.2877 8.77523 13.4049C8.89244 13.5222 8.95829 13.6811 8.95829 13.8469C8.95829 14.1669 9.31329 14.6102 9.99996 14.6102C10.6866 14.6102 11.0416 14.1669 11.0416 13.8469C11.0416 13.5269 10.6866 13.0827 9.99996 13.0827C8.84579 13.0827 7.70829 12.2827 7.70829 11.0686C7.70829 10.0769 8.46746 9.36105 9.37496 9.13272V9.12438C9.37496 8.95862 9.44081 8.79965 9.55802 8.68244C9.67523 8.56523 9.8342 8.49938 9.99996 8.49938Z" fill="#090A0B"/>
</svg>
