<svg width="20" height="21" viewBox="0 0 20 21" fill="none" xmlns="http://www.w3.org/2000/svg">
<path fill-rule="evenodd" clip-rule="evenodd" d="M13.1366 4.12437C13.6008 4.12439 14.0559 4.25365 14.4508 4.49768C14.8457 4.74171 15.1648 5.09087 15.3725 5.50604L16.5275 7.81521C16.7308 7.73187 16.9308 7.64187 17.1275 7.54521C17.3253 7.44641 17.5542 7.43025 17.7639 7.50026C17.9737 7.57027 18.147 7.72073 18.2458 7.91854C18.3446 8.11635 18.3608 8.3453 18.2907 8.55503C18.2207 8.76476 18.0703 8.93808 17.8725 9.03687C17.6721 9.12602 17.4707 9.21269 17.2683 9.29687L18.0691 10.8994C18.2429 11.2468 18.3334 11.63 18.3333 12.0185V14.1244C18.3333 14.4761 18.2591 14.8239 18.1155 15.145C17.9719 15.4661 17.7621 15.7532 17.5 15.9877V17.041C17.5 17.3726 17.3683 17.6905 17.1338 17.9249C16.8994 18.1593 16.5815 18.291 16.25 18.291C15.9184 18.291 15.6005 18.1593 15.3661 17.9249C15.1317 17.6905 15 17.3726 15 17.041V16.6244H4.99996V17.041C4.99996 17.3726 4.86826 17.6905 4.63384 17.9249C4.39942 18.1593 4.08148 18.291 3.74996 18.291C3.41844 18.291 3.1005 18.1593 2.86608 17.9249C2.63166 17.6905 2.49996 17.3726 2.49996 17.041V15.9877C1.98829 15.5294 1.66663 14.8644 1.66663 14.1244V12.0177C1.66678 11.6298 1.75722 11.2472 1.93079 10.9002L2.72496 9.31021C2.52385 9.22576 2.32524 9.13493 2.12913 9.03771C1.93232 8.93763 1.78272 8.76423 1.71257 8.55487C1.64242 8.34552 1.65735 8.11699 1.75413 7.91854C1.80301 7.82057 1.87072 7.73318 1.95339 7.66139C2.03606 7.58959 2.13207 7.53479 2.23593 7.50012C2.33979 7.46545 2.44946 7.45159 2.55868 7.45932C2.6679 7.46706 2.77452 7.49624 2.87246 7.54521C3.06968 7.64243 3.26968 7.73243 3.47246 7.81521L4.62746 5.50687C4.835 5.09155 5.1541 4.74222 5.549 4.49804C5.9439 4.25385 6.399 4.12447 6.86329 4.12437H13.1366ZM6.24996 11.6244C5.91844 11.6244 5.6005 11.7561 5.36608 11.9905C5.13166 12.2249 4.99996 12.5429 4.99996 12.8744C4.99996 13.2059 5.13166 13.5238 5.36608 13.7583C5.6005 13.9927 5.91844 14.1244 6.24996 14.1244C6.58148 14.1244 6.89942 13.9927 7.13384 13.7583C7.36826 13.5238 7.49996 13.2059 7.49996 12.8744C7.49996 12.5429 7.36826 12.2249 7.13384 11.9905C6.89942 11.7561 6.58148 11.6244 6.24996 11.6244ZM13.75 11.6244C13.4184 11.6244 13.1005 11.7561 12.8661 11.9905C12.6317 12.2249 12.5 12.5429 12.5 12.8744C12.5 13.2059 12.6317 13.5238 12.8661 13.7583C13.1005 13.9927 13.4184 14.1244 13.75 14.1244C14.0815 14.1244 14.3994 13.9927 14.6338 13.7583C14.8683 13.5238 15 13.2059 15 12.8744C15 12.5429 14.8683 12.2249 14.6338 11.9905C14.3994 11.7561 14.0815 11.6244 13.75 11.6244ZM13.1366 5.79104H6.86329C6.72613 5.79102 6.59109 5.82486 6.47014 5.88955C6.34919 5.95423 6.24608 6.04778 6.16996 6.16187L6.11829 6.25187L5.05996 8.36687C6.34996 8.75354 8.08829 9.12437 9.99996 9.12437C11.785 9.12437 13.4175 8.80104 14.675 8.44354L14.9391 8.36687L13.8816 6.25187C13.8203 6.12922 13.7296 6.0236 13.6177 5.94437C13.5058 5.86515 13.376 5.81477 13.24 5.79771L13.1375 5.79104H13.1366Z" fill="#090A0B"/>
</svg>
