<svg width="20" height="21" viewBox="0 0 20 21" fill="none" xmlns="http://www.w3.org/2000/svg">
<path fill-rule="evenodd" clip-rule="evenodd" d="M2.09996 7.31022C1.66663 8.09938 1.66663 9.05355 1.66663 10.9602V12.2286C1.66663 15.4786 1.66663 17.1044 2.64329 18.1144C3.61996 19.1244 5.19079 19.1244 8.33329 19.1244H11.6666C14.8091 19.1244 16.3808 19.1244 17.3566 18.1144C18.3325 17.1044 18.3333 15.4794 18.3333 12.2286V10.9611C18.3333 9.05355 18.3333 8.10022 17.9 7.31022C17.4683 6.51938 16.6775 6.02938 15.0966 5.04772L13.43 4.01355C11.7591 2.97605 10.9233 2.45772 9.99996 2.45772C9.07663 2.45772 8.24163 2.97605 6.56996 4.01355L4.90329 5.04772C3.32246 6.02938 2.53246 6.51938 2.09996 7.31022ZM9.37496 15.7911C9.37496 15.9568 9.44081 16.1158 9.55802 16.233C9.67523 16.3502 9.8342 16.4161 9.99996 16.4161C10.1657 16.4161 10.3247 16.3502 10.4419 16.233C10.5591 16.1158 10.625 15.9568 10.625 15.7911V13.2911C10.625 13.1253 10.5591 12.9663 10.4419 12.8491C10.3247 12.7319 10.1657 12.6661 9.99996 12.6661C9.8342 12.6661 9.67523 12.7319 9.55802 12.8491C9.44081 12.9663 9.37496 13.1253 9.37496 13.2911V15.7911Z" fill="#090A0B"/>
</svg>
