<svg width="25" height="25" viewBox="0 0 25 25" fill="none" xmlns="http://www.w3.org/2000/svg">
<path d="M6.47199 4.99654C6.91457 4.70091 7.38121 4.44301 7.86699 4.22554C9.23899 3.61054 9.92499 3.30354 10.837 3.89554C11.75 4.48554 11.75 5.45554 11.75 7.39554V8.89554C11.75 10.7815 11.75 11.7235 12.336 12.3095C12.922 12.8955 13.864 12.8955 15.75 12.8955H17.25C19.19 12.8955 20.16 12.8955 20.75 13.8075C21.342 14.7205 21.035 15.4065 20.42 16.7775C19.5406 18.7412 18.0208 20.3482 16.1091 21.3356C14.1975 22.3229 12.0073 22.6321 9.89699 22.2125C8.05425 21.846 6.36158 20.9412 5.03302 19.6127C3.70447 18.2841 2.79969 16.5915 2.43309 14.7487C2.06649 12.906 2.25453 10.9959 2.97345 9.26007C3.69236 7.5242 4.90986 6.04049 6.47199 4.99654Z" fill="#090A0B"/>
<path d="M21.696 7.46452C21.2922 6.44319 20.6832 5.51555 19.9066 4.73895C19.13 3.96236 18.2023 3.35333 17.181 2.94952C15.639 2.34252 14.25 3.73952 14.25 5.39552V9.39552C14.25 9.66073 14.3554 9.91509 14.5429 10.1026C14.7304 10.2902 14.9848 10.3955 15.25 10.3955H19.25C20.907 10.3955 22.303 9.00552 21.696 7.46452Z" fill="#090A0B"/>
</svg>
