<svg width="24" height="25" viewBox="0 0 24 25" fill="none" xmlns="http://www.w3.org/2000/svg">
<path d="M11.2499 2.39551C9.88392 2.39651 8.73092 2.40551 7.74992 2.46351V6.64551H11.2499V2.39551ZM6.24992 2.61651C5.02692 2.81151 4.14892 3.17651 3.46392 3.85951C2.77992 4.54351 2.41592 5.42251 2.22192 6.64551H6.24992V2.61651Z" fill="#090A0B"/>
<path fill-rule="evenodd" clip-rule="evenodd" d="M2 12.3955C2 10.6955 2 9.30151 2.069 8.14551H21.93C22 9.30151 22 10.6955 22 12.3955C22 14.0955 22 15.4895 21.931 16.6455H2.07C2 15.4895 2 14.0955 2 12.3955ZM12.411 10.7995C13.471 11.5115 14 11.8675 14 12.3955C14 12.9235 13.47 13.2795 12.411 13.9915C11.338 14.7125 10.801 15.0735 10.401 14.8085C10 14.5435 10 13.8285 10 12.3955C10 10.9625 10 10.2475 10.4 9.98251C10.8 9.71751 11.338 10.0785 12.411 10.7995Z" fill="#090A0B"/>
<path d="M21.7779 6.64551C21.5839 5.42251 21.2199 4.54351 20.5359 3.85951C19.8519 3.17551 18.9729 2.81151 17.7499 2.61651V6.64551H21.7779ZM12.7499 2.39551C14.1159 2.39651 15.2689 2.40551 16.2499 2.46351V6.64551H12.7499V2.39551ZM21.7779 18.1455H17.7499V22.1735C18.9729 21.9795 19.8519 21.6145 20.5349 20.9305C21.2199 20.2465 21.5849 19.3685 21.7779 18.1455ZM16.2499 18.1455V22.3265C15.2689 22.3845 14.1159 22.3935 12.7499 22.3955V18.1455H16.2499ZM11.2499 22.3955V18.1455H7.74992V22.3265C8.73092 22.3845 9.88392 22.3935 11.2499 22.3955ZM6.24992 18.1455V22.1735C5.02692 21.9795 4.14892 21.6145 3.46392 20.9305C2.77992 20.2465 2.41592 19.3685 2.22192 18.1455H6.24992Z" fill="#090A0B"/>
</svg>
