<svg width="25" height="25" viewBox="0 0 25 25" fill="none" xmlns="http://www.w3.org/2000/svg">
<path fill-rule="evenodd" clip-rule="evenodd" d="M14.053 5.72852C14.053 3.88852 15.553 2.39552 17.401 2.39552C17.8398 2.39434 18.2745 2.47962 18.6803 2.64651C19.0861 2.81339 19.4551 3.0586 19.7661 3.36812C20.0771 3.67765 20.3241 4.04542 20.4929 4.45043C20.6617 4.85543 20.7491 5.28974 20.75 5.72852C20.75 7.56952 19.25 9.06252 17.401 9.06252C16.9576 9.06284 16.5186 8.97515 16.1093 8.80452C15.7001 8.63389 15.3288 8.38372 15.017 8.06852L10.382 11.2245C10.5108 11.8675 10.4475 12.5342 10.2 13.1415L15.282 16.4815C15.8807 15.9936 16.6297 15.7276 17.402 15.7285C17.8408 15.7275 18.2755 15.8129 18.6812 15.9799C19.087 16.1469 19.4559 16.3922 19.7668 16.7018C20.0777 17.0114 20.3246 17.3793 20.4933 17.7844C20.662 18.1894 20.7492 18.6237 20.75 19.0625C20.75 20.9025 19.25 22.3955 17.401 22.3955C16.9623 22.3966 16.5277 22.3112 16.122 22.1442C15.7163 21.9773 15.3475 21.7321 15.0366 21.4226C14.7257 21.1131 14.4788 20.7453 14.31 20.3404C14.1413 19.9354 14.0539 19.5012 14.053 19.0625C14.0522 18.5952 14.1507 18.133 14.342 17.7065L9.3 14.3955C8.68922 14.9261 7.90706 15.2177 7.098 15.2165C6.65922 15.2176 6.22453 15.1322 5.81877 14.9652C5.41301 14.7981 5.04413 14.5528 4.73321 14.2432C4.42229 13.9336 4.17543 13.5657 4.00673 13.1607C3.83802 12.7556 3.75079 12.3213 3.75 11.8825C3.75092 11.4438 3.83825 11.0096 4.00701 10.6047C4.17578 10.1997 4.42266 9.83199 4.73356 9.52248C5.04447 9.21297 5.4133 8.96774 5.819 8.80079C6.22469 8.63385 6.6593 8.54847 7.098 8.54952C8.162 8.54952 9.108 9.04252 9.721 9.81052L14.214 6.75152C14.1068 6.42112 14.0525 6.07587 14.053 5.72852Z" fill="#090A0B"/>
</svg>
