<svg width="25" height="25" viewBox="0 0 25 25" fill="none" xmlns="http://www.w3.org/2000/svg">
<path d="M4.818 21.036C6.136 22.5 8.258 22.5 12.5 22.5C16.742 22.5 18.864 22.5 20.182 21.035C21.5 19.572 21.5 17.214 21.5 12.5C21.5 7.786 21.5 5.429 20.182 3.964C18.864 2.499 16.742 2.5 12.5 2.5C8.258 2.5 6.136 2.5 4.818 3.964C3.5 5.43 3.5 7.786 3.5 12.5C3.5 17.214 3.5 19.572 4.818 21.036Z" stroke="#090A0B" stroke-width="1.5"/>
<path d="M7.5 8.5C7.5 8.035 7.5 7.803 7.551 7.612C7.61919 7.35787 7.75303 7.12614 7.93909 6.94009C8.12514 6.75403 8.35687 6.62019 8.611 6.552C8.804 6.5 9.036 6.5 9.5 6.5H15.5C15.965 6.5 16.197 6.5 16.388 6.551C16.6421 6.61919 16.8739 6.75303 17.0599 6.93909C17.246 7.12514 17.3798 7.35687 17.448 7.611C17.5 7.804 17.5 8.036 17.5 8.5C17.5 8.964 17.5 9.197 17.449 9.388C17.3808 9.64213 17.247 9.87386 17.0609 10.0599C16.8749 10.246 16.6431 10.3798 16.389 10.448C16.197 10.5 15.964 10.5 15.5 10.5H9.5C9.035 10.5 8.803 10.5 8.612 10.449C8.35787 10.3808 8.12614 10.247 7.94009 10.0609C7.75403 9.87486 7.62019 9.64313 7.552 9.389C7.5 9.196 7.5 8.964 7.5 8.5Z" stroke="#090A0B" stroke-width="1.5"/>
<path d="M8.5 14.5C9.05228 14.5 9.5 14.0523 9.5 13.5C9.5 12.9477 9.05228 12.5 8.5 12.5C7.94772 12.5 7.5 12.9477 7.5 13.5C7.5 14.0523 7.94772 14.5 8.5 14.5Z" fill="#090A0B"/>
<path d="M8.5 18.5C9.05228 18.5 9.5 18.0523 9.5 17.5C9.5 16.9477 9.05228 16.5 8.5 16.5C7.94772 16.5 7.5 16.9477 7.5 17.5C7.5 18.0523 7.94772 18.5 8.5 18.5Z" fill="#090A0B"/>
<path d="M12.5 14.5C13.0523 14.5 13.5 14.0523 13.5 13.5C13.5 12.9477 13.0523 12.5 12.5 12.5C11.9477 12.5 11.5 12.9477 11.5 13.5C11.5 14.0523 11.9477 14.5 12.5 14.5Z" fill="#090A0B"/>
<path d="M12.5 18.5C13.0523 18.5 13.5 18.0523 13.5 17.5C13.5 16.9477 13.0523 16.5 12.5 16.5C11.9477 16.5 11.5 16.9477 11.5 17.5C11.5 18.0523 11.9477 18.5 12.5 18.5Z" fill="#090A0B"/>
<path d="M16.5 14.5C17.0523 14.5 17.5 14.0523 17.5 13.5C17.5 12.9477 17.0523 12.5 16.5 12.5C15.9477 12.5 15.5 12.9477 15.5 13.5C15.5 14.0523 15.9477 14.5 16.5 14.5Z" fill="#090A0B"/>
<path d="M16.5 18.5C17.0523 18.5 17.5 18.0523 17.5 17.5C17.5 16.9477 17.0523 16.5 16.5 16.5C15.9477 16.5 15.5 16.9477 15.5 17.5C15.5 18.0523 15.9477 18.5 16.5 18.5Z" fill="#090A0B"/>
</svg>
