<svg width="24" height="25" viewBox="0 0 24 25" fill="none" xmlns="http://www.w3.org/2000/svg">
<path fill-rule="evenodd" clip-rule="evenodd" d="M15.764 4.09329C16.3211 4.09331 16.8671 4.24843 17.341 4.54126C17.8148 4.8341 18.1978 5.25308 18.447 5.75129L19.833 8.52229C20.077 8.42229 20.317 8.31429 20.553 8.19829C20.7904 8.07974 21.0651 8.06034 21.3168 8.14435C21.5685 8.22837 21.7764 8.40892 21.895 8.64629C22.0136 8.88366 22.033 9.1584 21.9489 9.41008C21.8649 9.66175 21.6844 9.86974 21.447 9.98829C21.2066 10.0953 20.9649 10.1993 20.722 10.3003L21.683 12.2233C21.8916 12.6402 22.0001 13.1001 22 13.5663V16.0933C22 16.5154 21.9109 16.9327 21.7386 17.318C21.5663 17.7033 21.3146 18.0479 21 18.3293V19.5933C21 19.9911 20.842 20.3726 20.5607 20.654C20.2794 20.9353 19.8978 21.0933 19.5 21.0933C19.1022 21.0933 18.7206 20.9353 18.4393 20.654C18.158 20.3726 18 19.9911 18 19.5933V19.0933H6V19.5933C6 19.9911 5.84196 20.3726 5.56066 20.654C5.27936 20.9353 4.89782 21.0933 4.5 21.0933C4.10218 21.0933 3.72064 20.9353 3.43934 20.654C3.15804 20.3726 3 19.9911 3 19.5933V18.3293C2.386 17.7793 2 16.9813 2 16.0933V13.5653C2.00019 13.0998 2.10872 12.6406 2.317 12.2243L3.27 10.3163C3.02867 10.215 2.79033 10.106 2.555 9.98929C2.31883 9.8692 2.13931 9.66111 2.05513 9.40989C1.97096 9.15867 1.98887 8.88443 2.105 8.64629C2.16366 8.52872 2.24491 8.42386 2.34412 8.33771C2.44332 8.25155 2.55853 8.1858 2.68316 8.14419C2.80779 8.10259 2.9394 8.08595 3.07046 8.09523C3.20153 8.10452 3.32948 8.13953 3.447 8.19829C3.68367 8.31496 3.92367 8.42296 4.167 8.52229L5.553 5.75229C5.80205 5.2539 6.18497 4.8347 6.65885 4.54169C7.13273 4.24867 7.67884 4.0934 8.236 4.09329H15.764ZM7.5 13.0933C7.10218 13.0933 6.72064 13.2513 6.43934 13.5326C6.15804 13.8139 6 14.1955 6 14.5933C6 14.9911 6.15804 15.3726 6.43934 15.654C6.72064 15.9353 7.10218 16.0933 7.5 16.0933C7.89782 16.0933 8.27936 15.9353 8.56066 15.654C8.84196 15.3726 9 14.9911 9 14.5933C9 14.1955 8.84196 13.8139 8.56066 13.5326C8.27936 13.2513 7.89782 13.0933 7.5 13.0933ZM16.5 13.0933C16.1022 13.0933 15.7206 13.2513 15.4393 13.5326C15.158 13.8139 15 14.1955 15 14.5933C15 14.9911 15.158 15.3726 15.4393 15.654C15.7206 15.9353 16.1022 16.0933 16.5 16.0933C16.8978 16.0933 17.2794 15.9353 17.5607 15.654C17.842 15.3726 18 14.9911 18 14.5933C18 14.1955 17.842 13.8139 17.5607 13.5326C17.2794 13.2513 16.8978 13.0933 16.5 13.0933ZM15.764 6.09329H8.236C8.07141 6.09327 7.90935 6.13387 7.76422 6.2115C7.61908 6.28912 7.49535 6.40138 7.404 6.53829L7.342 6.64629L6.072 9.18429C7.62 9.64829 9.706 10.0933 12 10.0933C14.142 10.0933 16.101 9.70529 17.61 9.27629L17.927 9.18429L16.658 6.64629C16.5844 6.49911 16.4756 6.37236 16.3413 6.27729C16.207 6.18222 16.0513 6.12177 15.888 6.10129L15.765 6.09329H15.764Z" fill="#C5A1FF"/>
</svg>
