<svg width="305" height="306" viewBox="0 0 305 306" fill="none" xmlns="http://www.w3.org/2000/svg">
<g clip-path="url(#clip0_15_2084)">
<path opacity="0.7" d="M17.4974 91.7351C17.4974 91.7351 -3.20987 145.212 25.8902 199.059C54.9903 252.907 114.928 281.354 162.901 305.678C210.874 330.002 260.689 318.156 284.36 278.316C308.03 238.476 275.566 210.037 275.521 153.226C275.477 96.4143 284.025 81.3741 253.239 33.379C222.453 -14.6161 146.985 -25.2446 89.9134 10.3544C32.8422 45.9534 17.4974 91.7351 17.4974 91.7351Z" fill="white"/>
<path d="M24.2859 91.2598C45.6914 51.8506 99.5391 5.84603 173.411 25.0084C247.283 44.1708 297.194 84.7089 289.017 155.238C280.839 225.768 237.865 284.369 145.299 286.085C52.7324 287.801 -22.6545 177.676 24.2859 91.2598Z" fill="#97BEFF"/>
<path opacity="0.7" d="M24.2859 91.2598C45.6914 51.8506 99.5391 5.84603 173.411 25.0084C247.283 44.1708 297.194 84.7089 289.017 155.238C280.839 225.768 237.865 284.369 145.299 286.085C52.7324 287.801 -22.6545 177.676 24.2859 91.2598Z" fill="white"/>
<path d="M267.856 146.203L228.287 152.329C226.776 152.563 225.74 153.978 225.974 155.489L229.705 179.59C229.939 181.101 231.354 182.137 232.866 181.903L272.435 175.777C273.946 175.544 274.982 174.129 274.748 172.617L271.017 148.516C270.783 147.005 269.368 145.969 267.856 146.203Z" stroke="#263238" stroke-linecap="round" stroke-linejoin="round"/>
<path d="M226.578 159.38L271.621 152.407" stroke="#263238" stroke-linecap="round" stroke-linejoin="round"/>
<path d="M268.099 160.314L260.823 161.44L262.445 171.917L269.721 170.791L268.099 160.314Z" stroke="#263238" stroke-linecap="round" stroke-linejoin="round"/>
<path d="M263.776 163.156C265.313 161.326 267.839 162.546 267.247 168.225L269.498 169.341L269.718 170.768L262.446 171.897L262.147 169.988L264.892 168.92C264.892 168.92 262.33 164.882 263.776 163.156Z" stroke="#263238" stroke-linecap="round" stroke-linejoin="round"/>
<path d="M247.995 175.966C247.995 175.966 253.254 176.008 251.747 174.959C250.24 173.91 250.015 172.848 251.296 172.83C252.577 172.812 254.724 175.27 254.553 173.77C254.382 172.269 255.309 173.245 255.486 173.343C255.663 173.44 257.182 172.83 257.255 173.007C257.328 173.184 257.225 173.678 262.172 172.916" stroke="#263238" stroke-linecap="round" stroke-linejoin="round"/>
<path d="M230.397 164.058L252.455 160.642" stroke="#263238" stroke-linecap="round" stroke-linejoin="round"/>
<path d="M230.787 166.559L243.78 164.546" stroke="#263238" stroke-linecap="round" stroke-linejoin="round"/>
<path d="M231.471 170.97L249.594 168.164" stroke="#263238" stroke-linecap="round" stroke-linejoin="round"/>
<path d="M237.095 154.475L259.213 151.047" stroke="#263238" stroke-linecap="round" stroke-linejoin="round"/>
<path d="M26.4435 139.024L75.8962 129.148L93.1653 212.059L40.6016 223.332L26.4435 139.024Z" stroke="#263238" stroke-linecap="round" stroke-linejoin="round"/>
<path d="M38.613 211.504L91.073 202.006" stroke="#263238" stroke-linecap="round" stroke-linejoin="round"/>
<path d="M84.8571 194.955L59.8044 199.579" stroke="#263238" stroke-linecap="round" stroke-linejoin="round"/>
<path d="M81.1422 190.795L73.8222 191.874" stroke="#263238" stroke-linecap="round" stroke-linejoin="round"/>
<path d="M82.2585 182.328L44.8655 189.343" stroke="#263238" stroke-linecap="round" stroke-linejoin="round"/>
<path d="M32.9095 177.539L84.0946 168.505" stroke="#263238" stroke-linecap="round" stroke-linejoin="round" stroke-dasharray="1 2"/>
<path d="M87.2971 209.375L56.2054 215.89" stroke="#263238" stroke-linecap="round" stroke-linejoin="round"/>
<path d="M86.3699 206.752L71.7543 209.375" stroke="#263238" stroke-linecap="round" stroke-linejoin="round"/>
<path d="M78.4643 163.04L52.826 168.121" stroke="#263238" stroke-linecap="round" stroke-linejoin="round"/>
<path d="M76.4391 157.348L68.2712 158.953" stroke="#263238" stroke-linecap="round" stroke-linejoin="round"/>
<path d="M75.9572 153.396L38.613 160.594" stroke="#263238" stroke-linecap="round" stroke-linejoin="round"/>
<path d="M72.5656 134.156L62.4823 136.242" stroke="#263238" stroke-linecap="round" stroke-linejoin="round"/>
<path d="M38.613 141.324L29.9144 143.013" stroke="#263238" stroke-linecap="round" stroke-linejoin="round"/>
<path d="M33.0803 147.808C33.2617 147.189 33.5733 146.617 33.9941 146.129C34.4149 145.641 34.9353 145.248 35.5203 144.978" stroke="#263238" stroke-linecap="round" stroke-linejoin="round"/>
<path d="M36.9477 153.396C35.8676 153.268 34.8691 152.757 34.1337 151.955C33.3983 151.154 32.9748 150.115 32.94 149.028" stroke="#263238" stroke-linecap="round" stroke-linejoin="round"/>
<path d="M40.3393 152.359C39.7201 152.916 38.9495 153.277 38.125 153.396" stroke="#263238" stroke-linecap="round" stroke-linejoin="round"/>
<path d="M37.3747 144.563C38.1601 144.588 38.9255 144.817 39.5962 145.226C40.267 145.636 40.8204 146.212 41.2024 146.899C41.5845 147.585 41.7822 148.359 41.7763 149.145C41.7704 149.931 41.5612 150.702 41.1689 151.383" stroke="#263238" stroke-linecap="round" stroke-linejoin="round"/>
<path d="M46.2685 145.71C45.4572 145.453 44.652 145.161 43.8285 144.978" stroke="#263238" stroke-linecap="round" stroke-linejoin="round"/>
<path d="M53.1859 146.295C52.4966 147.936 48.6414 146.442 47.519 146.1" stroke="#263238" stroke-linecap="round" stroke-linejoin="round"/>
<path d="M46.5857 141.94L53.7959 143.636C53.68 144.117 53.5885 144.605 53.497 145.087" stroke="#263238" stroke-linecap="round" stroke-linejoin="round"/>
<path d="M43.0172 143.636C43.7858 141.806 43.4808 141.196 45.3962 141.641" stroke="#263238" stroke-linecap="round" stroke-linejoin="round"/>
<path d="M150.997 273.12L160.544 276.048L153.45 267.691C157.339 263.367 159.565 257.803 159.733 251.99" stroke="#263238" stroke-linecap="round" stroke-linejoin="round"/>
<path d="M139.414 276.805C142.613 275.784 145.633 274.267 148.362 272.309" stroke="#263238" stroke-linecap="round" stroke-linejoin="round"/>
<path d="M102.576 259.054C105.388 272.602 120.357 280.947 136.016 277.701" stroke="#263238" stroke-linecap="round" stroke-linejoin="round"/>
<path d="M104.857 243.779C104.256 244.921 103.746 246.108 103.332 247.329" stroke="#263238" stroke-linecap="round" stroke-linejoin="round"/>
<path d="M159.275 247.293C156.469 233.745 141.494 225.4 125.841 228.651C118.733 230.047 112.328 233.86 107.712 239.442" stroke="#263238" stroke-linecap="round" stroke-linejoin="round"/>
<path d="M142.665 242.327C138.157 237.417 132.014 240.821 129.458 245.804C125.237 242.144 118.265 241.248 115.91 247.488C111.933 257.998 125.536 264.409 131.831 266.727C132.545 266.996 133.131 267.222 133.619 267.386C134.015 267.051 134.479 266.624 135.04 266.111C140.017 261.616 150.265 250.611 142.665 242.327Z" stroke="#263238" stroke-linecap="round" stroke-linejoin="round"/>
<path d="M180.149 32.3755L170.932 28.5386L177.185 37.5422C172.911 41.4708 170.17 46.7883 169.45 52.5482" stroke="#263238" stroke-linecap="round" stroke-linejoin="round"/>
<path d="M192.02 29.8074C188.738 30.5189 185.588 31.7372 182.681 33.4186" stroke="#263238" stroke-linecap="round" stroke-linejoin="round"/>
<path d="M226.991 51.0232C225.497 37.2555 211.4 27.4955 195.503 29.2462" stroke="#263238" stroke-linecap="round" stroke-linejoin="round"/>
<path d="M223.252 66.0048C223.949 64.9257 224.561 63.7937 225.082 62.6193" stroke="#263238" stroke-linecap="round" stroke-linejoin="round"/>
<path d="M169.45 57.2696C170.945 71.0251 185.042 80.7729 200.938 79.0466C208.146 78.3384 214.887 75.1597 220.019 70.0491" stroke="#263238" stroke-linecap="round" stroke-linejoin="round"/>
<path d="M204.906 65.6876C211.954 61.9147 214.609 53.1425 210.837 46.0943C207.064 39.0461 198.291 36.3909 191.243 40.1638C184.195 43.9367 181.54 52.7089 185.313 59.7571C189.086 66.8053 197.858 69.4605 204.906 65.6876Z" stroke="#263238" stroke-linecap="round" stroke-linejoin="round"/>
<path d="M192.575 54.7564L196.906 58.8434L204.129 46.4055" stroke="#263238" stroke-linecap="round" stroke-linejoin="round"/>
<path opacity="0.2" d="M201.658 204.153C201.658 204.153 199.487 230.432 202.628 236.806C205.77 243.181 207.343 286.735 205.934 292.213C205.934 292.213 216.048 294.762 220.05 291.139C224.051 287.516 230.206 291.005 240.344 287.479C250.483 283.953 243.169 205.696 243.169 205.696L243.48 177.228L226.76 162.331L201.658 204.153Z" fill="black" fill-opacity="0.7"/>
<path d="M215.139 216.792C215.076 216.98 214.974 217.153 214.84 217.299C212.681 219.342 203.464 221.611 195.546 223.246C188.989 224.606 183.346 225.528 183.346 225.528C183.346 225.528 179.003 189.434 179.003 185.64C179.003 181.845 172 120.418 172 120.418L188.787 119.692L211.058 118.729C211.058 118.729 211.192 120.37 211.418 123.237C212.888 141.5 217.939 209.588 215.139 216.792Z" fill="#3B82F6"/>
<mask id="mask0_15_2084" style="mask-type:luminance" maskUnits="userSpaceOnUse" x="172" y="118" width="44" height="108">
<path d="M215.139 216.792C215.076 216.98 214.974 217.153 214.84 217.299C212.681 219.342 203.464 221.611 195.546 223.246C188.989 224.606 183.346 225.528 183.346 225.528C183.346 225.528 179.003 189.434 179.003 185.64C179.003 181.845 172 120.418 172 120.418L188.787 119.692L211.058 118.729C211.058 118.729 211.192 120.37 211.418 123.237C212.888 141.5 217.939 209.588 215.139 216.792Z" fill="white"/>
</mask>
<g mask="url(#mask0_15_2084)">
<path opacity="0.2" d="M215.139 216.792L195.546 220.8L188.147 222.319C186.14 220.349 184.609 220.312 184.609 220.312L183.999 214.791L183.041 205.757L174.611 126.274C176.441 125.012 177.344 122.248 177.344 122.248L188.629 121.84L208.179 121.126L211.406 123.212C212.888 141.5 217.939 209.588 215.139 216.792Z" fill="white" fill-opacity="0.7"/>
<path d="M215.139 216.792L195.546 220.8L188.147 222.319C186.14 220.349 184.609 220.312 184.609 220.312L183.999 214.791L183.041 205.757L174.611 126.274C176.441 125.012 177.344 122.248 177.344 122.248L188.629 121.84L208.179 121.126L211.406 123.212C212.888 141.5 217.939 209.588 215.139 216.792Z" stroke="#263238" stroke-linecap="round" stroke-linejoin="round"/>
<path d="M185.646 193.393L192.185 193.38L192.191 195.424L190.373 196.071L186.183 196.528L185.646 193.393Z" fill="#3B82F6" stroke="#263238" stroke-linecap="round" stroke-linejoin="round"/>
<path d="M186.048 197.602L190.855 197.437L192.087 198.023L192.026 200.737L186.414 200.798L186.048 197.602Z" fill="#3B82F6" stroke="#263238" stroke-linecap="round" stroke-linejoin="round"/>
<path d="M186.817 201.939L192.307 201.542L192.246 203.598L189.592 204.537L186.786 204.379L186.817 201.939Z" fill="#3B82F6" stroke="#263238" stroke-linecap="round" stroke-linejoin="round"/>
<path d="M187.146 205.404L191.581 205.629L191.984 206.764L191.337 208.014L187.372 208.271L186.689 206.337L187.146 205.404Z" fill="#3B82F6" stroke="#263238" stroke-linecap="round" stroke-linejoin="round"/>
<path d="M192.258 209.375L192.868 211.15C192.965 211.338 193.016 211.548 193.016 211.76C193.016 211.972 192.965 212.181 192.868 212.37C192.755 212.499 192.61 212.598 192.447 212.656C192.285 212.713 192.111 212.728 191.941 212.699C191.599 212.669 191.264 212.553 190.922 212.535C189.891 212.492 188.946 213.34 187.933 213.145C187.537 212.047 186.536 210.436 187.89 209.942C188.141 209.863 192.405 209.777 192.258 209.375Z" fill="#3B82F6" stroke="#263238" stroke-linecap="round" stroke-linejoin="round"/>
<path d="M192.24 214.371C192.337 214.793 192.406 215.221 192.447 215.652C192.509 215.924 192.5 216.208 192.421 216.476C192.342 216.744 192.196 216.987 191.996 217.183C191.736 217.326 191.445 217.403 191.148 217.408L187.622 217.726C187.571 217.06 187.56 216.392 187.592 215.725C187.799 214.932 187.653 214.999 188.403 214.676C189.592 214.169 191.02 214.975 192.24 214.371Z" fill="#3B82F6" stroke="#263238" stroke-linecap="round" stroke-linejoin="round"/>
<path d="M179.418 128.08C179.418 128.08 180.747 140.933 180.808 143.476" stroke="#263238" stroke-linecap="round" stroke-linejoin="round"/>
<path d="M182.285 128.22L182.907 135.302" stroke="#263238" stroke-linecap="round" stroke-linejoin="round"/>
<path d="M192.221 125.542L193.027 133.844L194.155 133.954L193.789 125.622L192.221 125.542Z" fill="#3B82F6" stroke="#263238" stroke-linecap="round" stroke-linejoin="round"/>
<path opacity="0.2" d="M215.139 216.792C215.076 216.98 214.974 217.153 214.84 217.299C212.681 219.342 203.464 221.611 195.546 223.246V217.756L184.023 214.804L182.285 214.358L183.065 205.77L186.048 172.952L188.653 121.864L188.763 119.692L211.058 118.729C211.058 118.729 211.193 120.37 211.418 123.237C212.888 141.5 217.939 209.588 215.139 216.792Z" fill="black" fill-opacity="0.7"/>
</g>
<path d="M215.139 216.792C215.076 216.98 214.974 217.153 214.84 217.299C212.681 219.342 203.464 221.611 195.546 223.246C188.989 224.606 183.346 225.528 183.346 225.528C183.346 225.528 179.003 189.434 179.003 185.64C179.003 181.845 172 120.418 172 120.418L188.787 119.692L211.058 118.729C211.058 118.729 211.192 120.37 211.418 123.237C212.888 141.5 217.939 209.588 215.139 216.792Z" stroke="#263238" stroke-linecap="round" stroke-linejoin="round"/>
<path d="M226.955 298.697C227.095 297.41 225.07 278.945 225.033 276.938C224.936 271.448 223.38 264.244 223.38 264.244C221.209 258.693 219.519 245.902 213.724 237.697C207.929 229.493 207.935 219.842 206.971 211.65C206.008 203.458 206.245 204.165 206.489 196.894C206.665 191.432 206.423 185.965 205.764 180.54C205.282 175.709 204.318 167.212 205.764 163.253C207.209 159.294 210.991 158.373 215.133 162.338C219.275 166.303 220.965 182.559 220.965 184.566C220.965 186.573 220.965 192.844 222.417 195.259C222.417 195.259 230.621 191.063 230.621 189.904C230.621 188.745 230.377 178.503 231.585 177.954L226.76 162.338L235.91 159.086C237.632 160.631 239.12 162.419 240.326 164.393C241.359 166.028 242.223 167.763 242.906 169.572C246.768 179.814 252.971 186.957 254.252 189.904C255.533 192.85 254.252 216.249 254.252 220.599C254.252 224.948 251.446 244.999 251.52 248.372C251.575 250.812 253.222 259.889 254.862 266.849C255.472 269.533 259.175 288.98 259.742 290.523L243.349 294.61L226.955 298.697Z" fill="white"/>
<path opacity="0.4" d="M234.177 176.923C234.116 178.234 235.684 188.69 235.684 188.69C236.77 191.294 230.841 200.176 230.841 200.176C229.56 200.896 229.011 205.361 229.011 205.361C224.997 204.47 215.804 195.229 215.804 195.229C215.804 195.229 214.718 199.017 213.498 208.393C212.278 217.768 220.013 240.039 223.307 255.417C226.601 270.796 225.033 276.92 225.033 276.92C224.936 271.43 223.38 264.226 223.38 264.226C221.209 258.675 219.519 245.883 213.724 237.679C207.929 229.474 207.935 219.842 206.971 211.65C206.008 203.458 206.245 204.165 206.489 196.894C206.665 191.432 206.423 185.965 205.764 180.54C205.282 175.709 204.318 167.212 205.764 163.253C207.209 159.294 210.991 158.373 215.133 162.338C219.275 166.303 220.965 182.559 220.965 184.566C220.965 186.573 220.965 192.844 222.417 195.259C222.417 195.259 230.621 191.063 230.621 189.904C230.621 188.745 230.377 178.503 231.585 177.954L226.76 162.338L235.91 159.086C237.632 160.631 239.12 162.419 240.326 164.393C237.368 170.31 234.238 176.105 234.177 176.923Z" fill="#3B82F6"/>
<path opacity="0.4" d="M249.561 249.988C249.964 246.328 251.166 237.63 251.928 232.201C250.995 236.44 249.488 238.588 249.488 238.588C249.488 238.588 252.087 207.478 252.343 205.58C252.599 203.683 255.222 195.156 254.258 189.873C255.539 192.813 254.258 216.219 254.258 220.568C254.258 224.917 251.452 244.968 251.526 248.341C251.581 250.781 254.197 266.33 255.838 273.29C252.313 268.166 249.159 253.667 249.561 249.988Z" fill="#3B82F6"/>
<path d="M259.73 290.492C257.803 284.941 251.611 251.696 251.538 248.341C251.465 244.986 254.271 224.911 254.271 220.568C254.271 216.225 255.552 192.813 254.271 189.873C252.99 186.933 246.786 179.784 242.925 169.542C241.465 165.537 239.066 161.941 235.928 159.056L226.778 162.307L231.603 177.923C230.383 178.472 230.639 188.714 230.639 189.873C230.639 191.032 222.435 195.229 222.435 195.229C220.983 192.789 220.983 186.542 220.983 184.535C220.983 182.529 219.293 166.266 215.151 162.307C211.009 158.348 207.221 159.257 205.782 163.222C204.342 167.187 205.3 175.678 205.782 180.509C206.442 185.94 206.685 191.414 206.508 196.882C206.264 204.153 206.02 203.433 206.99 211.638C207.959 219.842 207.953 229.492 213.742 237.697C219.531 245.901 221.227 258.693 223.399 264.244C223.399 264.244 227.498 293.872 226.973 298.697" stroke="#263238" stroke-linecap="round" stroke-linejoin="round"/>
<path d="M222.417 195.229C222.417 195.229 223.862 201.982 227.12 205.361" stroke="#263238" stroke-linecap="round" stroke-linejoin="round"/>
<path d="M223.295 198.309C223.295 198.309 229.395 200.176 231.945 200.292" stroke="#263238" stroke-linecap="round" stroke-linejoin="round"/>
<path d="M230.621 189.873C230.621 189.873 234.964 187.866 237.74 189.074" stroke="#263238" stroke-linecap="round" stroke-linejoin="round"/>
<path d="M231.585 177.923C231.585 177.923 234.964 177.612 235.684 175.922" stroke="#263238" stroke-linecap="round" stroke-linejoin="round"/>
<path d="M214.84 239.417C214.84 239.417 221.331 247.475 223.258 251.574" stroke="#263238" stroke-linecap="round" stroke-linejoin="round"/>
<path d="M252.581 204.153C251.495 210.552 250.043 228.047 249.561 231.182" stroke="#263238" stroke-linecap="round" stroke-linejoin="round"/>
<path d="M254.655 192.087C254.838 197.882 253.435 200.896 253.435 200.896" stroke="#263238" stroke-linecap="round" stroke-linejoin="round"/>
<path d="M204.763 111L249.488 122.797C249.488 122.797 233.769 170.506 230.578 176.423L225.247 218.012C225.247 218.012 196.674 216.756 183.535 212.785C183.535 212.785 191.843 169.475 192.289 163.698C192.734 157.921 204.763 111 204.763 111Z" fill="#3B82F6"/>
<mask id="mask1_15_2084" style="mask-type:luminance" maskUnits="userSpaceOnUse" x="183" y="111" width="67" height="108">
<path d="M204.763 111L249.488 122.797C249.488 122.797 233.769 170.506 230.578 176.423L225.247 218.012C225.247 218.012 196.674 216.756 183.535 212.785C183.535 212.785 191.843 169.475 192.289 163.698C192.734 157.921 204.763 111 204.763 111Z" fill="white"/>
</mask>
<g mask="url(#mask1_15_2084)">
<path opacity="0.2" d="M195.143 161.136L205.001 118.991C205.001 118.991 209.24 116.886 210.881 114.965L242.925 124.078C242.925 124.078 243.022 127.22 244.858 129.233L228.687 175.831L224.765 210.18C224.765 210.18 219.55 210.595 219.049 214.45C219.049 214.45 202.14 215.365 190.8 212.376C190.8 212.376 189.464 208.21 187.421 205.574L195.143 161.136Z" fill="white" fill-opacity="0.7"/>
<path d="M195.143 161.136L205.001 118.991C205.001 118.991 209.241 116.886 210.881 114.965L242.925 124.078C242.925 124.078 243.022 127.22 244.858 129.233L228.687 175.831L224.765 210.18C224.765 210.18 219.55 210.595 219.049 214.45C219.049 214.45 202.14 215.365 190.8 212.376C190.8 212.376 189.464 208.21 187.421 205.574L195.143 161.136Z" stroke="#263238" stroke-linecap="round" stroke-linejoin="round"/>
<path d="M203.348 163.326C203.348 163.326 206.258 152.346 216.506 154.316C226.754 156.286 220.965 169.816 220.965 169.816C220.965 169.816 221.026 180.735 212.711 179.229C205.501 177.923 201.658 173.964 203.348 163.326Z" fill="#3B82F6" stroke="#263238" stroke-linecap="round" stroke-linejoin="round"/>
<path d="M208.899 122.999C208.899 122.999 205.8 135.546 205.001 137.962" stroke="#263238" stroke-linecap="round" stroke-linejoin="round"/>
<path d="M211.552 124.085L209.747 130.965" stroke="#263238" stroke-linecap="round" stroke-linejoin="round"/>
<path d="M234.177 128.91L240.344 131.081L239.667 133.015H237.74L233.634 132.051L234.177 128.91Z" fill="#3B82F6" stroke="#263238" stroke-linecap="round" stroke-linejoin="round"/>
<path d="M233.153 133.015L237.74 134.461L238.704 135.424L237.74 137.962L232.427 136.15L233.153 133.015Z" fill="#3B82F6" stroke="#263238" stroke-linecap="round" stroke-linejoin="round"/>
<path d="M232.427 137.358L237.74 138.822L236.989 140.737H234.177L231.585 139.652L232.427 137.358Z" fill="#3B82F6" stroke="#263238" stroke-linecap="round" stroke-linejoin="round"/>
<path d="M231.585 140.737L235.684 142.427V143.629L234.659 144.599L230.841 143.513V141.457L231.585 140.737Z" fill="#3B82F6" stroke="#263238" stroke-linecap="round" stroke-linejoin="round"/>
<path d="M235.08 146.185V148.064C235.112 148.271 235.095 148.482 235.03 148.681C234.965 148.88 234.855 149.062 234.708 149.21C234.556 149.293 234.387 149.337 234.214 149.337C234.041 149.337 233.871 149.293 233.72 149.21C233.409 149.064 233.11 148.844 232.817 148.716C231.859 148.332 230.682 148.814 229.767 148.301C229.767 147.136 229.358 145.288 230.798 145.251C231.036 145.27 235.08 146.612 235.08 146.185Z" fill="#3B82F6" stroke="#263238" stroke-linecap="round" stroke-linejoin="round"/>
<path d="M233.39 150.888C233.344 151.318 233.267 151.744 233.159 152.163C233.024 152.706 232.762 153.31 232.219 153.456C231.927 153.505 231.627 153.479 231.347 153.383L227.919 152.48C228.084 151.838 228.288 151.207 228.529 150.589C228.992 149.912 228.834 149.924 229.645 149.869C230.963 149.814 232.036 151.053 233.39 150.888Z" fill="#3B82F6" stroke="#263238" stroke-linecap="round" stroke-linejoin="round"/>
<path d="M221.813 124.932L219.757 133.015L220.782 133.497L223.258 125.53L221.813 124.932Z" fill="#3B82F6" stroke="#263238" stroke-linecap="round" stroke-linejoin="round"/>
<path d="M196.052 179.21L202.384 180.851L201.872 182.828L199.95 182.998L195.778 182.382L196.052 179.21Z" fill="#3B82F6" stroke="#263238" stroke-linecap="round" stroke-linejoin="round"/>
<path d="M195.381 183.389L200.072 184.438L201.121 185.316L200.377 187.927L194.93 186.573L195.381 183.389Z" fill="#3B82F6" stroke="#263238" stroke-linecap="round" stroke-linejoin="round"/>
<path d="M195.034 187.781L200.45 188.781L199.865 190.751L197.065 190.995L194.387 190.135L195.034 187.781Z" fill="#3B82F6" stroke="#263238" stroke-linecap="round" stroke-linejoin="round"/>
<path d="M194.479 191.215L198.712 192.551L198.816 193.753L197.876 194.802L193.978 194.045L193.801 192.002L194.479 191.215Z" fill="#3B82F6" stroke="#263238" stroke-linecap="round" stroke-linejoin="round"/>
<path d="M198.425 196.345L198.59 198.218C198.64 198.422 198.641 198.635 198.593 198.839C198.546 199.044 198.45 199.234 198.315 199.395C198.172 199.49 198.006 199.547 197.835 199.561C197.663 199.575 197.49 199.545 197.333 199.474C197.01 199.358 196.723 199.163 196.388 199.066C195.406 198.761 194.271 199.34 193.338 198.907C193.228 197.748 192.673 195.942 194.1 195.802C194.32 195.79 198.462 196.772 198.425 196.345Z" fill="#3B82F6" stroke="#263238" stroke-linecap="round" stroke-linejoin="round"/>
<path d="M197.15 201.176C197.142 201.62 197.101 202.062 197.028 202.5C196.937 203.049 196.729 203.677 196.205 203.866C195.917 203.94 195.615 203.94 195.326 203.866L191.837 203.256C191.955 202.601 192.111 201.953 192.307 201.317C192.71 200.603 192.551 200.627 193.356 200.505C194.637 200.316 195.808 201.457 197.15 201.176Z" fill="#3B82F6" stroke="#263238" stroke-linecap="round" stroke-linejoin="round"/>
<path d="M222.417 207.099C222.417 207.099 223.868 190.91 223.868 189.281" stroke="#263238" stroke-linecap="round" stroke-linejoin="round"/>
<path d="M219.519 206.373C219.519 206.373 220.129 197.955 220.239 196.491" stroke="#263238" stroke-linecap="round" stroke-linejoin="round"/>
<path d="M208.204 200.292L206.245 209.875H208.204L209.625 200.292H208.204Z" fill="#3B82F6" stroke="#263238" stroke-linecap="round" stroke-linejoin="round"/>
<path opacity="0.2" d="M230.682 176.185C226.449 175.3 222.673 174.001 219.879 172.128C219.879 172.128 221.904 177.948 229.084 187.866L225.222 218.012C225.222 218.012 206.575 217.195 192.484 214.785C196.815 202.585 204.684 179.466 203.75 174.885C202.488 168.596 206.947 161.173 206.947 161.173C221.044 158.635 234.714 147.978 244.096 138.969C239.32 153.09 232.799 172 230.682 176.185Z" fill="black" fill-opacity="0.7"/>
</g>
<path d="M204.763 111L249.488 122.797C249.488 122.797 233.769 170.506 230.578 176.423L225.247 218.012C225.247 218.012 196.674 216.756 183.535 212.785C183.535 212.785 191.843 169.475 192.289 163.698C192.734 157.921 204.763 111 204.763 111Z" stroke="#263238" stroke-linecap="round" stroke-linejoin="round"/>
<path d="M229.56 205.971L223.258 251.575C221.855 248.592 218.031 243.504 216.054 240.961C215.322 240.009 214.834 239.417 214.834 239.417L213.718 237.697C207.929 229.493 207.929 219.842 206.965 211.638C206.001 203.433 206.239 204.153 206.483 196.882C206.661 191.424 206.42 185.961 205.764 180.54C205.282 175.709 204.318 167.212 205.764 163.253C206.471 161.313 207.746 160.105 209.344 159.849C210.942 159.593 213.004 160.325 215.133 162.338C219.275 166.297 220.965 182.559 220.965 184.566C220.965 186.573 220.965 192.844 222.417 195.259C222.417 195.229 226.308 202.592 229.56 205.971Z" fill="white"/>
<path opacity="0.4" d="M213.242 234.446C214.56 236.129 215.456 238.557 216.054 240.961C215.322 240.009 214.834 239.417 214.834 239.417L213.718 237.697C207.929 229.493 207.929 219.842 206.965 211.638C206.001 203.433 206.239 204.153 206.483 196.882C206.661 191.424 206.42 185.961 205.764 180.54C205.282 175.709 204.318 167.212 205.764 163.253C206.471 161.313 207.746 160.105 209.344 159.849C212.394 160.715 215.444 163.82 216.506 169.133C218.336 178.051 210.082 170.847 208.173 178.405C206.264 185.963 209.039 188 210.18 189.904C211.321 191.807 209.863 196.004 208.173 201.64C206.483 207.276 209.625 229.816 213.242 234.446Z" fill="#3B82F6"/>
<path d="M229.56 205.971C226.302 202.592 222.416 195.229 222.416 195.229C220.965 192.789 220.965 186.542 220.965 184.536C220.965 182.529 219.275 166.266 215.133 162.307C210.991 158.348 207.203 159.257 205.763 163.222C204.324 167.187 205.282 175.678 205.763 180.51C206.424 185.94 206.666 191.414 206.489 196.882C206.245 204.153 206.001 203.433 206.971 211.638C207.941 219.842 207.935 229.493 213.724 237.697L214.84 239.417C214.84 239.417 221.331 247.475 223.258 251.575" stroke="#263238" stroke-linecap="round" stroke-linejoin="round"/>
<path d="M208.203 186.671C208.203 186.671 213.736 183.81 216.506 184.054" stroke="#263238" stroke-linecap="round" stroke-linejoin="round"/>
<path opacity="0.2" d="M114.334 117.935C114.334 117.935 100.341 102.526 99.3769 101.581C98.4131 100.635 97.6872 84.2017 95.0276 76.9671C92.368 69.7325 91.0809 27.2521 91.0809 27.2521C91.0809 27.2521 88.5494 24.1167 81.4124 25.8064C74.2754 27.4961 67.2787 24.3546 59.3182 28.9418C51.3577 33.529 66.7968 99.1406 66.7968 99.1406L82.4677 149.081L114.334 117.935Z" fill="black" fill-opacity="0.7"/>
<path opacity="0.2" d="M129.5 179C129.5 179 111.303 162.22 110.339 161.274C109.375 160.329 108.649 143.895 105.99 136.661C103.33 129.426 102.043 86.9456 102.043 86.9456C102.043 86.9456 99.5114 83.8102 92.3744 85.4999C85.2374 87.1896 98.9605 84.4128 91 89C83.0395 93.5872 75 187.5 75 187.5C75 187.5 137 205.5 132 186.5C130.056 179.114 129.5 179 129.5 179Z" fill="black" fill-opacity="0.7"/>
<path d="M123.948 118.051C123.948 118.051 117.677 158.109 111.138 163.416C107.362 166.466 101.475 167.869 96.2537 167.686C92.4717 167.552 89.0313 166.601 87.0061 164.874C82.181 160.769 75.4161 158.597 72.0489 155.944C68.6817 153.29 68.6695 143.878 66.4979 135.911C64.3263 127.945 61.1848 127.707 60.465 119.746C59.7452 111.786 56.8416 87.4164 51.5956 80.6515C46.3496 73.8866 46.2276 68.5857 44.056 61.7049C41.8844 54.8241 26 29.93 26 29.93L64.7228 22C64.7228 22 68.5292 37.7563 72.604 50.609C74.5377 56.709 76.5324 62.1624 78.2038 64.9562C81.4132 70.3601 84.1931 76.0078 86.5181 81.8471C90.8979 86.4343 93.2952 96.5969 94.0211 105.497L104.391 111.28C112.364 113.457 123.948 118.051 123.948 118.051Z" fill="white"/>
<path opacity="0.4" d="M123.948 118.051C123.948 118.051 117.677 158.109 111.138 163.416C107.362 166.466 101.475 167.869 96.2537 167.686C83.8707 164.636 80.5401 157.731 78.8626 156.06C76.63 153.833 73.6959 140.267 75.3063 132.373C76.9167 124.48 75.7577 121.558 74.4279 117.703C71.4816 109.163 80.4669 104.563 81.3941 101.33C82.3213 98.0975 82.0041 80.0171 77.9598 74.1367C75.8126 71.0074 70.2799 54.879 72.6101 50.6212C74.5438 56.7212 76.5385 62.1746 78.2099 64.9684C81.4193 70.3723 84.1992 76.02 86.5242 81.8593C90.904 86.4465 93.3013 96.6091 94.0272 105.509L104.397 111.292C112.364 113.457 123.948 118.051 123.948 118.051Z" fill="#3B82F6"/>
<path d="M76.6605 115.232C76.6605 115.232 74.4767 117.8 72.5491 117.8" stroke="#263238" stroke-linecap="round" stroke-linejoin="round"/>
<path d="M81.4124 123.913C81.4124 123.913 79.0639 128.903 75.3124 130.013" stroke="#263238" stroke-linecap="round" stroke-linejoin="round"/>
<path d="M77.24 153.156C77.24 153.156 82.5531 150.863 83.3949 147.001" stroke="#263238" stroke-linecap="round" stroke-linejoin="round"/>
<path d="M104.403 111.286C104.403 111.286 103.074 112.975 103.074 114.336" stroke="#263238" stroke-linecap="round" stroke-linejoin="round"/>
<path d="M64.7472 22C64.7472 22 73.031 56.2637 78.2282 64.9806C81.4376 70.3846 84.2175 76.0322 86.5425 81.8715C90.9223 86.4587 93.3196 96.6274 94.0455 105.527L104.416 111.31C112.376 113.482 123.936 118.069 123.936 118.069C123.936 118.069 117.665 158.128 111.126 163.435C104.586 168.742 91.88 168.961 87 164.862C82.12 160.763 75.41 158.585 72.0428 155.932C68.6756 153.278 68.6634 143.866 66.4918 135.899C64.3202 127.933 61.1787 127.695 60.4589 119.734C59.7391 111.774 56.8355 87.4042 51.5895 80.6393C46.3435 73.8744 46.2215 68.5735 44.0499 61.6927C41.8783 54.8119 26 29.93 26 29.93" stroke="#263238" stroke-linecap="round" stroke-linejoin="round"/>
<path d="M135.643 92.8086L149.826 93.9923C150.437 94.0431 151.03 94.2287 151.57 94.5382C152.109 94.8477 152.585 95.2749 152.968 95.7949C153.352 96.3148 153.636 96.917 153.803 97.5663C153.971 98.2155 154.019 98.8987 153.945 99.576L151.295 123.827C151.155 125.107 150.586 126.295 149.701 127.154C148.816 128.013 147.681 128.48 146.52 128.462C146.131 128.457 145.751 128.615 145.456 128.906C145.162 129.196 144.975 129.597 144.934 130.027L142.523 148.508L140.057 181.358C139.896 183.039 139.143 184.599 137.961 185.698C136.78 186.797 135.266 187.345 133.751 187.224L79.5456 182.871C79.3437 182.854 79.1478 182.794 78.9692 182.693C78.7906 182.592 78.6329 182.452 78.5051 182.281C78.3774 182.111 78.2822 181.913 78.225 181.699C78.1678 181.486 78.1498 181.261 78.1721 181.037L87.3415 92.0073C87.3865 91.5709 87.5817 91.1662 87.8864 90.8776C88.1911 90.5891 88.5816 90.4392 88.9763 90.4591L135.643 92.8086Z" fill="#244F96"/>
<g opacity="0.3">
<path d="M78.6008 179.352L78.4306 181.034L138.451 182.824L148.863 93.9729C148.863 93.9729 134.181 94.4718 133.911 94.4367C133.642 94.4016 78.6008 179.352 78.6008 179.352Z" fill="black"/>
</g>
<path d="M141.042 121.101L141.037 121.13L141.035 121.161L137.163 180.055L75.5024 178.709L78.278 87.0581L130.05 87.7381L147.187 88.8456L141.042 121.101Z" fill="white" stroke="black" stroke-width="0.993265"/>
<path d="M129.808 87.2067C129.808 87.2067 129.498 87.2095 128.881 87.202L126.182 87.1817L115.821 87.068L77.7914 86.6171L77.852 86.5555C77.0948 111.374 76.1041 143.617 75.0159 179.196L74.9375 179.11L88.9003 179.408L137.234 180.438L137.153 180.51C141.616 140.21 145.275 107.156 147.356 88.3385L147.39 88.3827L134.295 87.5225L130.925 87.2925L129.786 87.2104C129.786 87.2104 130.17 87.2273 130.924 87.2726L134.297 87.4798L147.397 88.3042L147.434 88.3089L147.429 88.348C145.362 107.171 141.73 140.235 137.305 180.53L137.296 180.602L137.229 180.593L88.8978 179.57L74.9346 179.275L74.8556 179.265L74.8661 179.183C75.9721 143.61 76.972 111.368 77.7417 86.5477L77.7502 86.4826L77.808 86.4901L115.818 87.0013L126.178 87.148L128.873 87.191C129.482 87.1941 129.808 87.2067 129.808 87.2067Z" fill="#3370D3"/>
<path d="M136.566 104.758L136.564 104.776L136.564 104.795L135.123 178.148L71.4984 176.02L75.6964 156.559L75.7074 156.507L75.7077 156.454L75.707 83.4335L138.422 85.5025L136.566 104.758Z" fill="white" stroke="black" stroke-width="0.993265"/>
<mask id="path-117-inside-1_15_2084" fill="white">
<path d="M74.9383 83.0749L138.855 84.7961L138.919 84.8044L138.91 84.8728C138.131 111.165 137.167 143.563 136.129 178.537L136.118 178.621L136.039 178.611L135.579 178.598L71.1697 176.763L71.1002 176.754L71.1103 176.675C73.3743 121.264 74.9107 83.7597 74.9383 83.0749C74.9107 83.7597 73.4314 121.274 71.2473 176.687L71.1775 176.608L135.598 178.431L136.058 178.442L135.976 178.527C137.025 143.545 137.242 141.059 138.788 84.8635L138.85 84.9344L74.9383 83.0749Z"/>
</mask>
<path d="M74.9383 83.0749L138.855 84.7961L138.919 84.8044L138.91 84.8728C138.131 111.165 137.167 143.563 136.129 178.537L136.118 178.621L136.039 178.611L135.579 178.598L71.1697 176.763L71.1002 176.754L71.1103 176.675C73.3743 121.264 74.9107 83.7597 74.9383 83.0749C74.9107 83.7597 73.4314 121.274 71.2473 176.687L71.1775 176.608L135.598 178.431L136.058 178.442L135.976 178.527C137.025 143.545 137.242 141.059 138.788 84.8635L138.85 84.9344L74.9383 83.0749Z" fill="#3370D3"/>
<path d="M74.9383 83.0749L74.9651 82.082L73.9853 82.0556L73.9459 83.0349L74.9383 83.0749ZM138.855 84.7961L138.983 83.8112L138.933 83.8046L138.882 83.8032L138.855 84.7961ZM138.919 84.8044L139.904 84.9326L140.032 83.9476L139.047 83.8194L138.919 84.8044ZM138.91 84.8728L137.925 84.7446L137.919 84.7938L137.917 84.8433L138.91 84.8728ZM136.129 178.537L137.114 178.665L137.12 178.616L137.122 178.566L136.129 178.537ZM136.118 178.621L135.99 179.606L136.975 179.735L137.103 178.75L136.118 178.621ZM136.039 178.611L136.167 177.626L136.118 177.62L136.068 177.618L136.039 178.611ZM135.579 178.598L135.609 177.605L135.608 177.605L135.579 178.598ZM71.1697 176.763L71.0416 177.748L71.0913 177.754L71.1414 177.756L71.1697 176.763ZM71.1002 176.754L70.1152 176.625L69.987 177.61L70.972 177.739L71.1002 176.754ZM71.1103 176.675L72.0953 176.804L72.101 176.76L72.1028 176.716L71.1103 176.675ZM71.2473 176.687L70.5045 177.346L72.1426 179.192L72.2398 176.726L71.2473 176.687ZM71.1775 176.608L71.2056 175.615L68.9104 175.55L70.4347 177.268L71.1775 176.608ZM135.598 178.431L135.57 179.424L135.576 179.424L135.598 178.431ZM136.058 178.442L136.775 179.129L138.339 177.499L136.08 177.449L136.058 178.442ZM135.976 178.527L134.984 178.497L134.906 181.077L136.693 179.215L135.976 178.527ZM138.788 84.8635L139.538 84.2124L137.865 82.2853L137.795 84.8362L138.788 84.8635ZM138.85 84.9344L138.821 85.9273L141.084 85.9931L139.6 84.2833L138.85 84.9344ZM74.9116 84.0678L138.829 85.789L138.882 83.8032L74.9651 82.082L74.9116 84.0678ZM138.727 85.7811L138.791 85.7894L139.047 83.8194L138.983 83.8112L138.727 85.7811ZM137.934 84.6762L137.925 84.7446L139.895 85.0009L139.904 84.9326L137.934 84.6762ZM137.917 84.8433C137.138 111.136 136.174 143.534 135.136 178.507L137.122 178.566C138.16 143.593 139.124 111.194 139.903 84.9022L137.917 84.8433ZM135.144 178.409L135.133 178.493L137.103 178.75L137.114 178.665L135.144 178.409ZM136.246 177.636L136.167 177.626L135.911 179.596L135.99 179.606L136.246 177.636ZM136.068 177.618L135.609 177.605L135.55 179.591L136.01 179.604L136.068 177.618ZM135.608 177.605L71.198 175.77L71.1414 177.756L135.551 179.591L135.608 177.605ZM71.2979 175.778L71.2283 175.769L70.972 177.739L71.0416 177.748L71.2979 175.778ZM72.0851 176.882L72.0953 176.804L70.1254 176.547L70.1152 176.625L72.0851 176.882ZM72.1028 176.716C74.3668 121.305 75.9032 83.8001 75.9308 83.1149L73.9459 83.0349C73.9183 83.7194 72.3819 121.222 70.1179 176.635L72.1028 176.716ZM73.9459 83.0349C73.9183 83.7203 72.4389 121.236 70.2548 176.648L72.2398 176.726C74.4239 121.313 75.9032 83.7992 75.9308 83.1149L73.9459 83.0349ZM71.9901 176.027L71.9204 175.949L70.4347 177.268L70.5045 177.346L71.9901 176.027ZM71.1494 177.601L135.57 179.424L135.626 177.438L71.2056 175.615L71.1494 177.601ZM135.576 179.424L136.036 179.435L136.08 177.449L135.62 177.438L135.576 179.424ZM135.341 177.754L135.26 177.839L136.693 179.215L136.775 179.129L135.341 177.754ZM136.969 178.557C138.017 143.581 138.235 141.087 139.781 84.8908L137.795 84.8362C136.249 141.031 136.032 143.508 134.984 178.497L136.969 178.557ZM138.038 85.5146L138.099 85.5855L139.6 84.2833L139.538 84.2124L138.038 85.5146ZM138.878 83.9416L74.9672 82.082L74.9095 84.0677L138.821 85.9273L138.878 83.9416Z" fill="#3370D3" mask="url(#path-117-inside-1_15_2084)"/>
<path d="M113.581 160.533C113.847 158.526 114.7 156.642 116.032 155.12C117.364 153.598 119.115 152.506 121.063 151.983C123.012 151.46 125.07 151.528 126.978 152.18C128.887 152.832 130.559 154.037 131.784 155.644C133.009 157.251 133.732 159.188 133.861 161.208C133.99 163.229 133.519 165.244 132.508 166.997C131.498 168.751 129.993 170.165 128.183 171.06C126.373 171.955 124.341 172.292 122.342 172.027C119.662 171.67 117.235 170.259 115.592 168.104C113.949 165.949 113.226 163.226 113.581 160.533ZM133.605 163.189C133.867 161.218 133.54 159.213 132.668 157.429C131.795 155.645 130.415 154.162 128.701 153.167C126.988 152.172 125.019 151.71 123.044 151.84C121.068 151.969 119.174 152.684 117.601 153.895C116.029 155.105 114.849 156.756 114.21 158.639C113.571 160.522 113.502 162.552 114.013 164.473C114.523 166.394 115.589 168.119 117.076 169.43C118.563 170.741 120.404 171.579 122.367 171.838C124.995 172.183 127.653 171.467 129.759 169.848C131.866 168.229 133.248 165.838 133.603 163.199L133.605 163.189Z" fill="#3370D3"/>
<path d="M114.734 160.687C114.966 158.936 115.71 157.293 116.872 155.965C118.033 154.638 119.561 153.686 121.26 153.23C122.959 152.773 124.755 152.833 126.419 153.402C128.083 153.971 129.542 155.022 130.61 156.424C131.678 157.826 132.308 159.515 132.42 161.277C132.532 163.04 132.122 164.797 131.24 166.326C130.358 167.855 129.045 169.088 127.466 169.868C125.888 170.649 124.115 170.942 122.372 170.71C120.035 170.398 117.918 169.168 116.486 167.288C115.054 165.409 114.424 163.035 114.734 160.687ZM131.059 162.851C131.257 161.358 131.01 159.84 130.349 158.489C129.688 157.138 128.642 156.014 127.345 155.261C126.048 154.507 124.556 154.157 123.06 154.255C121.563 154.353 120.129 154.895 118.938 155.811C117.747 156.728 116.853 157.978 116.369 159.404C115.885 160.83 115.833 162.368 116.219 163.823C116.605 165.278 117.412 166.584 118.538 167.577C119.664 168.571 121.059 169.206 122.545 169.402C124.535 169.664 126.547 169.123 128.142 167.899C129.738 166.674 130.785 164.865 131.057 162.867L131.059 162.851Z" fill="#3370D3"/>
<path d="M116.894 161.1C117.028 160.083 117.399 159.111 117.975 158.262L119.058 159.002C118.595 159.682 118.299 160.463 118.195 161.28C118.078 162.209 118.208 163.153 118.573 164.015C118.937 164.877 119.523 165.626 120.27 166.186C121.018 166.745 121.9 167.095 122.826 167.201C123.753 167.306 124.691 167.162 125.545 166.784L126.081 167.986C125.013 168.461 123.839 168.642 122.679 168.512C121.52 168.381 120.416 167.943 119.481 167.242C118.546 166.541 117.813 165.603 117.359 164.524C116.904 163.445 116.744 162.263 116.894 161.1Z" fill="#3370D3"/>
<path d="M121.151 155.759C122.508 155.26 123.991 155.224 125.37 155.655C126.749 156.087 127.948 156.963 128.781 158.148C129.614 159.333 130.035 160.761 129.979 162.211C129.923 163.661 129.393 165.053 128.472 166.172L127.464 165.332C128.198 164.436 128.618 163.323 128.661 162.164C128.703 161.005 128.366 159.864 127.699 158.918C127.033 157.971 126.076 157.271 124.974 156.925C123.872 156.579 122.688 156.607 121.602 157.003L121.151 155.759Z" fill="#3370D3"/>
<path d="M93.8096 94.5139C93.8151 94.2622 93.872 94.0141 93.9768 93.7853C94.0817 93.5564 94.2322 93.3516 94.419 93.1835C94.6059 93.0154 94.8251 92.8876 95.0631 92.808C95.3011 92.7285 95.5527 92.6989 95.8024 92.7211C96.0903 92.7159 96.3755 92.777 96.636 92.8998C96.8964 93.0227 97.1253 93.2039 97.305 93.4297L96.65 94.0064C96.5558 93.8755 96.4329 93.768 96.2909 93.6922C96.1488 93.6163 95.9914 93.5741 95.8305 93.5688C95.698 93.565 95.5659 93.5875 95.4419 93.635C95.318 93.6824 95.2045 93.7539 95.108 93.8454C95.0115 93.9369 94.9338 94.0466 94.8795 94.1681C94.8251 94.2897 94.7952 94.4208 94.7912 94.554C94.7873 94.6871 94.8096 94.8197 94.8567 94.9442C94.9038 95.0686 94.9749 95.1825 95.0658 95.2793C95.1568 95.3762 95.2659 95.454 95.3869 95.5085C95.5078 95.5629 95.6383 95.5929 95.7709 95.5967C95.9355 95.6007 96.0988 95.5659 96.2477 95.495C96.3966 95.4241 96.5268 95.3191 96.628 95.1885L97.246 95.782C97.0559 95.9988 96.8184 96.1684 96.552 96.2773C96.2857 96.3862 95.9978 96.4316 95.7112 96.4098C95.4597 96.4206 95.2087 96.3791 94.9741 96.2879C94.7394 96.1966 94.5261 96.0576 94.3475 95.8796C94.169 95.7016 94.029 95.4884 93.9364 95.2534C93.8439 95.0184 93.8007 94.7666 93.8096 94.5139Z" fill="#090A0B"/>
<path d="M97.4576 94.6114C97.4871 93.5494 98.3535 92.7916 99.4699 92.8211C100.586 92.8505 101.411 93.653 101.38 94.7247C101.35 95.7964 100.485 96.5444 99.3681 96.515C98.2517 96.4855 97.4277 95.6766 97.4576 94.6114ZM100.373 94.6896C100.368 94.5026 100.308 94.3214 100.201 94.1683C100.094 94.0152 99.9447 93.8969 99.7716 93.8281C99.5984 93.7593 99.4089 93.743 99.2265 93.7811C99.044 93.8192 98.8766 93.9101 98.7449 94.0426C98.6132 94.175 98.5229 94.3433 98.4852 94.5266C98.4476 94.7099 98.4641 94.9002 98.5329 95.0741C98.6016 95.2479 98.7196 95.3976 98.8721 95.5048C99.0247 95.612 99.2053 95.672 99.3915 95.6773C99.5219 95.6825 99.652 95.6604 99.7735 95.6126C99.8951 95.5648 100.005 95.4922 100.098 95.3994C100.19 95.3066 100.262 95.1956 100.31 95.0734C100.357 94.9513 100.379 94.8206 100.373 94.6896Z" fill="#090A0B"/>
<path d="M105.315 93.0488L105.216 96.5973L104.395 96.5733L102.887 94.6426L102.836 96.5325L101.851 96.5036L101.95 92.9583L102.771 92.9791L104.279 94.9131L104.33 93.0232L105.315 93.0488Z" fill="#090A0B"/>
<path d="M106.752 93.8845L105.668 93.856L105.689 93.0611L108.852 93.1417L108.831 93.9366L107.751 93.9086L107.673 96.6589L106.688 96.6333L106.752 93.8845Z" fill="#090A0B"/>
<path d="M110.697 95.8013L110.152 95.7867L110.125 96.7298L109.14 96.7042L109.239 93.1556L110.851 93.1999C111.816 93.2262 112.409 93.7337 112.385 94.5547C112.387 94.7895 112.32 95.0198 112.191 95.2159C112.062 95.4121 111.878 95.5651 111.662 95.6554L112.393 96.7933L111.323 96.7633L110.697 95.8013ZM110.755 93.9884L110.2 93.9725L110.174 95.0117L110.729 95.0276C111.142 95.0384 111.355 94.8509 111.364 94.5277C111.373 94.2045 111.168 94.009 110.755 93.9884Z" fill="#090A0B"/>
<path d="M115.242 96.1943L113.749 96.1522L113.452 96.8352L112.434 96.8086L114.09 93.3037L115.075 93.3293L116.539 96.9191L115.517 96.8921L115.242 96.1943ZM114.971 95.4473L114.539 94.2823L114.063 95.4054L114.971 95.4473Z" fill="#090A0B"/>
<path d="M116.64 95.1315C116.672 94.05 117.516 93.3092 118.636 93.3391C118.923 93.3341 119.208 93.3953 119.467 93.5181C119.727 93.6408 119.956 93.8219 120.135 94.0473L119.48 94.624C119.386 94.4929 119.263 94.3853 119.121 94.3094C118.979 94.2336 118.821 94.1915 118.66 94.1864C118.393 94.1792 118.133 94.2791 117.938 94.4642C117.744 94.6493 117.63 94.9044 117.623 95.1734C117.615 95.4424 117.714 95.7032 117.898 95.8985C118.082 96.0937 118.336 96.2075 118.604 96.2147C118.765 96.2186 118.925 96.1851 119.071 96.1168C119.217 96.0486 119.345 95.9474 119.446 95.8211L120.067 96.415C119.876 96.6314 119.638 96.8006 119.371 96.9094C119.104 97.0183 118.816 97.0637 118.529 97.0424C118.277 97.0516 118.026 97.0085 117.792 96.9156C117.558 96.8227 117.345 96.6821 117.168 96.5026C116.99 96.3232 116.852 96.1087 116.761 95.8727C116.67 95.6368 116.629 95.3844 116.64 95.1315Z" fill="#090A0B"/>
<path d="M121.294 94.2777L120.211 94.2492L120.248 93.4563L123.411 93.5369L123.39 94.3319L122.309 94.3038L122.231 97.0542L121.246 97.0286L121.294 94.2777Z" fill="#090A0B"/>
<path d="M138.61 109.039C138.603 109.088 125.502 108.658 109.339 108.107C93.1767 107.555 80.0692 107.048 80.0724 106.999C80.0755 106.949 93.1764 107.38 109.345 107.935C125.514 108.49 138.612 108.993 138.61 109.039Z" fill="#3370D3"/>
<path d="M107.314 104.228C107.308 104.274 101.261 104.103 93.7982 103.843C86.3358 103.584 80.2891 103.333 80.2918 103.287C80.2945 103.241 86.3416 103.412 93.8072 103.672C101.273 103.932 107.32 104.183 107.314 104.228Z" fill="#3370D3"/>
<path d="M138.371 112.845C138.366 112.89 125.264 112.463 109.099 111.908C92.9329 111.353 79.8315 110.85 79.8309 110.804C79.8304 110.757 92.935 111.185 109.108 111.737C125.28 112.289 138.371 112.795 138.371 112.845Z" fill="#3370D3"/>
<path d="M138.134 116.647C138.128 116.692 125.026 116.265 108.861 115.71C92.6951 115.155 79.5969 114.652 79.6029 114.607C79.6088 114.561 92.7069 114.988 108.876 115.543C125.045 116.098 138.133 116.6 138.134 116.647Z" fill="#3370D3"/>
<path d="M137.699 120.28C137.692 120.329 124.591 119.898 108.429 119.347C92.2658 118.796 79.1584 118.288 79.1615 118.239C79.1646 118.19 92.2656 118.62 108.434 119.176C124.603 119.731 137.701 120.234 137.699 120.28Z" fill="#3370D3"/>
<path d="M137.656 124.267C137.65 124.312 124.549 123.885 108.386 123.331C92.224 122.776 79.1125 122.275 79.1173 122.213C79.1221 122.15 92.2214 122.594 108.391 123.146C124.56 123.698 137.664 124.205 137.656 124.267Z" fill="#3370D3"/>
<path d="M137.417 128.055C137.411 128.101 124.309 127.674 108.147 127.119C91.9845 126.565 78.8767 126.061 78.8794 126.015C78.8821 125.969 91.9834 126.396 108.152 126.951C124.321 127.506 137.419 128.009 137.417 128.055Z" fill="#3370D3"/>
<path d="M137.179 131.857C137.173 131.906 124.24 131.498 108.302 130.939C92.3645 130.381 79.4158 129.894 79.4157 129.845C79.4156 129.795 92.3513 130.204 108.308 130.768C124.265 131.332 137.178 131.818 137.179 131.857Z" fill="#3370D3"/>
<path d="M113.953 136.209C113.946 136.258 106.146 135.991 96.5196 135.596C86.8936 135.2 79.0886 134.89 79.0904 134.85C79.0922 134.811 86.8971 135.072 96.5235 135.464C106.15 135.856 113.955 136.163 113.953 136.209Z" fill="#3370D3"/>
<path d="M100.533 166.153C100.527 166.201 95.7818 166.027 89.9277 165.765C84.0736 165.503 79.3247 165.256 79.3274 165.21C79.3301 165.164 84.079 165.335 89.9363 165.598C95.7937 165.86 100.536 166.107 100.533 166.153Z" fill="#3370D3"/>
<path d="M91.0541 168.58C91.0478 168.629 88.3829 168.547 85.097 168.4C81.8112 168.254 79.1459 168.099 79.1486 168.053C79.1513 168.007 81.8187 168.07 85.1057 168.233C88.3927 168.396 91.0536 168.533 91.0541 168.58Z" fill="#3370D3"/>
<path d="M93.7846 141.952C93.7787 141.998 90.6395 141.94 86.7666 141.823C82.8936 141.707 79.7512 141.572 79.7515 141.52C79.7518 141.467 82.8966 141.532 86.7724 141.652C90.6481 141.773 93.7841 141.906 93.7846 141.952Z" fill="white"/>
<g opacity="0.3">
<path d="M72.3863 160.921L78.8411 160.516L83.057 155.643L72.5915 157.647L72.3863 160.921Z" fill="#3370D3"/>
</g>
<path d="M62.2304 152.671L79.2486 153.257L83.0569 155.643L79.3513 158.875L62.0351 158.501L62.2304 152.671Z" fill="#3370D3"/>
<path d="M69.6418 154.715L69.574 156.907L69.0682 156.894L69.0964 155.994L68.1116 155.965L68.0835 156.865L67.5782 156.849L67.6427 154.656L68.1481 154.673L68.1246 155.537L69.1093 155.566L69.1365 154.699L69.6418 154.715Z" fill="white"/>
<path d="M71.7135 156.265L70.4435 156.226C70.4664 156.332 70.5267 156.426 70.6134 156.491C70.7 156.556 70.8071 156.587 70.9149 156.578C70.9922 156.585 71.0699 156.574 71.1431 156.549C71.2162 156.523 71.2832 156.482 71.3397 156.428L71.5918 156.719C71.5003 156.806 71.3914 156.873 71.2724 156.915C71.1533 156.956 71.0269 156.972 70.9014 156.961C70.7803 156.969 70.6587 156.952 70.5446 156.91C70.4304 156.869 70.3262 156.804 70.2386 156.72C70.1509 156.635 70.0818 156.534 70.0355 156.421C69.9893 156.308 69.9671 156.187 69.9702 156.065C69.9718 155.948 69.9973 155.832 70.0452 155.725C70.093 155.618 70.1623 155.522 70.2485 155.443C70.3348 155.364 70.4363 155.303 70.5467 155.265C70.6572 155.227 70.7742 155.212 70.8905 155.221C71.0068 155.218 71.1224 155.24 71.2298 155.284C71.3372 155.329 71.4341 155.396 71.5141 155.481C71.5941 155.565 71.6555 155.666 71.6942 155.776C71.733 155.886 71.7483 156.003 71.7391 156.12C71.7258 156.171 71.719 156.223 71.7135 156.265ZM70.4378 155.94L71.2649 155.965C71.2533 155.865 71.2063 155.773 71.1324 155.705C71.0585 155.637 70.9627 155.597 70.8625 155.594C70.7622 155.591 70.6642 155.625 70.5862 155.688C70.5083 155.752 70.4556 155.841 70.4378 155.94Z" fill="white"/>
<path d="M73.1215 155.297L73.1088 155.748L72.9986 155.734C72.9364 155.726 72.8733 155.733 72.814 155.754C72.7548 155.774 72.701 155.808 72.657 155.853C72.6129 155.898 72.5797 155.952 72.5599 156.012C72.5401 156.072 72.5343 156.135 72.5429 156.198L72.5186 156.992L72.0327 156.979L72.0806 155.294L72.5467 155.308L72.541 155.529C72.6121 155.446 72.7019 155.382 72.803 155.342C72.904 155.301 73.0133 155.286 73.1215 155.297Z" fill="white"/>
<path d="M74.9997 156.359L73.7293 156.322C73.7528 156.428 73.8133 156.522 73.8998 156.587C73.9863 156.651 74.0931 156.683 74.2007 156.675C74.2779 156.681 74.3555 156.67 74.4286 156.644C74.5016 156.619 74.5687 156.578 74.6255 156.525L74.878 156.813C74.7868 156.9 74.678 156.967 74.5589 157.009C74.4398 157.05 74.3131 157.066 74.1876 157.054C74.0664 157.063 73.9446 157.046 73.8302 157.005C73.7159 156.964 73.6114 156.899 73.5236 156.814C73.4359 156.73 73.3667 156.628 73.3207 156.515C73.2747 156.402 73.2528 156.28 73.2564 156.158C73.2584 156.041 73.2843 155.926 73.3323 155.819C73.3803 155.712 73.4496 155.616 73.5357 155.537C73.6219 155.458 73.7232 155.398 73.8334 155.36C73.9437 155.321 74.0605 155.306 74.1767 155.315C74.2931 155.312 74.4087 155.334 74.5161 155.379C74.6234 155.424 74.7202 155.491 74.8001 155.576C74.88 155.661 74.9413 155.762 74.98 155.872C75.0187 155.983 75.034 156.1 75.0249 156.216C75.012 156.264 75.0048 156.32 74.9997 156.359ZM73.7236 156.037L74.5511 156.059C74.5412 155.959 74.4945 155.867 74.4202 155.8C74.346 155.734 74.2495 155.697 74.1498 155.699C74.0507 155.692 73.9528 155.724 73.8756 155.787C73.7984 155.85 73.7476 155.939 73.7333 156.038L73.7236 156.037Z" fill="white"/>
<path d="M101.945 149.54C101.959 149.545 101.973 149.552 101.985 149.56C102.025 149.58 102.063 149.604 102.098 149.632C102.233 149.74 102.351 149.87 102.446 150.015C102.806 150.577 103.064 151.199 103.209 151.851C103.475 152.877 103.513 153.95 103.32 154.993C103.256 155.309 103.159 155.617 103.031 155.913C102.89 156.225 102.725 156.524 102.535 156.807C102.122 157.424 101.604 157.963 101.006 158.401C100.351 158.887 99.6111 159.247 98.8245 159.461C97.9685 159.692 97.07 159.714 96.2044 159.525C95.2527 159.296 94.3763 158.825 93.6601 158.156C92.944 157.486 92.4125 156.642 92.1172 155.706C91.9587 155.204 91.8866 154.68 91.9041 154.154C91.9059 153.613 92.0324 153.08 92.2737 152.597C92.5035 152.087 92.8933 151.666 93.3836 151.399C93.638 151.272 93.9186 151.207 94.2026 151.209C94.4887 151.214 94.7699 151.284 95.025 151.414C95.5391 151.681 95.9443 152.119 96.1708 152.653C96.3921 153.192 96.494 153.773 96.4693 154.355C96.4317 155.535 96.1055 156.689 95.5195 157.713C94.943 158.746 94.1078 159.61 93.0967 160.22C92.1052 160.799 90.9744 161.093 89.8283 161.069C88.7218 161.059 87.6411 160.735 86.7109 160.134C85.8277 159.54 85.1356 158.701 84.7189 157.719C84.3112 156.791 84.1748 155.766 84.3259 154.763C84.3899 154.279 84.5446 153.812 84.7819 153.385C85.0079 152.969 85.3343 152.616 85.7312 152.359C85.925 152.234 86.1423 152.151 86.3695 152.114C86.5967 152.078 86.8289 152.089 87.0515 152.147C87.4772 152.275 87.8449 152.548 88.091 152.92C88.3323 153.268 88.477 153.675 88.5101 154.098C88.5342 154.497 88.4822 154.897 88.3568 155.276C88.1069 155.976 87.7349 156.625 87.2582 157.194C86.8482 157.71 86.387 158.183 85.8819 158.605C85.0763 159.287 84.1692 159.838 83.1938 160.237C82.5808 160.494 81.942 160.683 81.2885 160.801C80.8415 160.882 80.6032 160.899 80.6032 160.899L80.7765 160.869C80.8916 160.846 81.0631 160.829 81.2846 160.777C81.9335 160.648 82.5673 160.452 83.1758 160.192C84.139 159.797 85.0353 159.254 85.8324 158.582C86.3298 158.158 86.7843 157.686 87.1894 157.173C87.6593 156.611 88.0242 155.968 88.2662 155.276C88.3897 154.905 88.4407 154.513 88.4164 154.122C88.3818 153.715 88.2418 153.325 88.0103 152.991C87.7747 152.64 87.426 152.381 87.0227 152.258C86.8127 152.205 86.5939 152.195 86.38 152.231C86.1662 152.266 85.9618 152.345 85.7796 152.463C85.3974 152.711 85.0839 153.052 84.8684 153.454C84.6411 153.868 84.4916 154.32 84.4275 154.789C84.2831 155.772 84.4196 156.776 84.8212 157.684C85.2304 158.643 85.9087 159.461 86.7734 160.039C87.6852 160.628 88.7445 160.945 89.8289 160.954C90.9545 160.977 92.0649 160.688 93.0383 160.119C94.0307 159.52 94.8506 158.671 95.4172 157.656C95.9942 156.648 96.314 155.513 96.3481 154.351C96.3734 153.788 96.2756 153.225 96.0616 152.704C95.8477 152.195 95.4622 151.777 94.9725 151.525C94.7345 151.401 94.4715 151.334 94.2037 151.329C93.9385 151.329 93.6769 151.39 93.4387 151.507C92.9724 151.762 92.6019 152.163 92.3837 152.649C92.1511 153.118 92.0277 153.634 92.0229 154.157C92.0071 154.67 92.0767 155.182 92.2289 155.672C92.517 156.589 93.0353 157.416 93.7338 158.073C94.4324 158.73 95.2877 159.195 96.2176 159.423C97.0674 159.609 97.9495 159.588 98.7898 159.36C99.5659 159.152 100.297 158.8 100.945 158.323C101.538 157.893 102.051 157.362 102.461 156.755C102.649 156.476 102.814 156.183 102.954 155.877C103.081 155.588 103.178 155.287 103.243 154.978C103.442 153.942 103.411 152.874 103.154 151.852C103.015 151.202 102.766 150.582 102.417 150.019C102.324 149.874 102.211 149.743 102.081 149.63C102.037 149.598 101.992 149.568 101.945 149.54Z" fill="#3370D3"/>
<path d="M126.256 99.4513C126.256 99.4513 126.263 99.396 126.254 99.2889C126.245 99.1818 126.259 99.0214 126.262 98.8199C126.27 98.4007 126.28 97.7929 126.294 97.0036C126.329 95.4194 126.379 93.1122 126.442 90.1945L126.494 90.2476L91.0218 89.4013L91.1086 89.3166C91.0247 92.4932 90.9518 95.5852 90.8694 98.5732L90.7884 98.4866L116.093 99.1548L123.545 99.3634L125.554 99.4229L126.079 99.4416L126.257 99.4648L126.086 99.4656L125.573 99.4584L123.584 99.4214L116.149 99.2581L90.7813 98.6677L90.7003 98.6572L90.7109 98.5758C90.7875 95.6068 90.8662 92.4957 90.9475 89.3387L90.9585 89.2541L91.0428 89.265L126.51 90.1801L126.562 90.1869L126.555 90.2357C126.467 93.1668 126.396 95.4844 126.348 97.0735C126.325 97.8583 126.302 98.4611 126.291 98.8767C126.282 99.0741 126.278 99.2292 126.274 99.3378L126.256 99.4513Z" fill="#3370D3"/>
<path d="M102.714 151.216C101.914 151.641 101.024 151.87 100.118 151.884C99.2127 151.898 98.3167 151.696 97.5042 151.296C96.098 150.558 94.9635 149.391 94.2651 147.965C91.8556 143.622 85.3347 133.728 84.133 130.885C82.9313 128.042 80.2717 120.003 77.6182 116.629C74.9647 113.256 73.5129 108.181 73.5129 108.181L72.5491 58.9538C73.9948 66.0725 77.9781 74.155 77.9781 74.155C81.4388 75.9558 84.3794 78.6149 86.5181 81.8776C87.1407 82.5406 87.6983 83.2616 88.1834 84.0309C92.124 90.1309 94.0333 101.111 94.2407 109.651C94.4847 119.307 97.6201 123.681 102.689 132.093C107.758 140.505 106.008 149.344 102.714 151.216Z" fill="white"/>
<path opacity="0.4" d="M102.714 151.216C101.91 151.631 101.022 151.854 100.118 151.868C99.2144 151.882 98.3196 151.686 97.5042 151.296C100.274 150.539 103.909 149.118 103.073 147.026C101.762 143.683 97.9251 148.642 95.9975 147.026C94.0699 145.409 87.0671 136.137 91.514 132.056C95.9609 127.975 94.564 121.131 91.514 119.204C88.464 117.276 90.4465 112.683 91.4103 105.454C92.0203 101.08 89.928 91.174 88.2078 84.0248C92.1484 90.1248 94.0577 101.105 94.2651 109.645C94.5091 119.301 97.6445 123.675 102.714 132.087C107.783 140.499 106.008 149.46 102.714 151.216Z" fill="#3B82F6"/>
<path d="M72.5491 58.9233C73.9948 66.042 77.9781 74.1245 77.9781 74.1245C81.4388 75.9253 84.3794 78.5844 86.5181 81.8471C91.5872 87.1541 94.0028 99.9458 94.2407 109.596C94.4786 119.246 97.6201 123.626 102.689 132.038C107.758 140.45 106.349 149.222 102.689 151.216C100.139 152.613 96.6563 152.308 94.2407 147.965C91.8251 143.622 85.3103 133.728 84.1086 130.885C82.9069 128.042 80.2473 120.003 77.5938 116.629C74.9403 113.256 73.4885 108.181 73.4885 108.181" stroke="#263238" stroke-linecap="round" stroke-linejoin="round"/>
<path d="M88.22 129.988C88.22 129.988 92.1606 129.635 93.9662 128.158" stroke="#263238" stroke-linecap="round" stroke-linejoin="round"/>
<path d="M72.0672 109.151C72.0672 109.151 71.2986 110.981 75.3246 112.811" stroke="#263238" stroke-linecap="round" stroke-linejoin="round"/>
</g>
<defs>
<clipPath id="clip0_15_2084">
<rect width="305" height="305" fill="white" transform="translate(0 0.895538)"/>
</clipPath>
</defs>
</svg>
