<svg width="24" height="25" viewBox="0 0 24 25" fill="none" xmlns="http://www.w3.org/2000/svg">
<path fill-rule="evenodd" clip-rule="evenodd" d="M15.493 7.72605C15.6428 7.85682 15.7346 8.04174 15.7481 8.24014C15.7616 8.43854 15.6957 8.63418 15.565 8.78405L7.70801 17.784C7.63761 17.8647 7.55076 17.9293 7.45331 17.9736C7.35586 18.0179 7.25005 18.0408 7.14301 18.0408C7.03596 18.0408 6.93015 18.0179 6.8327 17.9736C6.73525 17.9293 6.6484 17.8647 6.57801 17.784L3.43501 14.184C3.30893 14.0336 3.24688 13.8397 3.26217 13.644C3.27746 13.4482 3.36887 13.2663 3.51679 13.1373C3.66471 13.0082 3.85733 12.9423 4.05331 12.9536C4.24929 12.965 4.433 13.0527 4.56501 13.198L7.14301 16.151L14.435 7.79805C14.5658 7.64824 14.7507 7.55649 14.9491 7.54299C15.1475 7.52949 15.3431 7.59534 15.493 7.72605ZM20.518 7.81105C20.818 8.09605 20.829 8.57105 20.543 8.87105L11.972 17.871C11.8971 17.9497 11.8061 18.0111 11.7052 18.0511C11.6043 18.0911 11.4959 18.1087 11.3875 18.1027C11.2791 18.0967 11.1733 18.0673 11.0774 18.0164C10.9815 17.9655 10.8977 17.8944 10.832 17.808L10.403 17.245C10.2906 17.0986 10.2362 16.9158 10.2502 16.7317C10.2643 16.5475 10.3457 16.3751 10.4789 16.2473C10.6122 16.1195 10.7879 16.0453 10.9724 16.039C11.157 16.0327 11.3373 16.0947 11.479 16.213L19.457 7.83605C19.5942 7.69209 19.7829 7.60849 19.9816 7.60362C20.1804 7.59874 20.373 7.67299 20.517 7.81005" fill="#090A0B"/>
</svg>
