<svg width="25" height="25" viewBox="0 0 25 25" fill="none" xmlns="http://www.w3.org/2000/svg">
<path d="M13.054 17.297C12.9837 17.3739 12.8982 17.4353 12.8029 17.4773C12.7077 17.5193 12.6047 17.5409 12.5005 17.5409C12.3964 17.5409 12.2934 17.5193 12.1981 17.4773C12.1028 17.4353 12.0173 17.3739 11.947 17.297L7.94702 12.922C7.81596 12.7747 7.74817 12.5818 7.75832 12.3849C7.76848 12.188 7.85576 12.003 8.00128 11.8699C8.1468 11.7369 8.33885 11.6665 8.53588 11.674C8.7329 11.6815 8.91904 11.7663 9.05402 11.91L11.75 14.86V3.79105C11.75 3.59213 11.829 3.40137 11.9697 3.26072C12.1103 3.12006 12.3011 3.04105 12.5 3.04105C12.6989 3.04105 12.8897 3.12006 13.0303 3.26072C13.171 3.40137 13.25 3.59213 13.25 3.79105V14.859L15.947 11.909C16.0814 11.7622 16.2685 11.6748 16.4673 11.666C16.6661 11.6572 16.8602 11.7277 17.007 11.862C17.1538 11.9964 17.2412 12.1835 17.2501 12.3823C17.2589 12.5811 17.1884 12.7752 17.054 12.922L13.054 17.297Z" fill="#090A0B"/>
<path d="M4.25 15.791C4.25 15.5921 4.17098 15.4014 4.03033 15.2607C3.88968 15.1201 3.69891 15.041 3.5 15.041C3.30109 15.041 3.11032 15.1201 2.96967 15.2607C2.82902 15.4014 2.75 15.5921 2.75 15.791V15.846C2.75 17.213 2.75 18.316 2.867 19.183C2.987 20.083 3.247 20.841 3.848 21.443C4.45 22.045 5.208 22.303 6.108 22.425C6.975 22.541 8.078 22.541 9.445 22.541H15.555C16.922 22.541 18.025 22.541 18.892 22.425C19.792 22.303 20.55 22.045 21.152 21.443C21.754 20.841 22.012 20.083 22.134 19.183C22.25 18.316 22.25 17.213 22.25 15.846V15.791C22.25 15.5921 22.171 15.4014 22.0303 15.2607C21.8897 15.1201 21.6989 15.041 21.5 15.041C21.3011 15.041 21.1103 15.1201 20.9697 15.2607C20.829 15.4014 20.75 15.5921 20.75 15.791C20.75 17.226 20.748 18.227 20.647 18.983C20.548 19.717 20.367 20.105 20.091 20.382C19.814 20.659 19.426 20.839 18.691 20.938C17.936 21.039 16.935 21.041 15.5 21.041H9.5C8.065 21.041 7.063 21.039 6.308 20.938C5.574 20.839 5.186 20.658 4.909 20.382C4.632 20.105 4.452 19.717 4.353 18.982C4.252 18.227 4.25 17.226 4.25 15.791Z" fill="#090A0B"/>
</svg>
