<svg width="25" height="25" viewBox="0 0 25 25" fill="none" xmlns="http://www.w3.org/2000/svg">
<path fill-rule="evenodd" clip-rule="evenodd" d="M5.57897 5.86005C9.37397 2.07005 15.544 2.11005 19.362 5.92905C23.182 9.74905 23.222 15.9221 19.426 19.7171C15.63 23.5121 9.45797 23.4731 5.63797 19.6531C4.56334 18.5831 3.75141 17.2785 3.26593 15.8419C2.78045 14.4052 2.63465 12.8756 2.83997 11.3731C2.86689 11.1759 2.97104 10.9974 3.12951 10.877C3.28798 10.7566 3.48778 10.7041 3.68497 10.7311C3.88216 10.758 4.06058 10.8621 4.18098 11.0206C4.30138 11.1791 4.35389 11.3789 4.32697 11.5761C4.15266 12.8494 4.27605 14.1458 4.68746 15.3633C5.09887 16.5809 5.78707 17.6864 6.69797 18.5931C9.94297 21.8371 15.166 21.8561 18.366 18.6571C21.565 15.4571 21.546 10.2341 18.302 6.98905C15.059 3.74705 9.83897 3.72605 6.63897 6.92105L7.38697 6.92405C7.48546 6.92451 7.5829 6.94437 7.67372 6.98248C7.76454 7.0206 7.84696 7.07623 7.91628 7.1462C7.9856 7.21617 8.04046 7.2991 8.07772 7.39027C8.11499 7.48144 8.13393 7.57906 8.13347 7.67755C8.13301 7.77604 8.11316 7.87348 8.07504 7.9643C8.03693 8.05512 7.9813 8.13754 7.91133 8.20686C7.84136 8.27618 7.75842 8.33104 7.66725 8.3683C7.57608 8.40557 7.47846 8.42451 7.37997 8.42405L4.83397 8.41205C4.63627 8.411 4.44699 8.33193 4.30728 8.19204C4.16758 8.05215 4.08876 7.86275 4.08797 7.66505L4.07497 5.12105C4.07445 5.02256 4.09333 4.92493 4.13053 4.83374C4.16774 4.74254 4.22254 4.65957 4.29181 4.58955C4.36109 4.51954 4.44347 4.46385 4.53427 4.42567C4.62506 4.3875 4.72248 4.36758 4.82097 4.36705C4.91946 4.36653 5.0171 4.38541 5.10829 4.42261C5.19949 4.45982 5.28246 4.51462 5.35248 4.58389C5.42249 4.65317 5.47818 4.73555 5.51635 4.82634C5.55453 4.91714 5.57445 5.01456 5.57497 5.11305L5.57897 5.86005ZM12.499 8.04005C12.6979 8.04005 12.8887 8.11907 13.0293 8.25972C13.17 8.40037 13.249 8.59114 13.249 8.79005V12.4801L15.53 14.7601C15.6016 14.8292 15.6588 14.9119 15.6982 15.0034C15.7375 15.0949 15.7582 15.1933 15.7592 15.2929C15.7601 15.3925 15.7411 15.4912 15.7035 15.5834C15.6658 15.6756 15.6102 15.7594 15.5398 15.8298C15.4694 15.9003 15.3857 15.956 15.2935 15.9938C15.2014 16.0315 15.1026 16.0506 15.003 16.0497C14.9034 16.0489 14.805 16.0283 14.7135 15.989C14.622 15.9497 14.5392 15.8927 14.47 15.8211L11.75 13.1011V8.79105C11.75 8.59214 11.829 8.40137 11.9696 8.26072C12.1103 8.12007 12.3011 8.04105 12.5 8.04105" fill="#090A0B"/>
</svg>
