<svg width="24" height="25" viewBox="0 0 24 25" fill="none" xmlns="http://www.w3.org/2000/svg">
<path fill-rule="evenodd" clip-rule="evenodd" d="M2.52 8.61405C2 9.56105 2 10.706 2 12.994V14.516C2 18.416 2 20.367 3.172 21.579C4.344 22.791 6.229 22.791 10 22.791H14C17.771 22.791 19.657 22.791 20.828 21.579C21.999 20.367 22 18.417 22 14.516V12.995C22 10.706 22 9.56205 21.48 8.61405C20.962 7.66505 20.013 7.07705 18.116 5.89905L16.116 4.65805C14.111 3.41305 13.108 2.79105 12 2.79105C10.892 2.79105 9.89 3.41305 7.884 4.65805L5.884 5.89905C3.987 7.07705 3.039 7.66505 2.52 8.61405ZM11.25 18.791C11.25 18.99 11.329 19.1807 11.4697 19.3214C11.6103 19.462 11.8011 19.541 12 19.541C12.1989 19.541 12.3897 19.462 12.5303 19.3214C12.671 19.1807 12.75 18.99 12.75 18.791V15.791C12.75 15.5921 12.671 15.4014 12.5303 15.2607C12.3897 15.1201 12.1989 15.041 12 15.041C11.8011 15.041 11.6103 15.1201 11.4697 15.2607C11.329 15.4014 11.25 15.5921 11.25 15.791V18.791Z" fill="#F8CB46"/>
</svg>
