<svg width="21" height="21" viewBox="0 0 21 21" fill="none" xmlns="http://www.w3.org/2000/svg">
<path fill-rule="evenodd" clip-rule="evenodd" d="M18.8334 10.7911C18.8334 15.3936 15.1026 19.1244 10.5001 19.1244C5.89758 19.1244 2.16675 15.3936 2.16675 10.7911C2.16675 6.18855 5.89758 2.45772 10.5001 2.45772C15.1026 2.45772 18.8334 6.18855 18.8334 10.7911ZM10.5001 15.5827C10.6658 15.5827 10.8248 15.5169 10.942 15.3997C11.0592 15.2824 11.1251 15.1235 11.1251 14.9577V9.95772C11.1251 9.79196 11.0592 9.63299 10.942 9.51578C10.8248 9.39857 10.6658 9.33272 10.5001 9.33272C10.3343 9.33272 10.1754 9.39857 10.0581 9.51578C9.94093 9.63299 9.87508 9.79196 9.87508 9.95772V14.9577C9.87508 15.3027 10.1551 15.5827 10.5001 15.5827ZM10.5001 6.62438C10.7211 6.62438 10.9331 6.71218 11.0893 6.86846C11.2456 7.02474 11.3334 7.2367 11.3334 7.45772C11.3334 7.67873 11.2456 7.89069 11.0893 8.04697C10.9331 8.20325 10.7211 8.29105 10.5001 8.29105C10.2791 8.29105 10.0671 8.20325 9.91083 8.04697C9.75455 7.89069 9.66675 7.67873 9.66675 7.45772C9.66675 7.2367 9.75455 7.02474 9.91083 6.86846C10.0671 6.71218 10.2791 6.62438 10.5001 6.62438Z" fill="#C4C6CD"/>
</svg>
