<svg width="24" height="25" viewBox="0 0 24 25" fill="none" xmlns="http://www.w3.org/2000/svg">
<path fill-rule="evenodd" clip-rule="evenodd" d="M12.052 1.94775H11.948C11.049 1.94775 10.3 1.94775 9.706 2.02775C9.078 2.11175 8.511 2.29775 8.056 2.75275C7.6 3.20875 7.414 3.77575 7.33 4.40275C7.273 4.82975 7.256 5.84875 7.252 6.72275C5.23 6.78975 4.015 7.02575 3.172 7.86975C2 9.04075 2 10.9268 2 14.6978C2 18.4688 2 20.3548 3.172 21.5258C4.344 22.6968 6.229 22.6978 10 22.6978H14C17.771 22.6978 19.657 22.6978 20.828 21.5258C21.999 20.3538 22 18.4688 22 14.6978C22 10.9268 22 9.04075 20.828 7.86975C19.985 7.02575 18.77 6.78975 16.748 6.72375C16.744 5.84875 16.728 4.82975 16.67 4.40375C16.586 3.77575 16.4 3.20875 15.944 2.75375C15.489 2.29775 14.922 2.11175 14.294 2.02775C13.7 1.94775 12.95 1.94775 12.052 1.94775ZM15.248 6.69975C15.243 5.85275 15.229 4.94175 15.184 4.60275C15.121 4.14175 15.014 3.94375 14.884 3.81375C14.754 3.68375 14.556 3.57675 14.094 3.51375C13.612 3.44975 12.964 3.44775 12 3.44775C11.036 3.44775 10.388 3.44975 9.905 3.51475C9.444 3.57675 9.246 3.68375 9.116 3.81475C8.986 3.94575 8.879 4.14175 8.816 4.60275C8.771 4.94275 8.756 5.85275 8.752 6.69975C9.144 6.69775 9.56 6.69709 10 6.69775H14C14.4413 6.69775 14.8573 6.69842 15.248 6.69975ZM12 9.94775C12.1989 9.94775 12.3897 10.0268 12.5303 10.1674C12.671 10.3081 12.75 10.4988 12.75 10.6978V10.7078C13.839 10.9818 14.75 11.8408 14.75 13.0308C14.75 13.2297 14.671 13.4204 14.5303 13.5611C14.3897 13.7017 14.1989 13.7808 14 13.7808C13.8011 13.7808 13.6103 13.7017 13.4697 13.5611C13.329 13.4204 13.25 13.2297 13.25 13.0308C13.25 12.6468 12.824 12.1148 12 12.1148C11.176 12.1148 10.75 12.6468 10.75 13.0308C10.75 13.4148 11.176 13.9478 12 13.9478C13.385 13.9478 14.75 14.9078 14.75 16.3648C14.75 17.5548 13.839 18.4128 12.75 18.6878V18.6978C12.75 18.8967 12.671 19.0874 12.5303 19.2281C12.3897 19.3687 12.1989 19.4478 12 19.4478C11.8011 19.4478 11.6103 19.3687 11.4697 19.2281C11.329 19.0874 11.25 18.8967 11.25 18.6978V18.6878C10.161 18.4138 9.25 17.5548 9.25 16.3648C9.25 16.1658 9.32902 15.9751 9.46967 15.8344C9.61032 15.6938 9.80109 15.6148 10 15.6148C10.1989 15.6148 10.3897 15.6938 10.5303 15.8344C10.671 15.9751 10.75 16.1658 10.75 16.3648C10.75 16.7488 11.176 17.2808 12 17.2808C12.824 17.2808 13.25 16.7488 13.25 16.3648C13.25 15.9808 12.824 15.4478 12 15.4478C10.615 15.4478 9.25 14.4878 9.25 13.0308C9.25 11.8408 10.161 10.9818 11.25 10.7078V10.6978C11.25 10.4988 11.329 10.3081 11.4697 10.1674C11.6103 10.0268 11.8011 9.94775 12 9.94775Z" fill="#FD90E7"/>
</svg>
