<svg width="20" height="18" viewBox="0 0 20 18" fill="none" xmlns="http://www.w3.org/2000/svg">
<path d="M9.34783 12.9081L1.38163 8.62133C1.18998 8.51913 0.977781 8.52465 0.791597 8.63652C0.605413 8.74976 0.5 8.9362 0.5 9.15441V12.7313C0.5 12.9605 0.617735 13.1566 0.817608 13.2644L8.7838 17.5511C8.97546 17.6547 9.18903 17.6492 9.37521 17.5359C9.56002 17.424 9.66407 17.2348 9.66407 17.018V13.4425C9.66407 13.2133 9.5477 13.0158 9.34783 12.9081ZM10.8428 7.27068V12.0145C10.8428 12.2452 10.9591 12.4399 11.159 12.549L19.1184 16.8316C19.31 16.9338 19.5236 16.9296 19.7098 16.8164C19.8946 16.7045 20 16.5167 20 16.2985V11.5533C20 11.324 19.8836 11.1265 19.6824 11.0202L11.7244 6.73621C11.5328 6.63402 11.3192 6.63954 11.1344 6.75141C10.9482 6.86465 10.8428 7.05109 10.8428 7.27068ZM11.1522 5.0914L19.1184 9.37813C19.31 9.48033 19.5236 9.47481 19.7098 9.36294C19.8946 9.2497 20 9.06326 20 8.84367V5.26817C20 5.03892 19.8836 4.84281 19.6824 4.73509L11.7162 0.448358C11.5259 0.346161 11.311 0.350304 11.1262 0.463549C10.94 0.575413 10.8359 0.763234 10.8359 0.981437V4.55694C10.8359 4.78619 10.9523 4.98368 11.1522 5.0914ZM9.34098 5.45047L1.38163 1.16788C1.18998 1.06568 0.977781 1.06982 0.791597 1.18307C0.605413 1.29493 0.5 1.48275 0.5 1.70096V6.4462C0.5 6.67545 0.617735 6.87294 0.817608 6.98066L8.77696 11.2632C8.96725 11.3654 9.18081 11.3599 9.367 11.2481C9.55318 11.1348 9.65859 10.9484 9.65859 10.7288V5.98493C9.65859 5.7543 9.54223 5.55957 9.34098 5.45047Z" fill="#244F96"/>
</svg>
