<svg width="25" height="25" viewBox="0 0 25 25" fill="none" xmlns="http://www.w3.org/2000/svg">
<path d="M12.5 15.791C14.1569 15.791 15.5 14.4479 15.5 12.791C15.5 11.1342 14.1569 9.79105 12.5 9.79105C10.8431 9.79105 9.5 11.1342 9.5 12.791C9.5 14.4479 10.8431 15.791 12.5 15.791Z" stroke="#090A0B" stroke-width="1.5"/>
<path d="M14.265 2.94305C13.898 2.79105 13.432 2.79105 12.5 2.79105C11.568 2.79105 11.102 2.79105 10.735 2.94305C10.4922 3.04356 10.2716 3.19094 10.0857 3.37677C9.89992 3.5626 9.75254 3.78323 9.65202 4.02605C9.56002 4.24905 9.52302 4.51005 9.50902 4.88905C9.50251 5.16298 9.42663 5.43078 9.28847 5.6674C9.1503 5.90402 8.95438 6.10174 8.71902 6.24205C8.47983 6.37582 8.21061 6.44672 7.93655 6.44812C7.6625 6.44952 7.39257 6.38137 7.15202 6.25005C6.81602 6.07205 6.57302 5.97405 6.33202 5.94205C5.80634 5.87292 5.27472 6.01535 4.85402 6.33805C4.54002 6.58105 4.30602 6.98405 3.84002 7.79105C3.37402 8.59805 3.14002 9.00105 3.08902 9.39605C3.05466 9.6565 3.07194 9.92117 3.13989 10.1749C3.20784 10.4287 3.32511 10.6666 3.48502 10.875C3.63302 11.067 3.84002 11.228 4.16102 11.43C4.63402 11.727 4.93802 12.233 4.93802 12.791C4.93802 13.349 4.63402 13.855 4.16102 14.151C3.84002 14.354 3.63202 14.515 3.48502 14.707C3.32511 14.9155 3.20784 15.1534 3.13989 15.4072C3.07194 15.6609 3.05466 15.9256 3.08902 16.186C3.14102 16.58 3.37402 16.984 3.83902 17.791C4.30602 18.598 4.53902 19.001 4.85402 19.244C5.06246 19.404 5.30036 19.5212 5.55413 19.5892C5.8079 19.6571 6.07257 19.6744 6.33302 19.64C6.57302 19.608 6.81602 19.51 7.15202 19.332C7.39257 19.2007 7.6625 19.1326 7.93655 19.134C8.21061 19.1354 8.47983 19.2063 8.71902 19.34C9.20202 19.62 9.48902 20.135 9.50902 20.693C9.52302 21.073 9.55902 21.333 9.65202 21.556C9.75254 21.7989 9.89992 22.0195 10.0857 22.2053C10.2716 22.3912 10.4922 22.5385 10.735 22.639C11.102 22.791 11.568 22.791 12.5 22.791C13.432 22.791 13.898 22.791 14.265 22.639C14.5078 22.5385 14.7285 22.3912 14.9143 22.2053C15.1001 22.0195 15.2475 21.7989 15.348 21.556C15.44 21.333 15.477 21.073 15.491 20.693C15.511 20.135 15.798 19.619 16.281 19.34C16.5202 19.2063 16.7894 19.1354 17.0635 19.134C17.3375 19.1326 17.6075 19.2007 17.848 19.332C18.184 19.51 18.427 19.608 18.667 19.64C18.9275 19.6744 19.1921 19.6571 19.4459 19.5892C19.6997 19.5212 19.9376 19.404 20.146 19.244C20.461 19.002 20.694 18.598 21.16 17.791C21.626 16.984 21.86 16.581 21.911 16.186C21.9454 15.9256 21.9281 15.6609 21.8602 15.4072C21.7922 15.1534 21.6749 14.9155 21.515 14.707C21.367 14.515 21.16 14.354 20.839 14.152C20.605 14.0094 20.4109 13.8098 20.275 13.5718C20.1391 13.3337 20.0658 13.0651 20.062 12.791C20.062 12.233 20.366 11.727 20.839 11.431C21.16 11.228 21.368 11.067 21.515 10.875C21.6749 10.6666 21.7922 10.4287 21.8602 10.1749C21.9281 9.92117 21.9454 9.6565 21.911 9.39605C21.859 9.00205 21.626 8.59805 21.161 7.79105C20.694 6.98405 20.461 6.58105 20.146 6.33805C19.9376 6.17814 19.6997 6.06086 19.4459 5.99291C19.1921 5.92497 18.9275 5.90768 18.667 5.94205C18.427 5.97405 18.184 6.07205 17.847 6.25005C17.6066 6.38119 17.3369 6.44924 17.063 6.44784C16.7891 6.44644 16.5201 6.37564 16.281 6.24205C16.0457 6.10174 15.8497 5.90402 15.7116 5.6674C15.5734 5.43078 15.4975 5.16298 15.491 4.88905C15.477 4.50905 15.441 4.24905 15.348 4.02605C15.2475 3.78323 15.1001 3.5626 14.9143 3.37677C14.7285 3.19094 14.5078 3.04356 14.265 2.94305Z" stroke="#090A0B" stroke-width="1.5"/>
</svg>
