<svg width="24" height="25" viewBox="0 0 24 25" fill="none" xmlns="http://www.w3.org/2000/svg">
<g clip-path="url(#clip0_229_500)">
<g clip-path="url(#clip1_229_500)">
<path d="M-6 1H40V25H-6V1Z" fill="#B22234"/>
<path d="M-6 3.76923H40H-6ZM40 7.46153H-6H40ZM-6 11.1538H40H-6ZM40 14.8461H-6H40ZM-6 18.5385H40H-6ZM40 22.2308H-6H40Z" fill="black"/>
<path d="M-6 3.76923H40M40 7.46153H-6M-6 11.1538H40M40 14.8461H-6M-6 18.5385H40M40 22.2308H-6" stroke="white" stroke-width="1.37652"/>
<path d="M-6 1H12.4V13.9231H-6V1Z" fill="#3C3B6E"/>
<path d="M0.133401 2.84613L0.571264 4.18202L-0.575073 3.3564H0.841882L-0.304462 4.18202L0.133401 2.84613Z" fill="white"/>
<path d="M0.133401 5.43073L0.571264 6.76661L-0.575073 5.94099H0.841882L-0.304462 6.76661L0.133401 5.43073Z" fill="white"/>
<path d="M0.133401 8.01535L0.571264 9.35124L-0.575073 8.52561H0.841882L-0.304462 9.35124L0.133401 8.01535Z" fill="white"/>
<path d="M0.133401 10.6L0.571264 11.9358L-0.575073 11.1102H0.841882L-0.304462 11.9358L0.133401 10.6Z" fill="white"/>
<path d="M1.66673 1.55383L2.10459 2.88972L0.958252 2.0641H2.37521L1.22886 2.88972L1.66673 1.55383Z" fill="white"/>
<path d="M1.6666 4.13843L2.10447 5.47432L0.95813 4.64869H2.37509L1.22874 5.47432L1.6666 4.13843Z" fill="white"/>
<path d="M1.6666 6.72305L2.10447 8.05894L0.95813 7.23332H2.37509L1.22874 8.05894L1.6666 6.72305Z" fill="white"/>
<path d="M1.6666 9.30766L2.10447 10.6436L0.95813 9.81793H2.37509L1.22874 10.6436L1.6666 9.30766Z" fill="white"/>
<path d="M1.6666 11.8923L2.10447 13.2282L0.95813 12.4025H2.37509L1.22874 13.2282L1.6666 11.8923Z" fill="white"/>
<path d="M3.19993 2.84613L3.63779 4.18202L2.49146 3.3564H3.90841L2.76207 4.18202L3.19993 2.84613Z" fill="white"/>
<path d="M3.19993 5.43073L3.63779 6.76661L2.49146 5.94099H3.90841L2.76207 6.76661L3.19993 5.43073Z" fill="white"/>
<path d="M3.19993 8.01535L3.63779 9.35124L2.49146 8.52561H3.90841L2.76207 9.35124L3.19993 8.01535Z" fill="white"/>
<path d="M3.19993 10.6L3.63779 11.9358L2.49146 11.1102H3.90841L2.76207 11.9358L3.19993 10.6Z" fill="white"/>
<path d="M4.73338 1.55382L5.17124 2.88971L4.0249 2.06408H5.44186L4.29551 2.88971L4.73338 1.55382Z" fill="white"/>
<path d="M4.73338 4.13841L5.17124 5.4743L4.0249 4.64868H5.44186L4.29551 5.4743L4.73338 4.13841Z" fill="white"/>
<path d="M4.73338 6.72302L5.17124 8.05891L4.0249 7.23329H5.44186L4.29551 8.05891L4.73338 6.72302Z" fill="white"/>
<path d="M4.73338 9.30765L5.17124 10.6435L4.0249 9.81791H5.44186L4.29551 10.6435L4.73338 9.30765Z" fill="white"/>
<path d="M4.73338 11.8923L5.17124 13.2281L4.0249 12.4025H5.44186L4.29551 13.2281L4.73338 11.8923Z" fill="white"/>
<path d="M6.2667 2.84612L6.70457 4.182L5.55823 3.35638H6.97518L5.82884 4.182L6.2667 2.84612Z" fill="white"/>
<path d="M6.2667 5.43071L6.70457 6.7666L5.55823 5.94097H6.97518L5.82884 6.7666L6.2667 5.43071Z" fill="white"/>
<path d="M6.2667 8.01534L6.70457 9.35122L5.55823 8.5256H6.97518L5.82884 9.35122L6.2667 8.01534Z" fill="white"/>
<path d="M6.2667 10.5999L6.70457 11.9358L5.55823 11.1102H6.97518L5.82884 11.9358L6.2667 10.5999Z" fill="white"/>
<path d="M7.80003 1.55383L8.23789 2.88972L7.09155 2.0641H8.50851L7.36216 2.88972L7.80003 1.55383Z" fill="white"/>
<path d="M7.79991 4.13843L8.23777 5.47432L7.09143 4.64869H8.50839L7.36204 5.47432L7.79991 4.13843Z" fill="white"/>
<path d="M7.79991 6.72305L8.23777 8.05894L7.09143 7.23332H8.50839L7.36204 8.05894L7.79991 6.72305Z" fill="white"/>
<path d="M7.79991 9.30766L8.23777 10.6436L7.09143 9.81793H8.50839L7.36204 10.6436L7.79991 9.30766Z" fill="white"/>
<path d="M7.79991 11.8923L8.23777 13.2282L7.09143 12.4025H8.50839L7.36204 13.2282L7.79991 11.8923Z" fill="white"/>
<path d="M9.33335 2.84613L9.77122 4.18202L8.62488 3.3564H10.0418L8.89549 4.18202L9.33335 2.84613Z" fill="white"/>
<path d="M9.33335 5.43073L9.77122 6.76661L8.62488 5.94099H10.0418L8.89549 6.76661L9.33335 5.43073Z" fill="white"/>
<path d="M9.33335 8.01535L9.77122 9.35124L8.62488 8.52561H10.0418L8.89549 9.35124L9.33335 8.01535Z" fill="white"/>
<path d="M9.33335 10.6L9.77122 11.9358L8.62488 11.1102H10.0418L8.89549 11.9358L9.33335 10.6Z" fill="white"/>
<path d="M10.8667 1.55383L11.3045 2.88972L10.1582 2.0641H11.5752L10.4288 2.88972L10.8667 1.55383Z" fill="white"/>
<path d="M10.8667 4.13843L11.3045 5.47432L10.1582 4.64869H11.5752L10.4288 5.47432L10.8667 4.13843Z" fill="white"/>
<path d="M10.8667 6.72305L11.3045 8.05894L10.1582 7.23332H11.5752L10.4288 8.05894L10.8667 6.72305Z" fill="white"/>
<path d="M10.8667 9.30766L11.3045 10.6436L10.1582 9.81793H11.5752L10.4288 10.6436L10.8667 9.30766Z" fill="white"/>
<path d="M10.8667 11.8923L11.3045 13.2282L10.1582 12.4025H11.5752L10.4288 13.2282L10.8667 11.8923Z" fill="white"/>
</g>
</g>
<defs>
<clipPath id="clip0_229_500">
<rect y="0.791046" width="24" height="24" rx="12" fill="white"/>
</clipPath>
<clipPath id="clip1_229_500">
<rect width="46" height="24" fill="white" transform="translate(-6 1)"/>
</clipPath>
</defs>
</svg>
