<svg width="24" height="25" viewBox="0 0 24 25" fill="none" xmlns="http://www.w3.org/2000/svg">
<g clip-path="url(#clip0_235_1559)">
<g clip-path="url(#clip1_235_1559)">
<path d="M-20 -19.234H44V44.791H-20V-19.234Z" fill="#00267F"/>
<path d="M1.33752 -19.234H22.6625V44.791H1.33752V-19.234Z" fill="#FFC726"/>
<path d="M11.9999 2.45349C11.3124 4.34099 10.5999 6.31599 9.08745 7.82849C9.67899 7.64625 10.2935 7.54944 10.9124 7.54099V15.491L8.66245 15.8285C8.57911 15.8202 8.54161 15.7202 8.54994 15.5285C8.31587 13.2473 7.82527 10.9997 7.08745 8.82849C7.03745 8.54099 6.18745 7.41599 6.83745 7.61599C6.92495 7.61599 7.79995 7.99099 7.66245 7.81599C6.40672 6.54923 4.7843 5.7096 3.02495 5.41599C2.87495 5.37849 2.77495 5.45349 2.91245 5.62849C5.16245 9.09099 7.04995 13.1785 7.03745 18.0285C7.91245 18.0285 10.0374 17.516 10.9124 17.516V23.1285H12.0124L12.2624 7.45349L11.9999 2.45349Z" fill="#000001"/>
<path d="M12.0001 2.45349C12.6876 4.34099 13.4001 6.31599 14.9126 7.82849C14.321 7.64625 13.7065 7.54944 13.0876 7.54099V15.491L15.3376 15.8285C15.4209 15.8202 15.4584 15.7202 15.4501 15.5285C15.6841 13.2473 16.1747 10.9997 16.9126 8.82849C16.9626 8.54099 17.8126 7.41599 17.1626 7.61599C17.0751 7.61599 16.2001 7.99099 16.3376 7.81599C17.5933 6.54923 19.2157 5.7096 20.9751 5.41599C21.1251 5.37849 21.2251 5.45349 21.0876 5.62849C18.8376 9.09099 16.9501 13.1785 16.9626 18.0285C16.0876 18.0285 13.9626 17.516 13.0876 17.516V23.1285H11.9876L11.7376 7.45349L12.0001 2.45349Z" fill="#000001"/>
</g>
<mask id="mask0_235_1559" style="mask-type:luminance" maskUnits="userSpaceOnUse" x="-5" y="0" width="34" height="25">
<path d="M-5 0H28.2273V24.9205H-5V0Z" fill="white"/>
</mask>
<g mask="url(#mask0_235_1559)">
<path fill-rule="evenodd" clip-rule="evenodd" d="M-5 16.6136H28.2273V24.9205H-5V16.6136Z" fill="#FFD018"/>
<path fill-rule="evenodd" clip-rule="evenodd" d="M-5 8.30688H28.2273V16.6137H-5V8.30688Z" fill="#E31D1C"/>
<path fill-rule="evenodd" clip-rule="evenodd" d="M-5 0H28.2273V8.30683H-5V0Z" fill="#272727"/>
</g>
<g clip-path="url(#clip2_235_1559)">
<mask id="mask1_235_1559" style="mask-type:luminance" maskUnits="userSpaceOnUse" x="-28" y="-18" width="81" height="61">
<path d="M-27.9963 -17.2214H52.0033V42.7907H-27.9963V-17.2214Z" fill="white"/>
</mask>
<g mask="url(#mask1_235_1559)">
<path d="M-35.5 -17.2214H56.267V42.7907H-35.5V-17.2214Z" fill="#0053A5"/>
<path d="M-7.26404 -17.2214H10.3835V42.7907H-7.26404V-17.2214Z" fill="#FFCE00"/>
<path d="M-35.5 3.95935H56.267V21.61H-35.5V3.95935Z" fill="#FFCE00"/>
<path d="M-1.96973 -17.2214H5.08927V42.7907H-1.96973V-17.2214Z" fill="#D21034"/>
<path d="M-35.5 9.25452H56.267V16.3148H-35.5V9.25452Z" fill="#D21034"/>
</g>
</g>
<g clip-path="url(#clip3_235_1559)">
<path d="M12 -17.209H52V42.791H12V-17.209Z" fill="white"/>
<path d="M-28 -17.209H12V42.791H-28V-17.209Z" fill="#006233"/>
<path d="M25 5.29102C23.349 2.43139 20.8006 0.196455 17.7499 -1.06717C14.6992 -2.3308 11.3169 -2.55249 8.12736 -1.69787C4.93786 -0.843243 2.11948 1.03994 0.109344 3.6596C-1.90079 6.27926 -2.99036 9.48901 -2.99036 12.791C-2.99036 16.093 -1.90079 19.3028 0.109344 21.9224C2.11948 24.5421 4.93786 26.4253 8.12736 27.2799C11.3169 28.1345 14.6992 27.9128 17.7499 26.6492C20.8006 25.3856 23.349 23.1506 25 20.291C23.4462 22.2318 21.3278 23.642 18.9378 24.3268C16.5478 25.0116 14.0041 24.9372 11.6582 24.1138C9.31236 23.2904 7.28015 21.7587 5.84244 19.7303C4.40474 17.702 3.63253 15.2772 3.63253 12.791C3.63253 10.3048 4.40474 7.88003 5.84244 5.8517C7.28015 3.82337 9.31236 2.29166 11.6582 1.46826C14.0041 0.644855 16.5478 0.570409 18.9378 1.25521C21.3278 1.94001 23.4462 3.35024 25 5.29102ZM25.5 12.791L12 8.39102L20.4 19.891V5.69102L12 17.191L25.5 12.791Z" fill="#D21034"/>
</g>
<g clip-path="url(#clip4_235_1559)">
<path d="M-28 -17.209H52V42.791H-28V-17.209Z" fill="#D0103A"/>
<path d="M-28 -17.209H26.4V42.791H-28V-17.209Z" fill="#FEDF00"/>
<path d="M9.55003 -0.134033C10.5125 -0.134033 10.9125 0.690966 11.875 0.690966C12.4625 0.690966 12.8125 0.503466 13.3375 0.203466C13.7 0.00346641 13.925 -0.109034 14.3375 -0.109034C14.7625 -0.109034 15.025 0.0159664 15.25 0.390966C15.375 0.590966 15.475 1.00347 15.4125 1.22847C15.3382 1.58557 15.225 1.93348 15.075 2.26597C14.9875 2.46597 14.9125 2.57847 14.9125 2.79097C14.9125 3.30347 15.6125 3.47847 16.0875 3.49097C16.1875 3.49097 17.05 3.49097 17.5875 2.96597C17.3 2.95347 16.975 2.71597 16.975 2.42847C16.975 2.10347 17.2 1.89097 17.5125 1.79097C17.575 1.77847 17.675 1.82847 17.725 1.79097C17.8125 1.75347 17.775 1.66597 17.85 1.61597C18 1.49097 18.1 1.41597 18.3 1.41597C18.4084 1.40763 18.5125 1.4368 18.6125 1.50347C18.6542 1.5618 18.6959 1.59513 18.7375 1.60347C18.8875 1.60347 18.9625 1.50347 19.1125 1.50347C19.213 1.50499 19.3116 1.53072 19.4 1.57847C19.475 1.61597 19.475 1.76597 19.575 1.76597C19.625 1.76597 19.875 1.65347 20.0125 1.65347C20.2875 1.65347 20.4375 1.75347 20.6125 1.96597C20.6625 2.02847 20.6875 2.14097 20.7375 2.14097C20.8607 2.14928 20.9799 2.18785 21.0845 2.25327C21.1892 2.31868 21.2761 2.40892 21.3375 2.51597C21.375 2.56597 21.425 2.69097 21.475 2.70347C21.55 2.74097 21.6 2.72847 21.6875 2.79097C21.7899 2.85534 21.8752 2.94353 21.9362 3.048C21.9971 3.15248 22.0319 3.27015 22.0375 3.39097C22.0292 3.49097 22.0084 3.58263 21.975 3.66597C21.75 4.47847 21.1875 4.74097 20.625 5.45347C20.375 5.75347 20.1875 5.99097 20.1875 6.37847C20.1875 6.46597 20.3125 6.64097 20.35 6.71597C20.325 6.54097 20.4125 6.31597 20.6 6.30347C20.7244 6.30284 20.8446 6.3486 20.937 6.43181C21.0295 6.51502 21.0876 6.6297 21.1 6.75347L21.0625 6.97847C21.2148 6.88508 21.3853 6.82541 21.5625 6.80347H21.8C22.2125 6.80347 22.675 7.04097 22.9625 7.27847C23.2634 7.53684 23.5018 7.86002 23.6598 8.22373C23.8179 8.58744 23.8914 8.98224 23.875 9.37847C23.775 10.0285 23.8375 11.2285 22.15 11.7035C22.4625 11.8285 22.675 12.0785 22.675 12.3535C22.6784 12.4284 22.6667 12.5032 22.6407 12.5735C22.6148 12.6439 22.575 12.7083 22.5237 12.763C22.4725 12.8178 22.4108 12.8617 22.3424 12.8923C22.2739 12.9228 22.2 12.9394 22.125 12.941C22.0433 12.95 21.9607 12.9388 21.8844 12.9082C21.8081 12.8777 21.7405 12.8288 21.6875 12.766C21.3375 13.116 21.275 13.4785 21.275 13.9785C21.275 14.2785 21.325 14.4535 21.45 14.7285C21.575 15.0035 21.675 15.166 21.9125 15.366C22.0209 15.166 22.1875 15.0576 22.4125 15.041C22.6375 15.0326 22.8 15.1243 22.9 15.316C22.925 15.3785 22.9 15.4285 22.9375 15.491C22.975 15.566 23.0375 15.5785 23.075 15.6535C23.1375 15.7785 23.075 15.8785 23.1375 15.991C23.175 16.0785 23.25 16.091 23.2875 16.166C23.3375 16.291 23.35 16.366 23.35 16.5035C23.35 16.8785 23.0125 17.1535 22.6375 17.1535C22.5125 17.1535 22.4625 17.1035 22.35 17.116C22.5625 17.3285 22.725 17.4285 22.8875 17.6785C23.1405 18.0595 23.2713 18.5087 23.2625 18.966C23.2726 19.4555 23.1517 19.9388 22.9125 20.366C22.726 20.795 22.4229 21.1631 22.0375 21.4285C21.448 21.8577 20.7605 22.1327 20.0375 22.2285C19.5842 22.3211 19.1246 22.3796 18.6625 22.4035L16.9 22.5035C16 22.5535 15.375 22.691 14.7375 23.3285C15.0375 23.541 15.2375 23.766 15.2375 24.1285C15.2209 24.5201 15.025 24.7785 14.65 24.9035C14.5625 24.9285 14.5 24.9035 14.4125 24.9535C14.325 25.0035 14.325 25.116 14.2375 25.166C14.0977 25.2598 13.9304 25.3038 13.7625 25.291C13.6143 25.3016 13.4657 25.279 13.3273 25.225C13.1889 25.1709 13.0643 25.0867 12.9625 24.9785C12.6875 25.2035 12.5875 25.4035 12.275 25.591C12.175 25.641 12.125 25.716 12.0125 25.716C11.825 25.716 11.7375 25.591 11.5875 25.491C11.3833 25.3488 11.1985 25.1807 11.0375 24.991C10.75 25.1535 10.5875 25.291 10.25 25.291C10.0746 25.3004 9.90037 25.2569 9.75004 25.166C9.67504 25.1035 9.65003 25.016 9.56254 24.966C9.47504 24.916 9.40003 24.9285 9.30003 24.8785C8.92503 24.716 8.67503 24.441 8.67503 24.0285C8.67503 23.666 8.90003 23.441 9.22503 23.2785C8.60003 22.6535 7.97503 22.5535 7.10003 22.5035L5.35003 22.4035C4.80003 22.366 4.50004 22.316 3.97504 22.2285C3.56254 22.166 3.32504 22.141 2.95004 21.966C1.67504 21.366 0.850036 20.5535 0.700036 19.1535C0.675036 19.0285 0.675035 18.966 0.675035 18.841C0.675035 18.116 0.962536 17.666 1.47504 17.1535C1.35004 17.116 1.26254 17.1535 1.12504 17.116C0.812536 16.991 0.575036 16.7785 0.575036 16.4285C0.566703 16.3118 0.587536 16.2035 0.637536 16.1035C0.687536 16.0285 0.762536 16.016 0.787536 15.9285C0.812536 15.8035 0.787535 15.7285 0.837535 15.616C0.875035 15.5535 0.937535 15.541 0.962535 15.466C1.08754 15.2285 1.21254 15.041 1.47504 15.041C1.70004 15.0493 1.85837 15.1535 1.95004 15.3535C2.17504 15.2535 2.22504 15.091 2.35004 14.891C2.49741 14.6429 2.58936 14.3658 2.61956 14.0789C2.64977 13.7919 2.61752 13.5018 2.52504 13.2285C2.47504 13.041 2.45003 12.916 2.30003 12.766C2.18337 12.8826 2.0417 12.941 1.87504 12.941C1.51254 12.941 1.25004 12.6285 1.25004 12.2785C1.24961 12.1565 1.28489 12.037 1.35153 11.9349C1.41816 11.8327 1.51324 11.7523 1.62504 11.7035C1.42504 11.5285 1.25004 11.516 1.03754 11.3785C0.712536 11.1785 0.600036 10.9535 0.387536 10.6285C0.237536 10.4285 0.200036 10.2785 0.137536 10.041C0.0283331 9.72824 -0.0142453 9.39613 0.0125364 9.06597C0.0875364 8.44097 0.200035 8.06597 0.587535 7.57847C0.812535 7.29097 0.962536 7.11597 1.31254 6.96597C1.60004 6.84097 1.77504 6.75347 2.08754 6.75347L2.33754 6.76597C2.45992 6.7744 2.57917 6.80847 2.68754 6.86597C2.73754 6.89097 2.82504 6.97847 2.82504 6.91597C2.82504 6.85347 2.78754 6.81597 2.78754 6.75347C2.78754 6.50347 2.97503 6.25347 3.23753 6.25347C3.42503 6.25347 3.50004 6.42847 3.60004 6.59097C3.65004 6.50763 3.6792 6.4118 3.68754 6.30347C3.68754 5.87847 3.45004 5.65347 3.18754 5.31597C2.60004 4.59097 1.87504 4.25347 1.87504 3.31597C1.87504 3.0493 2.00004 2.84513 2.25004 2.70347C2.31254 2.66597 2.41254 2.70347 2.47504 2.66597C2.53754 2.62847 2.52504 2.54097 2.56254 2.49097C2.62087 2.41597 2.68754 2.3493 2.76254 2.29097C2.88754 2.16597 3.01254 2.21597 3.15004 2.10347C3.2167 2.04513 3.2667 1.9868 3.30003 1.92847C3.46253 1.72847 3.61254 1.62847 3.87504 1.62847C3.98337 1.62013 4.08754 1.6368 4.18754 1.67847L4.31254 1.74097C4.3542 1.6993 4.4167 1.65347 4.50004 1.60347C4.58248 1.55231 4.67804 1.52625 4.77504 1.52847C4.91254 1.52847 5.00004 1.60347 5.15004 1.60347C5.17504 1.5868 5.20837 1.5618 5.25004 1.52847C5.37504 1.44097 5.43754 1.40347 5.58754 1.40347C5.73754 1.40347 5.81254 1.44097 5.93754 1.52847C6.06254 1.59097 6.06254 1.69097 6.18754 1.75347C6.2542 1.77847 6.3167 1.79513 6.37504 1.80347C6.70004 1.91597 6.93754 2.12847 6.93754 2.46597C6.94587 2.64097 6.88754 2.7868 6.76254 2.90347C6.65004 2.99097 6.55003 2.97847 6.41253 3.02847C6.81019 3.34939 7.3156 3.50593 7.82504 3.46597C8.35004 3.46597 8.98753 3.25347 8.98753 2.72847C8.98753 2.47847 8.86254 2.35347 8.76254 2.12847C8.59351 1.79956 8.50363 1.43574 8.50004 1.06597C8.50004 0.715966 8.53753 0.503466 8.73753 0.228466C8.93753 -0.046534 9.18753 -0.134033 9.55003 -0.134033Z" fill="#C7B37F"/>
<path d="M6.04993 2.66599C6.07488 2.73493 6.11469 2.79754 6.16653 2.84939C6.21837 2.90123 6.28098 2.94104 6.34993 2.96599C6.44993 3.00349 6.68743 2.99099 6.82493 2.79099C6.94993 2.64099 6.94993 2.44099 6.89993 2.29099C6.85652 2.18108 6.78283 2.08572 6.68743 2.01599L6.04993 2.66599Z" stroke="#703D29" stroke-width="0.0875" stroke-linejoin="round"/>
<path d="M22.125 12.3035C21.975 11.941 21.5875 12.1035 21.575 12.3035C21.5125 12.766 21.9125 12.9035 22.2 12.8285C22.2665 12.8106 22.3286 12.7792 22.3824 12.7361C22.4362 12.6931 22.4805 12.6395 22.5125 12.5785C22.5959 12.4452 22.6125 12.291 22.5625 12.116L22.4625 11.916L22.3 11.766C22.2 11.7077 22.0584 11.6827 21.875 11.691C21.1875 11.691 20.575 12.5035 20.375 13.366C20.3 13.641 20.2125 14.2785 20.3375 14.866C20.4386 15.3993 20.6952 15.8908 21.075 16.2785C21.4284 16.6093 21.8512 16.857 22.3125 17.0035C22.4755 17.05 22.6475 17.0543 22.8125 17.016C23.2125 16.9285 23.4 16.541 23.1875 16.141C23.025 15.8285 22.525 15.641 22.2875 16.066C22.2625 16.1077 22.2459 16.1702 22.2375 16.2535C22.2375 16.366 22.2875 16.5035 22.3625 16.5535C22.55 16.666 22.8375 16.6285 22.825 16.3035" stroke="#703D29" stroke-width="0.0875" stroke-linecap="round"/>
<path d="M19.9749 17.0411C20.1866 16.7942 20.4789 16.6303 20.7999 16.5786C21.1666 16.5452 21.5083 16.6286 21.8249 16.8286C22.2265 17.0207 22.566 17.3217 22.8047 17.6975C23.0434 18.0732 23.1717 18.5084 23.1749 18.9536C23.1749 19.4036 23.0499 19.8911 22.9249 20.1286C22.8249 20.3411 22.5499 21.2536 21.0124 21.8786C20.1249 22.2536 18.7624 22.3286 17.7999 22.3786C16.4999 22.4161 15.2999 22.4661 14.6124 23.3286" stroke="#703D29" stroke-width="0.1"/>
<path d="M20.3 18.5036C20.2667 18.3786 20.3 18.2411 20.4 18.0911C20.55 17.8911 20.8625 17.8286 21.15 17.9661C21.2748 18.0312 21.382 18.1256 21.4625 18.2411L21.6 18.4411C21.6834 18.5827 21.725 18.6869 21.725 18.7536C22.0375 19.6286 21.55 20.5661 20.9125 20.9536C20.4125 21.2536 19.825 21.3786 19.1125 21.4536C18.8 21.5036 18.6125 21.4911 18.3 21.5161H16.2C15.8375 21.5536 15.575 21.5661 15.25 21.6161C15.05 21.6411 14.825 21.6827 14.575 21.7411C14.5 21.7411 14.425 21.7577 14.35 21.7911L14.2 21.8286C13.7417 21.9619 13.3334 22.1369 12.975 22.3536C12.8667 22.4119 12.7625 22.4827 12.6625 22.5661L12.5 22.7161C12.25 22.9661 12.0125 23.2161 11.95 23.5536V23.7536C11.95 23.9786 12.125 24.2911 12.625 24.3786M13.3125 3.12855C13.4125 3.30355 13.475 3.41606 13.4125 3.61606C13.3375 3.84106 13.1875 3.95772 12.9625 3.96605C12.4625 3.96605 12.175 3.36606 12.4 2.99106C12.8 2.32856 13.5625 2.70355 14.275 3.02855C14.2375 2.86605 14.175 2.80355 14.1875 2.59105C14.2 2.06605 14.5875 1.84105 14.75 1.34105C14.8375 1.05355 14.875 0.803554 14.6625 0.591054C14.4792 0.441054 14.2667 0.416055 14.025 0.516055C13.55 0.703555 12.9625 1.25356 11.95 1.26606C10.925 1.25356 10.35 0.703555 9.86254 0.516055C9.61254 0.416055 9.40004 0.445221 9.22504 0.603555C9.01254 0.803555 9.05004 1.05355 9.13754 1.35355C9.30004 1.82855 9.68754 2.06605 9.70004 2.60355C9.70004 2.80355 9.65004 2.85355 9.61254 3.02855C10.325 2.70355 11.1125 2.29106 11.4875 2.99106C11.7 3.39106 11.425 3.95356 10.925 3.95356C10.7 3.95356 10.55 3.84106 10.475 3.61606C10.4334 3.43272 10.4667 3.26606 10.575 3.11606" stroke="#703D29" stroke-width="0.0875"/>
<path d="M11.325 2.77856C11.4311 2.8415 11.5162 2.93444 11.5696 3.04566C11.623 3.15688 11.6423 3.28141 11.625 3.40356C11.6 3.71606 11.525 3.79106 11.275 3.96606M11.575 3.49107C11.575 3.6744 11.4792 3.80356 11.2875 3.87856" stroke="#703D29" stroke-width="0.0875" stroke-linecap="round"/>
<path d="M6.58743 1.95349L6.67493 2.01599L6.77493 2.11599L6.83743 2.24099L6.86243 2.34099V2.57849L6.83743 2.67849L6.77493 2.75349L6.69993 2.82849L6.58743 2.89099L6.46243 2.91599L6.33743 2.94099L6.21243 2.87849L6.09993 2.80349L6.03743 2.70349L5.98743 2.57849V2.52849L6.58743 1.95349Z" fill="#C7B37F"/>
<path d="M6.40001 2.44101C6.36251 2.22851 6.12501 2.19101 6.02501 2.31601C5.88751 2.50351 5.98751 2.81601 6.27501 2.90351C6.36451 2.92163 6.45725 2.91491 6.54319 2.88406C6.62913 2.85321 6.70498 2.79941 6.76251 2.72851C6.88751 2.56601 6.87501 2.37851 6.82501 2.22851C6.7816 2.1186 6.70792 2.02325 6.61251 1.95351C6.27501 1.70351 5.72501 1.75351 5.53751 2.20351C5.31251 2.75351 5.81251 3.17851 6.28751 3.49101C6.86251 3.89101 7.53751 3.96601 8.03751 3.96601C9.18751 3.95351 10.0625 3.40351 10.625 3.09101C10.7667 3.01601 10.8792 3.02435 10.9625 3.11601C10.9999 3.16666 11.0168 3.22954 11.0099 3.2921C11.0029 3.35467 10.9726 3.41231 10.925 3.45351" stroke="#703D29" stroke-width="0.0875" stroke-linecap="round"/>
<path d="M2.99998 17.941L2.74998 18.0285L2.49998 18.2285L2.37498 18.391L2.23747 18.641L2.17497 18.8285L2.12498 19.0535L2.09998 19.2285M4.47497 17.966L4.46248 18.191L4.42497 18.341L4.29997 18.616L4.13748 18.841L3.94998 18.991L3.81248 19.0535L3.61247 19.1035" stroke="#703D29" stroke-width="0.0875"/>
<path d="M11.9625 23.9285C11.925 24.141 11.725 24.3785 11.3 24.4535L11.225 24.4785" stroke="#703D29" stroke-width="0.1"/>
<path d="M22.525 17.316C22.7532 17.5327 22.9334 17.7949 23.054 18.0855C23.1746 18.3762 23.2328 18.6889 23.225 19.0035C23.225 19.4535 23.1 19.941 22.975 20.1785C22.875 20.391 22.6 21.3035 21.0625 21.9285C20.0277 22.2578 18.9484 22.4264 17.8625 22.4285C16.575 22.466 15.3875 22.516 14.6875 23.341" stroke="#703D29" stroke-width="0.1125"/>
<path d="M20.4375 18.1535C20.5375 18.0285 20.875 17.8535 21.1625 18.016C21.2783 18.0732 21.3773 18.1593 21.45 18.266" stroke="#703D29" stroke-width="0.075"/>
<path d="M22.2 17.016L22.375 17.0785C22.5381 17.1271 22.7118 17.1271 22.875 17.0785C23.225 16.9785 23.45 16.6535 23.275 16.216C23.2214 16.1122 23.1444 16.0223 23.0499 15.9535" stroke="#703D29" stroke-width="0.1125"/>
<path d="M2.03743 7.76602C1.78743 7.90352 1.62493 7.94101 1.43743 8.15351C1.29256 8.4215 1.18331 8.70725 1.11243 9.00352M6.86243 2.54102C6.85409 2.76602 6.72909 2.89935 6.48743 2.94102" stroke="#703D29" stroke-width="0.0875" stroke-linecap="round"/>
<path d="M21.6375 6.79102C21.9537 6.79739 22.2655 6.86688 22.5545 6.9954C22.8436 7.12392 23.104 7.30888 23.3206 7.53943C23.5372 7.76998 23.7055 8.04147 23.8157 8.33796C23.9259 8.63446 23.9758 8.94998 23.9625 9.26602C23.9625 11.266 22.7249 11.5785 22.2374 11.716" stroke="#703D29" stroke-width="0.075"/>
<path d="M21.7999 6.79101C22.8124 6.75351 23.8624 7.50351 23.9124 9.37851C23.9499 10.841 22.9124 11.5035 22.4124 11.6285" stroke="#703D29" stroke-width="0.0875"/>
<path d="M21.2249 13.841L21.2374 13.641L21.3125 13.3285L21.4 13.0785L21.5125 12.8785L21.6375 12.716M22.6124 12.291V12.4785L22.5499 12.6035L22.4625 12.741L22.3624 12.816L22.2125 12.8785H22.075L21.9749 12.866M20.1875 6.26604L20.2249 6.05354L20.325 5.85354L20.45 5.66604L20.65 5.39104L20.825 5.21604L21.075 4.94104L21.325 4.70354L21.4625 4.54104L21.65 4.30354L21.825 4.05354L21.9249 3.84104L21.9874 3.56604L22 3.22854L21.9749 3.12854M20.4375 19.1535L20.6375 19.1035L20.7874 19.0285L20.875 18.941L20.9375 18.841L20.9749 18.691V18.5785M1.19995 17.066H1.53745L1.73745 16.991M2.36245 12.4285L2.33745 12.6035L2.28745 12.6785L2.23745 12.7535L2.14995 12.816L2.06245 12.8535L1.93745 12.866H1.86245M3.09995 10.9285L3.06245 11.191L2.99995 11.316L2.89995 11.466L2.74995 11.5785L2.59995 11.6535L2.31245 11.716M4.22495 6.75354L4.16245 6.91604L4.09995 7.04104L3.99995 7.16604L3.87495 7.29104L3.72495 7.35354L3.58745 7.39104L3.51245 7.37854M3.54995 6.60354V6.72854" stroke="#703D29" stroke-width="0.075"/>
<path d="M3.78753 10.791C3.71135 10.8648 3.6224 10.9241 3.52502 10.966M22.3375 16.566L22.4 16.591C22.575 16.691 22.925 16.566 22.825 16.291" stroke="#703D29" stroke-width="0.075" stroke-linecap="round"/>
<path d="M21.725 12.7411C21.85 12.9036 22.0875 12.9536 22.275 12.9036C22.3415 12.8857 22.4036 12.8542 22.4574 12.8112C22.5111 12.7682 22.5555 12.7145 22.5875 12.6536C22.6709 12.5202 22.6875 12.3661 22.6375 12.1911L22.525 11.9911L22.3625 11.8036L22.3125 11.7786M23.1125 16.0286L23.125 15.9411C23.1259 15.8706 23.1118 15.8008 23.0838 15.7362C23.0558 15.6716 23.0145 15.6136 22.9625 15.5661L22.8625 15.4661M22.9125 15.5286C22.9125 15.3036 22.725 15.1286 22.4875 15.0911M21.9625 15.4411L21.8 15.3161C21.4608 14.9525 21.2692 14.4757 21.2625 13.9786C21.2625 13.4536 21.4625 12.9286 21.7125 12.7286M14.65 23.2911L14.875 23.0911L15.025 22.9661L15.3125 22.7911L15.5875 22.6661L15.7875 22.6036L16.1625 22.5286L16.6125 22.4536M12.925 24.8786C12.6896 25.22 12.3593 25.4851 11.975 25.6411C11.5943 25.4791 11.2656 25.2153 11.025 24.8786" stroke="#703D29" stroke-width="0.075"/>
<path d="M11.3 24.366C11.2518 24.5605 11.1575 24.7405 11.025 24.891" stroke="#703D29" stroke-width="0.075" stroke-linecap="round"/>
<path d="M11.3375 24.1035L11.2875 24.3785M11 24.916L10.875 25.041L10.6625 25.1535L10.4125 25.2285M9.71248 3.00353C9.74998 2.90353 9.77498 2.82854 9.77498 2.67854C9.76248 2.15354 9.37498 1.91604 9.21248 1.42854M9.21248 1.42854C9.12498 1.14104 9.08747 0.891035 9.29997 0.678535C9.48331 0.511869 9.69164 0.486868 9.92497 0.603535C10.425 0.791035 11 1.32853 12.0125 1.35353C11 1.32853 10.4125 0.791035 9.93747 0.603535C9.68747 0.503535 9.46248 0.478535 9.27498 0.666035C9.06248 0.866035 9.12498 1.14104 9.21248 1.42854ZM9.21248 1.42854C9.37498 1.91604 9.73747 2.15354 9.74997 2.67854C9.74164 2.81187 9.72081 2.9202 9.68747 3.00353M12 1.29103C13 1.24103 13.8625 0.566034 14.1375 0.503534C14.3875 0.453534 14.5125 0.478535 14.7 0.641035C14.525 0.478535 14.325 0.491035 14.075 0.578535C13.6 0.766035 13.025 1.30353 12 1.32853M21.95 15.441C21.7128 15.2573 21.52 15.0226 21.3859 14.7543C21.2517 14.486 21.1796 14.191 21.175 13.891C21.175 13.3785 21.3875 12.841 21.625 12.641M12.875 24.841C12.7125 25.091 12.3375 25.466 11.925 25.616C11.5427 25.4506 11.2138 25.1823 10.975 24.841" stroke="#703D29" stroke-width="0.075"/>
<path d="M10.3375 3.25349L10.625 3.09099C10.75 3.01599 10.9125 3.0285 10.9875 3.116C11.0625 3.2035 11.075 3.36599 10.9625 3.46599" stroke="#703D29" stroke-width="0.075" stroke-linecap="round"/>
<path d="M8.83745 3.95352C9.52495 3.80352 10.0875 3.50352 10.5125 3.26602M14.5374 23.791C14.5999 23.8285 14.6375 23.916 14.6375 23.916C14.6541 23.941 14.6666 23.9743 14.6749 24.016C14.7124 24.2035 14.5874 24.316 14.4249 24.341C14.2124 24.366 14.0499 24.241 13.9874 24.091M8.79995 3.91602C9.48745 3.77852 10.0499 3.46602 10.4749 3.22852M22.6749 16.591C22.5499 16.641 22.4749 16.6285 22.2999 16.566L22.075 16.441C21.6204 16.1793 21.2547 15.7875 21.025 15.316C20.9296 15.1343 20.8581 14.9411 20.8125 14.741C20.7725 14.6071 20.7515 14.4683 20.75 14.3285C20.7398 13.6451 20.9454 12.9759 21.3375 12.416C21.475 12.216 21.5999 12.1035 21.8624 12.091M3.89995 7.17852C4.00803 7.26259 4.09487 7.37085 4.15349 7.4946C4.21211 7.61835 4.24087 7.75413 4.23745 7.89102C4.23745 8.27852 3.91245 8.91602 3.11245 9.14102C2.98131 9.17899 2.84379 9.1897 2.70835 9.1725C2.57292 9.15531 2.44244 9.11056 2.32495 9.04102" stroke="#703D29" stroke-width="0.075"/>
<path d="M4.03743 8.49097C4.17076 8.5743 4.23743 8.7118 4.23743 8.90347C4.23743 9.0368 4.15826 9.19097 3.99993 9.36597C3.86127 9.52103 3.69187 9.64555 3.5025 9.73162C3.31313 9.8177 3.10793 9.86345 2.89993 9.86597C2.64993 9.8743 2.39993 9.80347 2.14993 9.65347C1.91179 9.49677 1.74202 9.25552 1.67493 8.97847" stroke="#703D29" stroke-width="0.075"/>
<path d="M4.025 9.3285C4.175 9.4785 4.24583 9.67017 4.2375 9.9035C4.24583 10.2285 4.09167 10.5202 3.775 10.7785C3.70833 10.8452 3.625 10.9077 3.525 10.966M19.7125 8.2035V8.641M19.675 8.091V8.716M19.7125 6.741V7.566M19.675 6.566V7.6785M19.4375 17.9285C19.3074 18.1923 19.1293 18.4297 18.9125 18.6285C18.7033 18.8412 18.4578 19.0148 18.1875 19.141C17.9267 19.2707 17.649 19.3632 17.3625 19.416C17.0838 19.4829 16.799 19.5206 16.5125 19.5285C16.2 19.5285 16.025 19.5285 15.7125 19.5035C15.4 19.4785 15.2125 19.4285 14.875 19.4035C14.6 19.3785 14.45 19.3535 14.175 19.366C13.7062 19.3481 13.2386 19.4246 12.8 19.591C12.475 19.716 12.0875 19.966 12.0125 20.066C11.7747 19.8634 11.5042 19.7027 11.2125 19.591C11.0078 19.5072 10.7938 19.4485 10.575 19.416C10.2875 19.366 10.1375 19.366 9.85 19.366C9.5625 19.366 9.425 19.3785 9.15 19.4035C8.825 19.441 8.65 19.4785 8.3125 19.5035C8 19.5285 7.825 19.541 7.5125 19.5285C6.93405 19.5223 6.36336 19.3946 5.8375 19.1535C5.53315 19.0094 5.26104 18.8053 5.0375 18.5535M10.3 25.2285L10.525 25.2035M14.3125 24.9035L14.5375 24.891L14.75 24.8035L14.9 24.7035L15.1125 24.4535L15.15 24.3785L15.1875 24.166V24.066M21.0625 6.9785C21.15 6.6535 21.0375 6.3035 20.7125 6.316M4.2125 12.1285C4.14622 12.3726 3.98989 12.5825 3.775 12.716M4.225 6.8785C4.18669 6.98741 4.1272 7.08766 4.04997 7.17347C3.97274 7.25928 3.87928 7.32897 3.775 7.3785C3.5375 7.4785 3.275 7.3785 3.125 7.2785" stroke="#703D29" stroke-width="0.075"/>
<path d="M2.47498 8.09099C2.66248 8.19099 2.86248 8.04099 2.82498 7.79099C2.80588 7.71941 2.766 7.65509 2.71039 7.60615C2.65477 7.55721 2.5859 7.52583 2.51248 7.51599" stroke="#703D29" stroke-width="0.075" stroke-linecap="round"/>
<path d="M3.27495 18.616C3.29995 18.6577 3.33329 18.691 3.37495 18.716C3.46245 18.741 3.52495 18.766 3.61245 18.6535C3.71245 18.516 3.64995 18.3035 3.54995 18.166C3.45785 18.0712 3.33806 18.008 3.20779 17.9855C3.07752 17.9631 2.94349 17.9825 2.82495 18.041C2.72495 18.091 2.61662 18.1827 2.49995 18.316L2.36245 18.516C2.27912 18.6577 2.23329 18.7577 2.22495 18.816C1.97495 19.5535 2.27495 20.316 2.73745 20.7785" stroke="#703D29" stroke-width="0.075"/>
<path d="M14.525 23.766L14.6125 23.866L14.6375 23.9785C14.675 24.166 14.55 24.2785 14.3875 24.3035C14.1875 24.3285 14.0375 24.2035 13.975 24.0535" stroke="#703D29" stroke-width="0.075" stroke-linecap="round"/>
<path d="M20.675 2.14099C20.8874 2.17272 21.0822 2.27739 21.2259 2.43705C21.3696 2.59671 21.4532 2.80139 21.4625 3.01599C21.4625 3.56599 21.275 3.76599 20.9875 4.16599C20.675 4.59099 19.65 5.36599 19.65 6.25349C19.6333 6.78682 19.8125 7.13682 20.1875 7.30349C20.4375 7.42849 20.725 7.30349 20.8625 7.17849C21.1875 6.87849 21.05 6.36599 20.7125 6.30349C20.3125 6.22849 20.225 6.87849 20.625 6.84099M22.8625 15.466C22.8364 15.3641 22.7789 15.273 22.6982 15.2057C22.6174 15.1384 22.5174 15.0982 22.4125 15.091C22.2898 15.091 22.1722 15.1397 22.0855 15.2265C21.9987 15.3132 21.95 15.4308 21.95 15.5535C21.95 15.6868 21.9917 15.7952 22.075 15.8785" stroke="#703D29" stroke-width="0.075"/>
<path d="M19.9875 7.17847C19.8794 7.26254 19.7926 7.3708 19.7339 7.49455C19.6753 7.6183 19.6466 7.75408 19.65 7.89097C19.65 8.27847 19.975 8.91597 20.775 9.14097C21.075 9.22847 21.375 9.21597 21.55 9.10347M2.04998 7.81597C1.80622 7.88969 1.5947 8.04393 1.44998 8.25347C1.15348 8.72602 1.05471 9.29622 1.17498 9.84097C1.22539 10.0905 1.32297 10.3281 1.46248 10.541L1.58748 10.691L1.73748 10.816M9.73748 22.316C10.35 22.5785 10.7875 22.7785 11.1625 23.3785C11.264 23.5665 11.3156 23.7773 11.3125 23.991C11.3125 24.3285 11.1875 24.7035 10.9 24.941C10.7884 25.0433 10.6551 25.119 10.51 25.1623C10.3649 25.2056 10.2119 25.2154 10.0625 25.191C9.82498 25.166 9.59998 24.991 9.56248 24.866M3.74998 10.8035C4.08748 11.0785 4.23748 11.3285 4.23748 11.741C4.25064 11.9284 4.21072 12.1158 4.12229 12.2816C4.03385 12.4474 3.90049 12.585 3.73748 12.6785" stroke="#703D29" stroke-width="0.075"/>
<path d="M3.4375 12.3411C3.9375 12.9786 4.225 13.3536 4.2375 14.1036C4.25 14.8161 4.025 15.3036 3.6125 15.8161" stroke="#703D29" stroke-width="0.075" stroke-linecap="round"/>
<path d="M13.225 3.95347C13.317 3.8859 13.3832 3.78886 13.4125 3.67847C13.4791 3.49513 13.4708 3.32847 13.3875 3.17847C13.4958 3.34513 13.525 3.5118 13.475 3.67847C13.4625 3.80347 13.375 3.86597 13.275 3.96597M19.7125 14.7285V16.7535L19.7 17.066L19.6625 17.2785" stroke="#703D29" stroke-width="0.075"/>
<path d="M19.675 14.5411V17.0286L19.6125 17.3536M19.675 11.9786V13.8036M19.7125 12.1286V13.6036M19.7125 10.2536V11.3536M19.675 10.1161V11.4911M19.7125 9.11607V9.55357M19.675 9.02856V9.65356M19.45 17.8036L19.4 17.8911C19.2749 18.1583 19.1011 18.4 18.8875 18.6036C18.6736 18.813 18.4238 18.9824 18.15 19.1036C17.8931 19.2321 17.6197 19.3247 17.3375 19.3786C17 19.4536 16.8125 19.4786 16.475 19.4911C16.1625 19.4911 15.9875 19.4911 15.6875 19.4661C15.35 19.4411 15.175 19.4036 14.8375 19.3661C14.5625 19.3411 14.4125 19.3286 14.1375 19.3286C13.8625 19.3286 13.7 19.3286 13.425 19.3786C13.202 19.4101 12.9837 19.4688 12.775 19.5536C12.4375 19.6911 12.0625 19.9286 11.975 20.0286C11.9 19.9286 11.5125 19.6911 11.1875 19.5536C10.9788 19.4688 10.7605 19.4101 10.5375 19.3786C10.2625 19.3286 10.1 19.3286 9.81248 19.3286C9.52498 19.3286 9.38747 19.3411 9.11247 19.3661C8.78747 19.4036 8.61248 19.4411 8.27498 19.4661C7.96248 19.4911 7.78747 19.5036 7.48747 19.4911C6.9048 19.4867 6.32968 19.3588 5.79997 19.1161C5.52967 18.9899 5.28413 18.8163 5.07498 18.6036L4.76248 18.2536M4.51248 17.8536C4.53373 18.0252 4.51915 18.1993 4.46966 18.365C4.42018 18.5306 4.33686 18.6842 4.22497 18.8161C4.12497 18.9286 3.89998 19.1411 3.59998 19.1411C3.13748 19.1411 2.99998 18.8286 2.97498 18.7411" stroke="#703D29" stroke-width="0.075"/>
<path d="M3.94998 17.6536C4.03331 17.7369 4.11248 17.8411 4.18748 17.9661C4.31248 18.1911 4.26247 18.5661 4.17497 18.7411L4.13748 18.7911M1.59998 21.0411C1.87498 21.3577 2.32914 21.6536 2.96247 21.9286C3.84997 22.3036 5.22497 22.3786 6.17497 22.4286C7.42497 22.4661 8.58747 22.5161 9.29997 23.3036M11.4625 22.8036C11.692 22.9797 11.8656 23.2185 11.9625 23.4911M11.05 24.9286L10.9625 25.0161C10.8523 25.1166 10.721 25.1913 10.5783 25.2345C10.4355 25.2778 10.2849 25.2886 10.1375 25.2661C9.88748 25.2411 9.66247 25.0661 9.59997 24.9411M8.92497 24.5786L8.96248 24.6286C9.13155 24.8026 9.35812 24.9092 9.59997 24.9286M12.975 24.9286C12.731 25.2671 12.3978 25.5311 12.0125 25.6911C11.6317 25.5291 11.303 25.2653 11.0625 24.9286L11.025 24.8661M12.975 24.9161L13.0625 25.0036C13.174 25.1059 13.3074 25.1816 13.4525 25.2249C13.5975 25.2682 13.7506 25.278 13.9 25.2536C14.0001 25.238 14.096 25.2022 14.182 25.1485C14.2679 25.0948 14.3421 25.0242 14.4 24.9411L14.4625 24.8536" stroke="#703D29" stroke-width="0.075"/>
<path d="M14.875 23.4535C15.0024 23.5488 15.1052 23.673 15.1749 23.816C15.2083 23.8994 15.2291 23.9952 15.2374 24.1035C15.2447 24.2961 15.1776 24.4841 15.0499 24.6285C14.8715 24.811 14.63 24.9183 14.375 24.9285H14.325M14.3499 24.9035C14.2284 24.9053 14.1079 24.8818 13.996 24.8345C13.8841 24.7871 13.7833 24.717 13.7 24.6285M21.6624 16.141C21.4191 15.9098 21.2163 15.6394 21.0625 15.341C20.9681 15.1633 20.8967 14.9743 20.8499 14.7785C20.81 14.6446 20.789 14.5058 20.7874 14.366C20.7736 13.684 20.9748 13.0149 21.3624 12.4535C21.4499 12.3535 21.5375 12.2285 21.625 12.1785M21.4625 2.69102C21.775 2.71602 22.0625 3.06601 22.0625 3.40351C22.0625 3.87851 21.9 4.09102 21.5125 4.56602C21.1875 4.96602 20.1874 5.69102 20.2249 6.37852C20.2333 6.51185 20.2791 6.62852 20.3624 6.72852M19.9625 7.16602C20.0349 7.23854 20.1195 7.29778 20.2125 7.34101C20.2992 7.37525 20.3924 7.38965 20.4855 7.38316C20.5785 7.37667 20.6688 7.34946 20.75 7.30352M18.125 1.91602C18.2461 1.99551 18.3416 2.10839 18.4 2.24102C18.625 2.80352 18.125 3.22852 17.65 3.54102C17.3377 3.75132 16.9839 3.892 16.6124 3.95352" stroke="#703D29" stroke-width="0.075"/>
<path d="M17.575 2.99102C17.5005 2.9906 17.4271 2.97354 17.36 2.9411C17.293 2.90866 17.234 2.86166 17.1875 2.80352L17.1 2.67852M15.225 3.29102L15.075 3.16602C14.9333 3.04935 14.9 2.86602 14.975 2.61602C15.05 2.37852 15.4375 1.71602 15.45 1.25352C15.475 0.553515 15.2 0.128516 14.7875 -0.0214844" stroke="#703D29" stroke-width="0.075"/>
<path d="M15.4125 1.10352L15.4 1.35352L15.325 1.62852L15.2 2.00352L15.075 2.24102L14.975 2.47852L14.925 2.64102L14.9 2.76602L14.9125 2.87852M19.6625 18.666L19.7375 18.766C19.825 18.891 20.1375 19.141 20.425 19.141C20.8875 19.141 21 18.816 21.0125 18.741C21.075 18.3785 20.95 18.291 20.7625 18.1785C20.7625 18.1785 20.6625 18.1285 20.525 18.1535" stroke="#703D29" stroke-width="0.075" stroke-linecap="round"/>
<path d="M1.62495 17.091C1.47357 17.1325 1.31383 17.1325 1.16245 17.091C0.799952 16.9785 0.512452 16.641 0.662452 16.216M2.33745 12.241C2.37078 12.2827 2.38745 12.3243 2.38745 12.366C2.43745 12.841 2.03745 12.966 1.76245 12.891C1.60974 12.8381 1.47821 12.7372 1.38745 12.6035C1.33534 12.5162 1.3053 12.4175 1.29995 12.316M4.04995 9.36599C4.12495 9.42432 4.17912 9.49516 4.21245 9.57849M4.07495 8.51599C4.14162 8.57432 4.18745 8.62849 4.21245 8.67849" stroke="#703D29" stroke-width="0.075"/>
<path d="M4.2375 9.10347C4.1874 9.21357 4.11986 9.31487 4.0375 9.40347C3.89884 9.55852 3.72944 9.68305 3.54007 9.76912C3.3507 9.8552 3.1455 9.90095 2.9375 9.90347C2.6875 9.9118 2.4375 9.84097 2.1875 9.69097C1.94327 9.52414 1.7661 9.27611 1.6875 8.99097" stroke="#703D29" stroke-width="0.075" stroke-linecap="round"/>
<path d="M3.92493 7.20349C4.06067 7.31621 4.16417 7.46284 4.22493 7.62849" stroke="#703D29" stroke-width="0.075"/>
<path d="M4.22495 8.19104C4.11245 8.56604 3.78745 9.01604 3.14995 9.17854C2.84995 9.25354 2.44995 9.15354 2.32495 9.05354" stroke="#703D29" stroke-width="0.075" stroke-linecap="round"/>
<path d="M2 8.11604C2.0375 8.44104 2.25 8.69104 2.675 8.69104C3.2625 8.70354 3.625 7.85354 3.1 7.25354" stroke="#703D29" stroke-width="0.075"/>
<path d="M0.674927 10.9785C0.75826 11.0868 0.858261 11.1868 0.974928 11.2785C1.19436 11.4654 1.44954 11.6058 1.72493 11.691M2.37493 11.7535C2.89993 11.691 3.19993 11.291 3.12493 10.841C3.08743 10.491 2.77493 10.216 2.54993 10.2035" stroke="#703D29" stroke-width="0.075" stroke-linecap="round"/>
<path d="M3.22498 6.30347C3.46248 6.30347 3.59997 6.50347 3.58747 6.67847" stroke="#703D29" stroke-width="0.075"/>
<path d="M3.17493 3.16602C3.29616 3.47409 3.51591 3.73339 3.79993 3.90351M21.8249 7.77851C22.0374 8.06601 21.8999 8.65351 21.3249 8.65351C21.2116 8.65733 21.0995 8.63026 21.0004 8.57522C20.9013 8.52017 20.819 8.43921 20.7624 8.34101" stroke="#703D29" stroke-width="0.075" stroke-linecap="round"/>
<path d="M19.7125 3.92847V5.91597" stroke="#703D29" stroke-width="0.075"/>
<path d="M2.47498 8.07854C2.64998 8.20354 2.88748 7.99104 2.78748 7.75354C2.72498 7.60354 2.51248 7.42854 2.19998 7.64104C1.84998 7.87854 1.94998 8.61604 2.59998 8.62854C3.18748 8.62854 3.54998 7.77854 3.02498 7.17854C2.52498 6.60354 1.61248 6.72854 1.02498 7.20354C0.569498 7.57635 0.252529 8.09143 0.124981 8.66604C0.0475323 9.04546 0.0475323 9.43662 0.124981 9.81604C0.188135 10.1499 0.315491 10.4683 0.499981 10.7535L0.662482 10.966C0.762482 11.066 0.787482 11.116 0.912482 11.216C1.27127 11.5298 1.73611 11.6952 2.21248 11.6785C2.78748 11.6535 3.12498 11.2535 3.06248 10.766C3.01248 10.291 2.53748 10.0535 2.22498 10.2785C2.01248 10.4285 1.93748 10.891 2.31248 11.0035C2.51248 11.066 2.69998 10.791 2.56248 10.6285M18.75 1.65354C19.0833 1.47021 19.3458 1.51187 19.5375 1.77854C19.7164 2.0421 19.7879 2.36402 19.7375 2.67854C19.6916 2.96796 19.5347 3.22808 19.3 3.40354" stroke="#703D29" stroke-width="0.075" stroke-linecap="round"/>
<path d="M19.5625 1.79098C19.95 1.54098 20.375 1.65348 20.6 1.99098C20.7625 2.24098 20.8125 2.44098 20.8 2.75348C20.7904 2.99032 20.7198 3.22067 20.595 3.42217C20.4701 3.62367 20.2953 3.78947 20.0875 3.90348" stroke="#703D29" stroke-width="0.075" stroke-linecap="round"/>
<path d="M21.375 2.69104C21.7 2.71604 21.95 3.00354 21.95 3.32854C21.95 3.80354 21.825 4.01604 21.45 4.49104C21.1125 4.90354 20.125 5.61604 20.15 6.31604C20.15 6.57854 20.375 6.81604 20.5625 6.84104" stroke="#703D29" stroke-width="0.075"/>
<path d="M21.425 8.07856C21.2375 8.20356 21.0125 8.00356 21.1125 7.77856C21.175 7.62856 21.3875 7.42856 21.7 7.64106C22.0375 7.87856 21.95 8.61606 21.2875 8.62856C20.7 8.62856 20.2875 7.80356 20.8625 7.17856C21.3625 6.60356 22.325 6.71606 22.925 7.19106C23.175 7.39106 23.6875 7.94106 23.8 8.69106C23.925 9.56606 23.9125 10.6411 23 11.3161C22.625 11.5786 22.125 11.7036 21.675 11.6911C21.1 11.6661 20.7625 11.2536 20.825 10.7661C20.8875 10.2911 21.325 10.0911 21.6625 10.2786C22 10.4661 21.95 10.9536 21.575 11.0036C21.3625 11.0286 21.1875 10.7911 21.325 10.6286" stroke="#703D29" stroke-width="0.075" stroke-linecap="round"/>
<path d="M21.1124 7.77847C21.2124 7.34097 21.5749 7.30347 21.8874 7.30347C22.6999 7.31597 23.2749 8.30347 23.2874 9.24097C23.2874 10.4285 22.7874 11.141 21.9124 11.1785C21.6749 11.1785 21.2874 11.0785 21.2874 10.8035" stroke="#703D29" stroke-width="0.075"/>
<path d="M21.625 7.57849C22.4875 7.77849 22.7875 8.55349 22.7875 9.30349C22.7875 9.91599 22.725 10.7535 21.5375 11.041" stroke="#703D29" stroke-width="0.075" stroke-linecap="square"/>
<path d="M23.05 15.9535C23.0639 15.8689 23.0552 15.7821 23.0249 15.702C22.9946 15.6218 22.9437 15.551 22.8773 15.4968C22.8109 15.4426 22.7314 15.4068 22.6468 15.3931C22.5622 15.3794 22.4755 15.3883 22.3954 15.4188C22.3153 15.4493 22.2446 15.5004 22.1906 15.5669C22.1365 15.6334 22.101 15.713 22.0875 15.7977C22.074 15.8823 22.0831 15.969 22.1138 16.0491C22.1445 16.1291 22.1958 16.1996 22.2625 16.2535" stroke="#703D29" stroke-width="0.075"/>
<path d="M21.3 15.2161C21.475 15.4661 21.675 15.7286 22.0875 15.9661M21.925 17.2786C21.525 17.0036 20.7375 16.6536 20.05 17.0036C19.9263 17.0539 19.8138 17.1284 19.7194 17.2229C19.6249 17.3174 19.5503 17.4298 19.5 17.5536C19.4341 17.7544 19.4201 17.9686 19.4595 18.1763C19.4988 18.384 19.5902 18.5783 19.725 18.7411C19.8375 18.8661 20.0625 19.0661 20.35 19.0786C20.825 19.0786 20.9375 18.7536 20.95 18.6786C21 18.3286 20.8 18.1911 20.7 18.1661C20.6125 18.1286 20.35 18.1411 20.3 18.3286C20.275 18.4036 20.2834 18.4869 20.325 18.5786" stroke="#703D29" stroke-width="0.075" stroke-linecap="round"/>
<path d="M14.5625 23.841C14.6875 24.116 14.5375 24.241 14.3625 24.266C14.0875 24.3035 13.95 24.091 13.9375 23.891C13.9324 23.8168 13.9425 23.7422 13.967 23.6719C13.9916 23.6017 14.0302 23.5371 14.0804 23.4822C14.1307 23.4272 14.1916 23.3831 14.2594 23.3524C14.3272 23.3217 14.4006 23.3051 14.475 23.3035C14.7625 23.3035 14.9875 23.491 15.1 23.741C15.1417 23.8244 15.1625 23.9244 15.1625 24.041C15.17 24.2277 15.1076 24.4105 14.9875 24.5535C14.8111 24.7406 14.5693 24.8525 14.3125 24.866C13.7875 24.8785 13.375 24.391 13.375 23.891C13.375 22.9285 14.8 22.391 15.375 22.266C16.1079 22.0859 16.8581 21.9853 17.6125 21.966C18.05 21.9535 18.3875 21.966 18.875 21.9035C19.3125 21.866 19.55 21.841 20 21.741C20.5867 21.6189 21.1303 21.3428 21.575 20.941C21.9375 20.6035 22.1375 20.3785 22.3125 19.916C22.4099 19.6314 22.4458 19.3294 22.4178 19.0298C22.3898 18.7303 22.2985 18.4402 22.15 18.1785C22.0146 17.9479 21.8282 17.7514 21.605 17.604C21.3818 17.4567 21.1278 17.3624 20.8625 17.3285C20.4 17.266 19.9875 17.466 19.7375 17.9285C19.6125 18.1535 19.6625 18.5285 19.75 18.7035C19.8114 18.8106 19.8983 18.9008 20.003 18.9662C20.1077 19.0317 20.2269 19.0702 20.35 19.0785C20.825 19.0785 20.9375 18.7535 20.95 18.6785C21 18.3285 20.8 18.191 20.7 18.1535C20.6125 18.1285 20.35 18.141 20.3 18.3285C20.275 18.4035 20.2833 18.4869 20.325 18.5785" stroke="#703D29" stroke-width="0.075" stroke-linecap="round"/>
<path d="M14.15 22.316C13.55 22.5785 13.1 22.7785 12.725 23.3785C12.6234 23.5665 12.5718 23.7774 12.575 23.991C12.575 24.3285 12.7125 24.7035 12.9875 24.941C13.099 25.0434 13.2324 25.1191 13.3775 25.1624C13.5225 25.2057 13.6756 25.2155 13.825 25.191C14.075 25.166 14.2875 24.991 14.325 24.866" stroke="#703D29" stroke-width="0.075" stroke-linecap="round"/>
<path d="M20.1375 10.8035C19.85 10.9035 19.65 11.3285 19.65 11.741C19.6369 11.9284 19.6768 12.1158 19.7652 12.2816C19.8537 12.4474 19.987 12.585 20.15 12.6785" stroke="#703D29" stroke-width="0.075"/>
<path d="M20.45 12.3411C19.95 12.9786 19.6625 13.3536 19.65 14.1036C19.65 14.8161 19.8625 15.3036 20.2875 15.8161" stroke="#703D29" stroke-width="0.075" stroke-linecap="round"/>
<path d="M17.7374 1.79097L17.7749 1.72847C17.9874 1.42847 18.3624 1.34097 18.6374 1.54097C18.9624 1.79097 19.0499 2.21597 18.9624 2.66597C18.8874 2.94097 18.7208 3.17013 18.4624 3.35347" stroke="#703D29" stroke-width="0.075"/>
<path d="M5.13743 1.64101C4.81243 1.48267 4.54992 1.52434 4.34992 1.76601C4.25491 1.89339 4.18797 2.03945 4.1535 2.19458C4.11903 2.34971 4.11781 2.51038 4.14993 2.66601C4.22493 3.00351 4.32493 3.14101 4.58743 3.39101" stroke="#703D29" stroke-width="0.075" stroke-linecap="round"/>
<path d="M4.32495 1.79097C4.16062 1.68067 3.95934 1.63979 3.765 1.67726C3.57066 1.71472 3.39901 1.82749 3.28745 1.99097C3.131 2.2127 3.05997 2.4835 3.08745 2.75347C3.11245 3.27847 3.43745 3.70347 3.81245 3.90347" stroke="#703D29" stroke-width="0.075"/>
<path d="M3.21252 2.14099C3.01108 2.16984 2.82599 2.26799 2.68911 2.41857C2.55222 2.56914 2.4721 2.76272 2.46252 2.96599C2.46252 3.52849 2.58752 3.75349 2.90002 4.16599C3.21252 4.59099 4.23752 5.36599 4.23752 6.25349C4.25419 6.78682 4.07503 7.13682 3.70003 7.30349C3.45003 7.42849 3.16252 7.30349 3.02502 7.17849C2.70002 6.87849 2.83752 6.36599 3.17502 6.30349C3.58752 6.22849 3.66253 6.87849 3.26253 6.84099" stroke="#703D29" stroke-width="0.075"/>
<path d="M2.5 2.69104C2.1875 2.71604 1.875 2.97854 1.875 3.31604C1.875 3.79104 2.0625 4.01604 2.45 4.49104C2.775 4.90354 3.7125 5.61604 3.6875 6.30354C3.6875 6.55354 3.5 6.87854 3.325 6.84104" stroke="#703D29" stroke-width="0.075"/>
<path d="M1.75002 12.3035C1.91252 11.941 2.30002 12.1035 2.32502 12.3035C2.37502 12.766 1.97502 12.9035 1.68752 12.8285C1.62102 12.8106 1.55894 12.7792 1.50516 12.7361C1.45139 12.6931 1.40708 12.6395 1.37502 12.5785C1.29946 12.4365 1.28155 12.2709 1.32502 12.116L1.43752 11.916L1.58752 11.766C1.69585 11.7077 1.83752 11.6827 2.01252 11.691C2.70002 11.691 3.31252 12.5035 3.51252 13.366C3.58752 13.641 3.67501 14.2785 3.55001 14.866C3.45248 15.3979 3.2003 15.8892 2.82502 16.2785C2.46804 16.6109 2.04081 16.8587 1.57502 17.0035C1.41698 17.0538 1.24792 17.0581 1.08752 17.016C0.737515 16.9035 0.512516 16.5785 0.687516 16.141C0.837516 15.816 1.36252 15.641 1.60002 16.066C1.62502 16.1077 1.64168 16.1702 1.65002 16.2535C1.65002 16.366 1.60002 16.5035 1.52502 16.5535C1.35002 16.666 1.06252 16.6285 1.07502 16.3035" stroke="#703D29" stroke-width="0.075" stroke-linecap="round"/>
<path d="M1.22499 16.5911C1.34999 16.6411 1.42499 16.6286 1.58749 16.5661L1.81249 16.4411C2.13749 16.2536 2.51249 15.9661 2.86249 15.3036C2.95687 15.1258 3.02828 14.9368 3.07499 14.7411C3.10833 14.6077 3.13333 14.4702 3.14999 14.3286C3.15648 13.6438 2.94649 12.9744 2.54999 12.4161C2.41249 12.2161 2.29999 12.1036 2.02499 12.0911M0.837493 15.9661C0.82159 15.8815 0.828372 15.7942 0.857148 15.713C0.885924 15.6319 0.93567 15.5598 1.00133 15.5042C1.06698 15.4485 1.14621 15.4112 1.23095 15.3961C1.31569 15.381 1.40293 15.3885 1.48379 15.4181C1.56465 15.4476 1.63625 15.498 1.69131 15.5642C1.74638 15.6303 1.78294 15.7099 1.79729 15.7948C1.81163 15.8796 1.80325 15.9668 1.77298 16.0474C1.74272 16.128 1.69166 16.1991 1.62499 16.2536" stroke="#703D29" stroke-width="0.075"/>
<path d="M1.02502 15.4661C1.05173 15.3622 1.11109 15.2697 1.19437 15.2022C1.27764 15.1347 1.38042 15.0957 1.48752 15.0911C1.60801 15.0943 1.72246 15.1445 1.80651 15.2309C1.89056 15.3173 1.93757 15.433 1.93752 15.5536C1.93615 15.6734 1.89179 15.7887 1.81252 15.8786" stroke="#703D29" stroke-width="0.075"/>
<path d="M1.92493 15.4536C2.16208 15.2699 2.35487 15.0352 2.48903 14.7669C2.62318 14.4986 2.69526 14.2035 2.69993 13.9036C2.69993 13.3911 2.49993 12.8536 2.24993 12.6536" stroke="#703D29" stroke-width="0.075"/>
<path d="M2.58743 15.2161C2.39442 15.5301 2.12304 15.7886 1.79993 15.9661" stroke="#703D29" stroke-width="0.075" stroke-linecap="round"/>
<path d="M3.82498 17.0035C3.70831 16.7369 3.46664 16.591 3.09998 16.566C2.74164 16.541 2.39998 16.6202 2.07498 16.8035C1.67342 16.9956 1.33394 17.2967 1.09525 17.6724C0.856549 18.0482 0.728248 18.4834 0.724976 18.9285C0.729913 19.3369 0.814848 19.7403 0.974976 20.116C1.08748 20.316 1.34998 21.241 2.88748 21.866C3.92742 22.1904 5.01063 22.3547 6.09997 22.3535C7.39997 22.4035 8.59997 22.4535 9.29997 23.3035" stroke="#703D29" stroke-width="0.075"/>
<path d="M1.96252 17.2785C2.37502 17.0035 3.15003 16.6535 3.85003 17.0035C3.97148 17.0552 4.08151 17.1304 4.17376 17.2248C4.26601 17.3192 4.33866 17.4309 4.38753 17.5535C4.45348 17.7543 4.46744 17.9686 4.42809 18.1762C4.38874 18.3839 4.29737 18.5782 4.16252 18.741C4.05002 18.866 3.82503 19.066 3.53753 19.0785C3.06253 19.0785 2.95002 18.7535 2.93752 18.6785C2.88752 18.3285 3.08752 18.191 3.18752 18.1535C3.27502 18.1285 3.53752 18.141 3.58752 18.3285C3.62086 18.4035 3.61252 18.4868 3.56252 18.5785" stroke="#703D29" stroke-width="0.075" stroke-linecap="round"/>
<path d="M3.58752 18.5035C3.63752 18.3702 3.60419 18.2327 3.48752 18.091C3.39365 17.9906 3.2693 17.9239 3.13372 17.9013C2.99813 17.8787 2.85888 17.9015 2.73752 17.966C2.64586 18.016 2.54586 18.1077 2.43752 18.241C2.37919 18.2993 2.32919 18.366 2.28752 18.441C2.20419 18.5827 2.16252 18.6868 2.16252 18.7535C1.85002 19.6285 2.35002 20.5535 2.97502 20.9535C3.52502 21.3035 4.07502 21.4035 4.77502 21.4535C5.08752 21.491 5.27502 21.491 5.58752 21.516H7.68752C8.06252 21.5535 8.32502 21.566 8.63752 21.616C8.84586 21.641 9.07086 21.6827 9.31252 21.741C9.38752 21.741 9.46252 21.7577 9.53752 21.791L9.68752 21.8285C10.1459 21.9618 10.5542 22.1368 10.9125 22.3535C11.0209 22.4118 11.125 22.4827 11.225 22.566L11.3875 22.716C11.6375 22.966 11.8875 23.216 11.9375 23.5535V23.7535C11.9375 23.9785 11.7625 24.291 11.275 24.3785" stroke="#703D29" stroke-width="0.075"/>
<path d="M9.32494 23.841C9.19994 24.116 9.34994 24.241 9.52494 24.266C9.79994 24.3035 9.93744 24.091 9.96244 23.891C9.96759 23.8157 9.95717 23.7401 9.93185 23.669C9.90652 23.5979 9.86682 23.5327 9.81523 23.4776C9.76364 23.4225 9.70125 23.3786 9.63195 23.3486C9.56265 23.3187 9.48793 23.3033 9.41244 23.3035C9.27865 23.3138 9.15008 23.3599 9.04015 23.4368C8.93022 23.5138 8.84295 23.6188 8.78744 23.741C8.74912 23.8365 8.72796 23.9381 8.72494 24.041C8.7174 24.2277 8.77981 24.4104 8.89994 24.5535C9.07639 24.7406 9.31813 24.8525 9.57494 24.866C10.0999 24.8785 10.5124 24.391 10.5124 23.891C10.5124 22.9285 9.08744 22.391 8.51244 22.266C7.77955 22.0859 7.02939 21.9853 6.27494 21.966C5.83744 21.9535 5.49994 21.966 5.01244 21.9035C4.57494 21.866 4.33744 21.841 3.88744 21.741C3.30516 21.6168 2.76609 21.3408 2.32494 20.941C1.90878 20.6329 1.61943 20.1834 1.51125 19.6771C1.40307 19.1707 1.4835 18.6422 1.73744 18.191C1.87141 17.958 2.05724 17.759 2.28051 17.6095C2.50379 17.4599 2.75851 17.3637 3.02494 17.3285C3.5166 17.2701 3.89161 17.4702 4.14994 17.9285C4.27494 18.1535 4.22494 18.5285 4.13744 18.7035C4.07601 18.8105 3.9891 18.9008 3.88444 18.9662C3.77977 19.0316 3.66058 19.0702 3.53744 19.0785C3.06244 19.0785 2.94994 18.7535 2.93744 18.6785C2.88744 18.3285 3.08744 18.191 3.18744 18.1535C3.27494 18.1285 3.53744 18.141 3.58744 18.3285C3.61244 18.4035 3.6041 18.4868 3.56244 18.5785" stroke="#703D29" stroke-width="0.075"/>
<path d="M6.16254 1.79097L6.11254 1.72847C5.90004 1.42847 5.52504 1.34097 5.25004 1.54097C4.92504 1.79097 4.83754 2.21597 4.93754 2.66597C5.00787 2.95171 5.18737 3.19851 5.43754 3.35347" stroke="#703D29" stroke-width="0.075" stroke-linecap="round"/>
<path d="M17.8499 2.74102C17.3499 3.29102 16.8374 3.46602 16.0874 3.49102C15.8374 3.49102 15.3999 3.41602 15.1374 3.22852C14.9749 3.10352 14.7874 2.90352 14.8999 2.54102C14.9749 2.30352 15.3624 1.64102 15.3749 1.17852C15.4124 0.478521 15.1374 0.0910198 14.7124 -0.0589802C13.9374 -0.33398 13.0874 0.441021 12.5874 0.616021C12.3249 0.703521 12.1874 0.716019 11.9499 0.716019C11.6999 0.716019 11.5749 0.703521 11.2999 0.616021C10.7999 0.441021 9.96243 -0.33398 9.17493 -0.0589802C8.74993 0.0910198 8.48743 0.47852 8.51243 1.19102C8.52493 1.64102 8.91243 2.31602 8.98743 2.54102C9.11243 2.90352 8.92493 3.10352 8.74993 3.22852C8.49993 3.41602 8.03743 3.49102 7.81243 3.47852C7.06243 3.46602 6.54993 3.29102 6.04993 2.74102" stroke="#703D29" stroke-width="0.075"/>
<path d="M9.16248 22.0911C9.26248 22.1286 9.18748 22.0661 9.82498 22.3411C10.4072 22.5432 10.9046 22.9349 11.2375 23.4536C11.3786 23.7358 11.4183 24.058 11.35 24.3661" stroke="#703D29" stroke-width="0.075" stroke-linecap="round"/>
<path d="M9.21252 24.791C9.33651 24.8561 9.47278 24.8944 9.61252 24.9035C10.1375 24.916 10.55 24.4285 10.55 23.9285C10.55 23.5785 10.3625 23.2785 10.1 23.0535" stroke="#703D29" stroke-width="0.075"/>
<path d="M9.32503 23.8411C9.20003 24.1286 9.37503 24.2786 9.55003 24.3036C9.82503 24.3286 9.97503 24.1286 10 23.9286C10.0012 23.8251 9.97671 23.723 9.92872 23.6314C9.88072 23.5398 9.81073 23.4615 9.72503 23.4036" stroke="#703D29" stroke-width="0.075" stroke-linecap="round"/>
<path d="M20.7625 2.14099C21.1625 2.14099 21.5125 2.59099 21.5125 3.04099C21.5125 3.57849 21.2375 3.90349 21.025 4.14099C20.8666 4.33266 20.6833 4.52849 20.475 4.72849" stroke="#703D29" stroke-width="0.075"/>
<path d="M20.2875 1.71599C20.4236 1.79076 20.5428 1.8929 20.6375 2.01599C20.8 2.26599 20.85 2.47849 20.8375 2.79099C20.8125 3.31599 20.4375 3.67849 20.0875 3.91599M19.5 1.71599L19.575 1.80349C19.8125 2.07849 19.825 2.47849 19.775 2.70349C19.7484 2.84333 19.6923 2.97588 19.6104 3.09228C19.5285 3.20869 19.4227 3.30627 19.3 3.37849M18.675 1.57849C19 1.82849 19.1 2.25349 18.9875 2.70349C18.9042 3.00349 18.7292 3.22016 18.4625 3.35349M19.85 8.49099C19.8875 8.61599 19.9625 8.65349 20.0375 8.74099C20.2538 8.95117 20.5208 9.10188 20.8125 9.17849C21.1208 9.25349 21.3833 9.21599 21.6 9.06599M1.225 15.816C1.39167 15.8243 1.52917 15.9202 1.6375 16.1035C1.6625 16.1368 1.67917 16.1993 1.6875 16.291C1.6875 16.416 1.64583 16.5077 1.5625 16.566C1.375 16.691 1.0625 16.6285 1.0625 16.316" stroke="#703D29" stroke-width="0.075" stroke-linecap="round"/>
<path d="M2.18743 11.7035C2.81243 11.8285 3.39993 12.566 3.58743 13.366C3.66243 13.6535 3.74993 14.2785 3.62493 14.866C3.52272 15.4052 3.26152 15.9015 2.87493 16.291L2.61243 16.5285L2.48743 16.616M1.48743 15.1035C1.73743 15.1035 1.96243 15.341 1.96243 15.6035C1.96105 15.7233 1.91669 15.8386 1.83743 15.9285" stroke="#703D29" stroke-width="0.075"/>
<path d="M1.32495 15.3785C1.58745 15.3785 1.83745 15.6285 1.83745 15.9035C1.83674 15.9749 1.82075 16.0453 1.79057 16.11C1.76038 16.1747 1.7167 16.2321 1.66245 16.2785" stroke="#703D29" stroke-width="0.075"/>
<path d="M3.75002 12.7285C3.98368 13.0063 4.14665 13.3366 4.22502 13.691M4.22502 14.7535C4.1838 14.9274 4.1208 15.0954 4.03752 15.2535C3.92098 15.4728 3.76892 15.6714 3.58752 15.841" stroke="#703D29" stroke-width="0.075" stroke-linecap="round"/>
<path d="M3.78748 10.8285C4.01248 11.0118 4.15831 11.2118 4.22497 11.4285" stroke="#703D29" stroke-width="0.075"/>
<path d="M4.23747 10.2286C4.15482 10.4575 4.00711 10.6574 3.81248 10.8036M2.66248 8.65356L2.93748 8.57857L3.09998 8.45357L3.19998 8.31606L3.28748 8.09106L3.32498 7.90356" stroke="#703D29" stroke-width="0.075" stroke-linecap="round"/>
<path d="M2.12502 7.70349C2.03336 7.72849 1.92919 7.76182 1.81252 7.80349C1.63661 7.88839 1.48583 8.01763 1.37502 8.17849C1.07853 8.65105 0.979758 9.22124 1.10002 9.76599C1.15044 10.0155 1.24802 10.2531 1.38752 10.466L1.51252 10.641C1.68752 10.8035 1.83752 10.891 2.08752 10.8535" stroke="#703D29" stroke-width="0.075"/>
<path d="M3.625 6.51599C3.5875 6.67849 3.5 6.87849 3.25 6.85349" stroke="#703D29" stroke-width="0.075" stroke-linecap="round"/>
<path d="M2.71251 7.60358C2.46251 7.36608 1.96251 7.30358 1.45001 7.62858L1.25001 7.79108L1.07501 7.99108C0.943321 8.18266 0.842119 8.3935 0.775008 8.61608C0.687508 8.99108 0.687509 9.31608 0.700009 9.40358C0.700009 9.52858 0.712507 9.64108 0.737507 9.74108C0.820841 10.0911 0.916674 10.3494 1.02501 10.5161C1.13751 10.7036 1.40001 11.1411 1.98751 11.1911C2.21251 11.2036 2.58751 11.1036 2.61251 10.8161" stroke="#703D29" stroke-width="0.075"/>
<path d="M17.475 2.41601C17.5125 2.21601 17.7625 2.17851 17.85 2.29101C18 2.49101 17.9 2.81601 17.6 2.90351C17.5124 2.91925 17.4222 2.91133 17.3387 2.88057C17.2552 2.8498 17.1814 2.79731 17.125 2.72851C17 2.56601 17.0125 2.37851 17.0625 2.22851C17.0958 2.12851 17.1666 2.03685 17.275 1.95351C17.6125 1.70351 18.1625 1.75351 18.35 2.20351C18.575 2.75351 18.075 3.17851 17.6 3.49101C17.025 3.89101 16.35 3.96601 15.85 3.95351C14.7 3.95351 13.8375 3.40351 13.2625 3.07851C13.1208 3.02018 13.0083 3.03268 12.925 3.11601C12.8876 3.16666 12.8707 3.22954 12.8776 3.2921C12.8846 3.35467 12.9149 3.41231 12.9625 3.45351" stroke="#703D29" stroke-width="0.075" stroke-linecap="round"/>
<path d="M17.7 2.22852C17.825 2.22852 17.85 2.27852 17.8875 2.32852C18.0375 2.51602 17.925 2.84102 17.6375 2.94102M19.8624 9.37852C19.4249 9.85352 19.8374 10.666 20.1624 10.8535C20.2749 10.941 20.3249 10.891 20.4124 10.941" stroke="#703D29" stroke-width="0.075" stroke-linecap="round"/>
<path d="M19.8874 8.46599C19.7624 8.54932 19.6958 8.68682 19.6874 8.87849C19.6782 8.96956 19.6891 9.06155 19.7193 9.14795C19.7496 9.23435 19.7984 9.31305 19.8624 9.37849C20.1797 9.67064 20.5937 9.83534 21.0249 9.84099C21.2749 9.84932 21.5249 9.77849 21.7749 9.62849C22.0131 9.4718 22.1828 9.23055 22.2499 8.95349M19.6499 16.6785L19.6249 16.991C19.5988 17.296 19.5139 17.5932 19.3749 17.866C19.2448 18.1298 19.0668 18.3672 18.8499 18.566C18.636 18.7755 18.3862 18.9448 18.1124 19.066C17.8562 19.1989 17.5827 19.2956 17.2999 19.3535C16.7568 19.4614 16.2006 19.4867 15.6499 19.4285C15.3124 19.4035 15.1374 19.366 14.7999 19.3285C14.5249 19.316 14.3749 19.291 14.0999 19.291C13.6345 19.2787 13.1713 19.3595 12.7374 19.5285C12.3999 19.6535 12.0249 19.9035 11.9374 20.0035C11.8624 19.891 11.4749 19.6535 11.1499 19.5285C10.9418 19.4395 10.7235 19.3765 10.4999 19.341C10.2249 19.291 10.0624 19.291 9.77493 19.291C9.48743 19.291 9.34993 19.316 9.07493 19.341C8.74993 19.366 8.57493 19.416 8.23743 19.4285C7.92493 19.4535 7.74993 19.466 7.44993 19.4535C7.15553 19.4515 6.86219 19.418 6.57493 19.3535C6.29274 19.2996 6.01933 19.2071 5.76243 19.0785C5.49212 18.9523 5.24658 18.7787 5.03743 18.566C4.81933 18.3635 4.64124 18.1218 4.51243 17.8535C4.37501 17.5845 4.29016 17.2918 4.26243 16.991C4.23743 16.866 4.23743 16.6785 4.23743 16.6785V3.95349H19.6374L19.6499 16.6785Z" stroke="#703D29" stroke-width="0.075"/>
<path d="M3 18.491C3 18.4081 3.03292 18.3286 3.09153 18.27C3.15014 18.2114 3.22962 18.1785 3.3125 18.1785C3.39538 18.1785 3.47486 18.2114 3.53347 18.27C3.59208 18.3286 3.625 18.4081 3.625 18.491C3.625 18.5739 3.59208 18.6533 3.53347 18.7119C3.47486 18.7705 3.39538 18.8035 3.3125 18.8035C3.22962 18.8035 3.15014 18.7705 3.09153 18.7119C3.03292 18.6533 3 18.5739 3 18.491ZM1.0625 16.291C1.07917 16.116 1.15417 16.0201 1.2875 16.0035C1.4875 15.9785 1.5 16.1285 1.5 16.291C1.48333 16.4576 1.4125 16.5493 1.2875 16.566C1.15417 16.5493 1.07917 16.4576 1.0625 16.291Z" fill="#C7B37F" stroke="#C7B37F" stroke-width="0.0375"/>
<path d="M2.16248 10.741C2.17914 10.5993 2.24998 10.5243 2.37498 10.516C2.50831 10.5327 2.57914 10.6077 2.58747 10.741C2.59997 10.941 2.49998 10.966 2.37498 10.966C2.24998 10.966 2.16248 10.866 2.16248 10.741ZM5.99998 2.54102C5.99998 2.41602 6.06247 2.29102 6.17497 2.29102C6.29997 2.29102 6.37498 2.35768 6.39998 2.49102C6.39998 2.61602 6.33747 2.74102 6.22497 2.74102C6.10831 2.74102 6.03331 2.67435 5.99998 2.54102Z" fill="#C7B37F"/>
<path d="M1.9124 12.041C1.8624 12.0493 1.82907 12.0702 1.8124 12.1035C1.77907 12.1285 1.75407 12.166 1.7374 12.216L1.7124 12.366M2.2999 15.7035L2.4249 15.5785L2.4999 15.4535L2.5624 15.3285L2.6499 15.166M2.4874 16.916L2.2999 17.0035L2.1624 17.0785L1.9999 17.1785L1.8499 17.3035M3.7249 12.566L3.6249 12.466L3.4999 12.366L3.3874 12.266" stroke="#C7B37F" stroke-width="0.075" stroke-linecap="round"/>
<path d="M3.77488 10.916L3.62488 10.9785L3.43738 11.016" stroke="#C7B37F" stroke-width="0.075"/>
<path d="M1.67493 8.84104C1.69159 8.90771 1.71243 8.97021 1.73743 9.02854C1.76243 9.11187 1.79993 9.18271 1.84993 9.24104C1.93001 9.37769 2.04139 9.49337 2.17493 9.57854L2.36243 9.67854M2.23743 8.95354L2.39993 9.02854C2.51787 9.08088 2.64593 9.1065 2.77493 9.10354L2.99993 9.09104M3.89993 4.00354L3.64993 3.85354C3.54993 3.79521 3.46659 3.73271 3.39993 3.66604L3.26243 3.50354L3.16243 3.34104M4.09993 2.76604L4.17493 2.97854L4.34993 3.22854C4.47493 3.35354 4.56243 3.39104 4.69993 3.50354M4.87493 2.75354C4.89993 2.82854 4.9291 2.89521 4.96243 2.95354C4.99576 3.01187 5.02909 3.06187 5.06243 3.10354L5.22493 3.26604C5.30826 3.32437 5.39159 3.37021 5.47493 3.40354" stroke="#C7B37F" stroke-width="0.075" stroke-linecap="round"/>
<path d="M13.6625 1.74099C13.6625 1.52849 13.45 1.51599 13.3625 1.51599C13.1375 1.51599 13.075 1.65349 12.7875 1.80349C12.5393 1.96811 12.2478 2.05514 11.95 2.05349C11.6522 2.05514 11.3606 1.96811 11.1125 1.80349C10.825 1.65349 10.775 1.51599 10.5375 1.51599C10.4997 1.5176 10.4626 1.52663 10.4284 1.54259C10.3941 1.55854 10.3633 1.5811 10.3378 1.60896C10.3122 1.63683 10.2924 1.66945 10.2795 1.70498C10.2666 1.7405 10.2608 1.77823 10.2625 1.81599V1.92849L10.3 1.95349C10.3 1.87016 10.3208 1.79932 10.3625 1.74099C10.3858 1.70994 10.416 1.68474 10.4507 1.66738C10.4854 1.65003 10.5237 1.64099 10.5625 1.64099C10.7875 1.64099 10.875 1.79099 11.1625 1.94099C11.5375 2.14099 11.6875 2.17849 12 2.19099C12.302 2.19514 12.5983 2.10801 12.85 1.94099C13.1375 1.79099 13.225 1.62849 13.45 1.62849C13.525 1.62849 13.5792 1.67016 13.6125 1.75349V1.86599L13.6375 1.87849C13.6458 1.85349 13.6542 1.81182 13.6625 1.75349V1.74099Z" fill="#703D29" stroke="#703D29" stroke-width="0.025"/>
<path d="M5.05005 19.541C5.11255 19.4785 5.16255 19.5035 5.17505 19.466C5.17505 19.4493 5.16255 19.4368 5.13755 19.4285L5.02505 19.4035L4.92505 19.3535C4.90838 19.3452 4.88755 19.3452 4.86255 19.3535C4.85005 19.4035 4.98755 19.4035 4.93755 19.5285L4.83755 19.6785L4.51255 20.0535L4.48755 20.066V19.5285L4.50005 19.3035C4.52505 19.2535 4.60005 19.3035 4.61255 19.2535C4.61255 19.2368 4.60005 19.2243 4.57505 19.216C4.55005 19.2077 4.50422 19.1952 4.43755 19.1785L4.31255 19.116C4.27922 19.1077 4.25422 19.1077 4.23755 19.116L4.25005 19.1535C4.29172 19.1702 4.31255 19.2118 4.31255 19.2785V20.2035C4.31255 20.2618 4.32088 20.291 4.33755 20.291C4.34588 20.291 4.36255 20.2785 4.38755 20.2535L5.05005 19.541Z" fill="#703D29"/>
<path d="M5.43755 19.691C5.47505 19.5535 5.56255 19.641 5.56255 19.591C5.57088 19.5743 5.56255 19.5618 5.53755 19.5535L5.37505 19.5035C5.32505 19.4952 5.27505 19.4785 5.22505 19.4535H5.17505C5.16255 19.516 5.31255 19.516 5.27505 19.641L5.06255 20.3285C5.02505 20.4535 4.93755 20.4035 4.92505 20.4535V20.466L5.07505 20.516L5.27505 20.5785H5.31255C5.33755 20.5285 5.16255 20.541 5.22505 20.366L5.43755 19.691ZM5.90005 19.816C5.92505 19.7577 5.96255 19.741 6.01255 19.766C6.14588 19.816 6.18755 19.9202 6.13755 20.0785C6.11255 20.1535 6.08755 20.2285 5.88755 20.1785C5.83755 20.1702 5.81255 20.1493 5.81255 20.116L5.90005 19.8285V19.816ZM5.55005 20.441C5.48755 20.616 5.40005 20.541 5.38755 20.591C5.38755 20.6077 5.40005 20.6202 5.42505 20.6285L5.62505 20.6785L5.72505 20.716H5.77505C5.78755 20.6535 5.65005 20.6785 5.68755 20.5285L5.76255 20.2785C5.76255 20.2285 5.78755 20.216 5.83755 20.241C5.90422 20.2493 5.93755 20.2827 5.93755 20.341L5.97505 20.591C5.98338 20.7077 6.02505 20.791 6.10005 20.841C6.18338 20.8493 6.24172 20.8327 6.27505 20.791L6.25005 20.766H6.21255C6.21255 20.766 6.17505 20.766 6.17505 20.7285L6.08755 20.2785C6.09588 20.2618 6.12922 20.2493 6.18755 20.241C6.21869 20.2243 6.24592 20.2012 6.26747 20.1731C6.28902 20.1451 6.30438 20.1129 6.31255 20.0785C6.32505 20.016 6.36255 19.8035 6.08755 19.716L5.82505 19.6535L5.67505 19.6035H5.63755C5.62505 19.666 5.77505 19.6535 5.72505 19.816L5.55005 20.441ZM6.60005 20.7535C6.55005 20.9285 6.42505 20.816 6.41255 20.8785C6.41255 20.9035 6.42505 20.916 6.45005 20.916L6.63755 20.9535L6.81255 21.0035C6.84588 21.0202 6.87088 21.016 6.88755 20.991C6.88755 20.9535 6.72505 20.9535 6.76255 20.766L6.92505 20.116C6.92505 20.0493 6.95005 20.0285 7.00005 20.0535L7.12505 20.0785C7.26255 20.116 7.18755 20.266 7.25005 20.2785C7.26672 20.2702 7.27505 20.2452 7.27505 20.2035L7.28755 20.0785V20.0285L6.87505 19.941L6.47505 19.841C6.45838 19.841 6.45005 19.8493 6.45005 19.866L6.38755 20.0535C6.37088 20.0785 6.37088 20.0952 6.38755 20.1035C6.45005 20.116 6.45005 19.916 6.60005 19.9535L6.71255 19.9785C6.76255 19.9785 6.77922 20.0118 6.76255 20.0785L6.60005 20.7535ZM8.18755 20.341C8.23755 20.266 8.28755 20.2785 8.30005 20.2535C8.30005 20.2368 8.28338 20.2243 8.25005 20.216H8.13755L8.02505 20.1785C8.00005 20.1702 7.98338 20.1743 7.97505 20.191C7.96255 20.241 8.10005 20.216 8.07505 20.3535C8.07505 20.3785 8.05005 20.4327 8.00005 20.516L7.75005 20.9285L7.71255 20.9535V20.9285L7.62505 20.4285L7.61255 20.2035C7.61255 20.141 7.70005 20.1785 7.70005 20.141C7.70838 20.1243 7.69172 20.1118 7.65005 20.1035L7.51255 20.091C7.46255 20.091 7.42088 20.0785 7.38755 20.0535C7.35422 20.0452 7.32922 20.0493 7.31255 20.066L7.32505 20.091C7.38338 20.1077 7.41255 20.1452 7.41255 20.2035L7.57505 21.116C7.59172 21.1743 7.60422 21.2035 7.61255 21.2035C7.62088 21.2035 7.63755 21.191 7.66255 21.166L8.18755 20.341ZM8.26255 21.191C8.26255 21.216 8.27088 21.2368 8.28755 21.2535C8.35421 21.2868 8.42505 21.316 8.50005 21.341C8.67505 21.366 8.82505 21.2535 8.85005 21.066C8.88755 20.8785 8.81255 20.8035 8.67505 20.7035C8.51255 20.591 8.45005 20.566 8.46255 20.4535C8.48755 20.3702 8.54588 20.3285 8.63755 20.3285C8.86255 20.366 8.83755 20.6535 8.86255 20.6535C8.89588 20.6535 8.90838 20.6368 8.90005 20.6035L8.92505 20.4035V20.3535H8.85005C8.80005 20.3535 8.76255 20.291 8.65005 20.266C8.48338 20.2577 8.37922 20.341 8.33755 20.516C8.32922 20.6493 8.37922 20.7493 8.48755 20.816C8.68755 20.9535 8.76255 20.991 8.73755 21.116C8.71255 21.241 8.64172 21.2952 8.52505 21.2785C8.37505 21.2535 8.32505 21.1035 8.30005 20.9535C8.30005 20.9285 8.29172 20.916 8.27505 20.916C8.25838 20.9243 8.25005 20.9452 8.25005 20.9785V21.191H8.26255ZM10.2375 20.6285C10.275 20.541 10.3376 20.5535 10.3376 20.516C10.3376 20.4993 10.3209 20.491 10.2875 20.491H10.175L10.0625 20.4785C10.0375 20.4785 10.0209 20.4868 10.0126 20.5035C10.0126 20.5535 10.1376 20.5035 10.1376 20.641C10.1376 20.666 10.1167 20.7243 10.0751 20.816L9.85005 21.2535L9.83755 21.291L9.82505 21.2535L9.68755 20.7535L9.65005 20.5535C9.65005 20.491 9.73755 20.516 9.73755 20.4785C9.74588 20.4618 9.72922 20.4535 9.68755 20.4535H9.53755L9.41255 20.4285C9.37921 20.4202 9.35422 20.4243 9.33755 20.441L9.36255 20.466C9.41255 20.4827 9.44172 20.516 9.45005 20.566L9.71255 21.4535L9.76255 21.541C9.77922 21.5493 9.79172 21.5327 9.80005 21.491L10.2375 20.6285Z" fill="#703D29"/>
<path d="M10.4501 21.3535C10.4501 21.5035 10.3251 21.4785 10.3251 21.541C10.3251 21.5576 10.3375 21.5618 10.3625 21.5535H10.6376L10.6875 21.541C10.6875 21.466 10.5126 21.566 10.5126 21.291V20.766L10.5251 20.7535L10.55 20.766L11.1875 21.5535L11.225 21.566L11.25 21.5285V20.691C11.25 20.5285 11.375 20.566 11.375 20.5285C11.375 20.5201 11.3626 20.5118 11.3376 20.5035H11.05C11.0334 20.5035 11.0251 20.5118 11.0251 20.5285C11.0251 20.5785 11.1875 20.5535 11.1875 20.691V21.191L11.175 21.241L11.125 21.2035L10.6 20.541C10.5917 20.5076 10.575 20.4951 10.55 20.5035H10.3251L10.3 20.516C10.3 20.591 10.4501 20.491 10.4501 20.7785V21.3535ZM11.75 20.666C11.75 20.5285 11.85 20.5785 11.85 20.5285C11.8584 20.5118 11.8417 20.5035 11.8 20.5035H11.475C11.475 20.5035 11.4375 20.5035 11.4375 20.5285C11.4375 20.5785 11.5751 20.5285 11.5751 20.6785V21.391C11.5751 21.5285 11.475 21.491 11.475 21.541C11.475 21.5493 11.4834 21.5576 11.5 21.566H11.85C11.875 21.566 11.8876 21.5576 11.8876 21.541C11.8876 21.491 11.7375 21.566 11.7375 21.3785L11.75 20.666ZM12.3125 21.3535C12.3125 21.541 12.1625 21.4785 12.1625 21.5285C12.1625 21.5535 12.1792 21.5618 12.2126 21.5535H12.5876C12.6292 21.5535 12.6501 21.541 12.6501 21.516C12.6501 21.4785 12.475 21.516 12.475 21.341V20.666C12.4667 20.6076 12.4875 20.5826 12.5375 20.591H12.6625C12.8125 20.5785 12.7626 20.741 12.8251 20.741C12.8417 20.7326 12.8459 20.7076 12.8376 20.666L12.8251 20.541C12.8251 20.516 12.8167 20.4993 12.8 20.491L12.3876 20.5035H11.975L11.9501 20.541L11.9375 20.741L11.9501 20.791C12.0126 20.791 11.975 20.591 12.125 20.591H12.2375C12.2792 20.5826 12.3042 20.6076 12.3125 20.666V21.366V21.3535ZM13.1 21.0785H13.05L13.0625 21.016L13.1501 20.741V20.716L13.175 20.7285L13.3 20.991L13.3251 21.041C13.3251 21.066 13.3084 21.0743 13.2751 21.066L13.1 21.0785ZM13.3251 21.141C13.3626 21.141 13.3625 21.141 13.425 21.266L13.4501 21.366C13.4501 21.4535 13.3625 21.441 13.3625 21.491C13.3625 21.5076 13.3792 21.5076 13.4125 21.491H13.5625L13.725 21.4785C13.7584 21.4785 13.7751 21.4701 13.7751 21.4535C13.7751 21.4035 13.7001 21.4535 13.6501 21.366L13.225 20.491L13.1875 20.441C13.1709 20.441 13.1584 20.4576 13.1501 20.491L12.875 21.416C12.85 21.5035 12.775 21.5035 12.7875 21.541H13.0751C13.1084 21.541 13.1292 21.5285 13.1376 21.5035C13.1501 21.466 12.9875 21.5035 12.975 21.391L13 21.266C13.025 21.1826 13.0501 21.1493 13.0751 21.166L13.3376 21.141H13.3251ZM14.3625 20.516C14.35 20.416 14.3626 20.416 14.5126 20.391C14.7626 20.366 14.6876 20.5535 14.7626 20.541C14.7792 20.5326 14.7792 20.5076 14.7626 20.466L14.75 20.3285C14.75 20.3118 14.7376 20.3035 14.7126 20.3035C14.5959 20.3035 14.4959 20.316 14.4125 20.341L14.0625 20.391C14.0375 20.391 14.0251 20.3993 14.0251 20.416C14.0376 20.4785 14.1876 20.416 14.2001 20.541L14.2875 21.2285C14.3125 21.416 14.2001 21.3535 14.2126 21.416H14.2375L14.4125 21.4035L14.5625 21.391C14.6042 21.391 14.625 21.3785 14.625 21.3535C14.625 21.316 14.4751 21.366 14.4501 21.2035L14.425 20.991C14.4084 20.9076 14.4209 20.866 14.4626 20.866H14.5625C14.7 20.841 14.6875 21.0035 14.725 20.991C14.7584 20.9743 14.7625 20.9535 14.7375 20.9285L14.7001 20.666C14.6917 20.6326 14.6834 20.6201 14.675 20.6285C14.6375 20.6285 14.6625 20.766 14.55 20.7785L14.4626 20.791C14.4126 20.8076 14.3876 20.7868 14.3876 20.7285L14.3625 20.516ZM14.8625 20.866C14.9125 21.1535 15.1251 21.3285 15.3876 21.2785C15.8126 21.191 15.825 20.8285 15.7875 20.616C15.725 20.3035 15.5 20.1535 15.2375 20.2035C14.925 20.266 14.8 20.541 14.8625 20.866ZM15 20.741C14.9625 20.541 15.0001 20.316 15.2126 20.2785C15.3876 20.241 15.5876 20.3785 15.6376 20.7035C15.6751 20.9535 15.6375 21.1535 15.4125 21.2035C15.1875 21.2535 15.0375 20.9535 15 20.7535V20.741ZM16.0375 20.2285C16.0375 20.1535 16.0625 20.116 16.1125 20.116C16.2459 20.0993 16.3334 20.166 16.375 20.316C16.4 20.4035 16.4126 20.491 16.2126 20.541C16.1709 20.5493 16.1375 20.541 16.1125 20.516L16.05 20.2285H16.0375ZM16.0375 20.941C16.0875 21.116 15.975 21.1035 15.975 21.141C15.9917 21.166 16.0084 21.1701 16.0251 21.1535C16.0917 21.1451 16.1584 21.1285 16.225 21.1035L16.35 21.0785C16.375 21.0785 16.3834 21.0701 16.375 21.0535C16.375 21.0035 16.2501 21.091 16.2126 20.9285L16.1501 20.6785C16.1501 20.6285 16.1251 20.6285 16.2001 20.616C16.2501 20.591 16.2959 20.6035 16.3376 20.6535L16.5 20.8535C16.5625 20.9285 16.625 21.016 16.725 20.991C16.8 20.9743 16.8417 20.9368 16.85 20.8785L16.8251 20.866L16.7875 20.8785C16.7875 20.8785 16.75 20.891 16.7375 20.8785L16.4375 20.516L16.5 20.441C16.5334 20.391 16.5417 20.3243 16.5251 20.241C16.5126 20.1785 16.4376 19.9785 16.1501 20.041L15.8876 20.116L15.7375 20.141C15.7125 20.141 15.7042 20.1493 15.7126 20.166C15.7126 20.2285 15.8501 20.141 15.8876 20.291L16.0375 20.941ZM17.125 20.691C17.1625 20.866 17.0001 20.841 17.0126 20.891C17.0209 20.916 17.0417 20.9243 17.0751 20.916L17.25 20.8535L17.4375 20.816C17.4792 20.8243 17.4959 20.8076 17.4875 20.766C17.4875 20.7285 17.3251 20.816 17.2751 20.641L17.1125 19.9785C17.0959 19.9201 17.1084 19.891 17.1501 19.891L17.2751 19.866C17.4126 19.816 17.4126 19.991 17.4626 19.9785C17.5126 19.966 17.4626 19.916 17.4626 19.891L17.4125 19.766C17.4125 19.766 17.4126 19.7285 17.3876 19.741L16.9875 19.8535L16.5876 19.941V19.9785L16.6 20.1785C16.6 20.2118 16.6126 20.2285 16.6376 20.2285C16.7001 20.216 16.6001 20.0285 16.7626 19.991L16.8625 19.966C16.9125 19.9493 16.9417 19.9701 16.9501 20.0285L17.125 20.691ZM17.8125 19.7785C17.775 19.6535 17.8875 19.666 17.8625 19.616H17.8251L17.6501 19.666L17.5 19.7035C17.5 19.7035 17.4626 19.7035 17.4626 19.7285C17.4751 19.7785 17.6126 19.7035 17.6501 19.8285L17.85 20.5285C17.875 20.6535 17.775 20.6535 17.7875 20.691C17.7875 20.7076 17.7959 20.7118 17.8125 20.7035L17.9501 20.666L18.1501 20.616C18.1834 20.616 18.1959 20.6035 18.1875 20.5785C18.175 20.541 18.05 20.641 18 20.466L17.8125 19.7785ZM18.1 20.116C18.1875 20.4035 18.425 20.541 18.6875 20.4535C19.0875 20.316 19.0625 19.941 18.9875 19.741C18.8875 19.441 18.6376 19.3285 18.3876 19.4035C18.0876 19.516 17.9875 19.8035 18.1 20.116ZM18.225 19.991C18.15 19.7785 18.15 19.5535 18.3625 19.491C18.525 19.4285 18.7375 19.541 18.85 19.8535C18.925 20.0785 18.9125 20.3035 18.7001 20.3785C18.475 20.4535 18.3 20.191 18.225 19.9785V19.991ZM19.175 19.3035C19.1584 19.2285 19.175 19.1868 19.225 19.1785C19.3667 19.1535 19.4667 19.2118 19.5251 19.3535C19.5501 19.4285 19.5751 19.516 19.3876 19.591C19.3376 19.6076 19.3042 19.6076 19.2875 19.591L19.175 19.3035ZM19.2751 20.0035C19.3501 20.1785 19.225 20.1785 19.25 20.216C19.25 20.241 19.2667 20.2451 19.3 20.2285L19.4875 20.141L19.6 20.116C19.625 20.1076 19.6334 20.0951 19.625 20.0785C19.6 20.0285 19.5001 20.1285 19.4501 19.9785L19.35 19.741C19.3167 19.6993 19.3292 19.6701 19.3876 19.6535C19.4376 19.6285 19.4834 19.641 19.5251 19.691L19.725 19.866C19.7875 19.9285 19.8625 20.0035 19.975 19.966C20.0125 19.941 20.0875 19.8785 20.0625 19.841L20.0375 19.8285L20.0126 19.8535H19.9501L19.6 19.541L19.6501 19.4535C19.6638 19.4219 19.6709 19.3879 19.6709 19.3535C19.6709 19.319 19.6638 19.285 19.6501 19.2535C19.6376 19.1785 19.5251 19.0035 19.2626 19.1035L19.0126 19.216L18.8625 19.266L18.8376 19.291C18.8626 19.341 18.975 19.241 19.0375 19.391L19.2875 20.016L19.2751 20.0035Z" fill="#703D29"/>
<path d="M5.01599 4.73499H11.584V11.295H5.01599V4.73499Z" fill="#D52B1E"/>
<path d="M8.09603 9.89503C8.09603 9.89503 8.09603 10.135 8.03203 10.319C7.95203 10.535 7.95203 10.535 7.88003 10.639C7.80276 10.7662 7.69909 10.8753 7.57603 10.959C7.41603 11.0604 7.25603 11.103 7.09603 11.087C6.66403 11.055 6.45603 10.575 6.36003 10.191C6.25603 9.78303 5.96003 9.55103 5.76003 9.71103C5.65336 9.80169 5.64536 9.92436 5.73603 10.079C5.8222 10.183 5.93586 10.2606 6.06403 10.303L5.83203 10.599C5.83203 10.599 5.32803 10.535 5.23203 10.007C5.19203 9.80703 5.28803 9.43903 5.62403 9.32703C6.04803 9.18303 6.31203 9.48703 6.44803 9.74303C6.62403 10.095 6.70403 10.735 7.20003 10.639C7.47203 10.583 7.60003 10.191 7.60003 10.007L7.79203 9.79903L8.08803 9.89503H8.09603Z" fill="white"/>
<path d="M8.50395 9.89503C8.50395 9.89503 8.50395 10.135 8.56795 10.319C8.64795 10.535 8.64795 10.535 8.71995 10.639C8.79722 10.7662 8.90088 10.8753 9.02395 10.959C9.18395 11.0604 9.34395 11.103 9.50395 11.087C9.93595 11.055 10.1439 10.575 10.2399 10.191C10.3439 9.78303 10.6399 9.55103 10.8399 9.71103C10.9466 9.80169 10.9546 9.92436 10.8639 10.079C10.7778 10.183 10.6641 10.2606 10.5359 10.303L10.7679 10.599C10.7679 10.599 11.2719 10.535 11.3679 10.007C11.4079 9.80703 11.3119 9.43903 10.9759 9.32703C10.5519 9.18303 10.2879 9.48703 10.1519 9.74303C9.97595 10.095 9.89595 10.735 9.39995 10.639C9.12795 10.583 8.99995 10.191 8.99995 10.007L8.80795 9.79903L8.51195 9.89503H8.50395Z" fill="white"/>
<path d="M8.88801 7.11098L9.75201 6.17498C9.75201 6.17498 9.88001 6.07098 9.88001 5.90298L9.70401 5.93498L9.66401 5.83898L9.65601 5.75098L9.89601 5.69498V5.59098L9.92001 5.48698L9.66401 5.50298L9.68801 5.39098L9.72801 5.31098L9.88001 5.27898H10.032C10.176 5.00698 10.768 4.76698 11.184 5.19898C11.488 5.51898 11.424 6.09498 11.024 6.25498C10.9353 6.29795 10.8355 6.31257 10.7381 6.29682C10.6408 6.28108 10.5507 6.23574 10.48 6.16698L10.64 5.84698C10.856 5.98298 11.04 5.82298 11.024 5.65498C11.008 5.43898 10.864 5.31098 10.68 5.29498C10.4933 5.28964 10.36 5.36964 10.28 5.53498C10.232 5.63898 10.256 5.71098 10.24 5.82298C10.224 5.94298 10.24 6.00698 10.2 6.12698C10.1604 6.23716 10.0945 6.33602 10.008 6.41498L9.12801 7.37497L5.68801 11.087L5.43201 10.847L8.88801 7.11098Z" fill="#FEDF00"/>
<path d="M6.35999 7.43093C6.35999 7.43093 6.57598 8.50293 7.31198 10.1109C7.68798 9.97493 7.90398 9.88693 8.30398 9.88693C8.70398 9.88693 8.91199 9.96693 9.28799 10.1109C9.69757 9.2531 10.0166 8.35491 10.24 7.43093L8.30398 4.95093L6.35999 7.43093Z" fill="white"/>
<path d="M8.48794 5.78296L9.83194 7.51896C9.83194 7.51896 9.65594 8.35896 9.11194 9.62296C8.89594 9.57496 8.71194 9.53496 8.48794 9.51896V5.78296ZM8.11194 5.78296L6.76794 7.51896C6.76794 7.51896 6.94394 8.35896 7.48794 9.62296C7.70394 9.57496 7.88794 9.53496 8.11194 9.51896V5.78296Z" fill="#FEDF00"/>
<path d="M12.2875 4.72852H18.8625V11.291H12.2875V4.72852Z" fill="#FEDF00"/>
<path d="M13.2125 4.72852H14.1875V11.291H13.2125V4.72852ZM15.0875 4.72852H16.0625V11.291H15.0875V4.72852ZM16.9625 4.72852H17.95V11.291H16.9625V4.72852Z" fill="#D52B1E"/>
<path d="M5.03745 16.9784C5.04578 17.1118 5.10412 17.2909 5.21245 17.5159C5.33745 17.7034 5.28745 17.6909 5.54995 17.9909C5.69543 18.1386 5.86439 18.2611 6.04995 18.3534C6.64108 18.6064 7.28316 18.7177 7.92495 18.6784C8.25828 18.6618 8.53328 18.6326 8.74995 18.5909C9.20565 18.5303 9.66537 18.5053 10.125 18.5159C10.3083 18.5159 10.5041 18.5409 10.7125 18.5909C11.15 18.6784 11.5875 18.8409 11.5875 18.8409V12.0034H5.01245V16.6659L5.03745 16.9659V16.9784Z" fill="#FEDF00"/>
<path d="M5.79993 18.1785L6.11243 18.366L6.53743 18.516V11.991H5.79993V18.1785ZM9.44993 18.4785V11.991H8.72493V18.591L9.44993 18.5035V18.4785ZM10.9124 11.991H10.1874V18.5035C10.4208 18.5368 10.6624 18.5785 10.9124 18.6285V11.991ZM7.98743 11.991V18.666C7.98743 18.666 7.51243 18.691 7.26243 18.666V11.991H7.98743Z" fill="#D52B1E" stroke="#D52B1E" stroke-width="0.0375"/>
<path d="M18.84 16.983C18.8111 17.1675 18.7516 17.346 18.664 17.511C18.544 17.695 18.584 17.695 18.32 17.991C18.0347 18.2742 17.6735 18.4687 17.28 18.551C16.8471 18.6648 16.3986 18.708 15.952 18.679C15.616 18.6576 15.3413 18.631 15.128 18.599C14.824 18.551 14.592 18.527 14.248 18.519H13.752C13.2528 18.5752 12.7617 18.688 12.288 18.855V11.991H18.864V16.671L18.84 16.983Z" fill="#FEDF00"/>
<path d="M13.968 12.5509L13.92 12.5669L13.856 12.6309C13.8293 12.6576 13.7973 12.6789 13.76 12.6949L13.712 12.7349C13.688 12.7589 13.712 12.7829 13.688 12.8149C13.6827 12.8416 13.6667 12.8682 13.64 12.8949C13.6133 12.9216 13.5867 12.9482 13.56 12.9749L13.464 13.0549L13.44 13.0629H13.392C13.3653 13.0842 13.344 13.1056 13.328 13.1269L13.352 13.1749L13.416 13.2869C13.4267 13.3189 13.44 13.3402 13.456 13.3509C13.4933 13.3669 13.528 13.3696 13.56 13.3589C13.6133 13.3696 13.6667 13.3829 13.72 13.3989L13.84 13.4629C13.872 13.4842 13.9067 13.4976 13.944 13.5029H14.088V13.5269L14.248 13.6069L14.24 13.6389C14.2293 13.6656 14.2267 13.6869 14.232 13.7029C14.2853 13.8576 14.3253 13.9429 14.352 13.9589C14.3947 13.9802 14.424 14.0202 14.44 14.0789L14.416 14.1029C14.3627 14.1456 14.3173 14.1936 14.28 14.2469C14.224 14.3429 14.184 14.3429 14.256 14.4709L14.376 14.6629C14.4027 14.7162 14.424 14.7696 14.44 14.8229C14.456 14.8762 14.464 14.9296 14.464 14.9829L14.544 15.0069L14.6 14.9589L14.648 14.8629V14.7829C14.632 14.7722 14.6267 14.7536 14.632 14.7269C14.632 14.6949 14.672 14.7029 14.688 14.6789C14.712 14.6389 14.656 14.6149 14.632 14.5909C14.584 14.5349 14.52 14.5189 14.504 14.4389C14.4987 14.4229 14.5093 14.4042 14.536 14.3829L14.696 14.2389C14.7173 14.2496 14.744 14.2522 14.776 14.2469L14.88 14.2789C14.9227 14.2842 14.9547 14.2842 14.976 14.2789H15.008L15.016 14.3269C15.024 14.4069 15.008 14.5669 15.032 14.6069L15.056 14.6549L15.072 14.7029V14.8629L15.056 14.9989C15.056 15.0309 15.0427 15.0576 15.016 15.0789C14.9893 15.1002 14.9627 15.1189 14.936 15.1349V15.2149L15.024 15.2549L15.128 15.2789L15.184 15.2549L15.192 15.2069L15.232 15.1669C15.2693 15.1616 15.2933 15.1589 15.304 15.1589C15.3147 15.1429 15.3147 15.1216 15.304 15.0949C15.304 15.0522 15.296 15.0096 15.28 14.9669L15.272 14.7429C15.272 14.7002 15.2773 14.6602 15.288 14.6229C15.296 14.5429 15.32 14.5109 15.336 14.4469C15.352 14.3776 15.3627 14.3109 15.368 14.2469C15.6377 14.2885 15.9131 14.2721 16.176 14.1989C16.24 14.2522 16.312 14.2949 16.392 14.3269V14.4069C16.392 14.4282 16.3973 14.4469 16.408 14.4629L16.432 14.4869C16.4533 14.4869 16.472 14.4816 16.488 14.4709C16.504 14.4602 16.5093 14.4416 16.504 14.4149V14.3589H16.648V14.4469C16.6587 14.4682 16.672 14.4789 16.688 14.4789H16.736C16.752 14.4576 16.76 14.4309 16.76 14.3989V14.3429L16.84 14.3109V14.3829L16.816 14.4549C16.8 14.5029 16.776 14.5189 16.752 14.5669C16.7307 14.6096 16.704 14.6496 16.672 14.6869L16.624 14.7429L16.576 14.8149L16.504 14.8949C16.448 14.9429 16.408 14.9109 16.344 14.9669L16.32 15.0469L16.432 15.0949L16.536 15.1109L16.568 15.0949C16.568 15.0682 16.576 15.0469 16.592 15.0309C16.608 15.0149 16.6267 15.0042 16.648 14.9989C16.68 14.9989 16.7067 14.9936 16.728 14.9829C16.7493 14.9509 16.768 14.9109 16.784 14.8629C16.8434 14.7446 16.9249 14.6387 17.024 14.5509L17.16 14.4389C17.1813 14.4176 17.1947 14.3909 17.2 14.3589L17.184 14.3109L17.168 14.2309C17.288 14.2869 17.248 14.2869 17.264 14.3429C17.288 14.3909 17.264 14.4229 17.272 14.4789C17.28 14.5429 17.312 14.5669 17.312 14.6309C17.312 14.6896 17.304 14.7509 17.288 14.8149C17.288 14.8682 17.2747 14.9216 17.248 14.9749C17.2285 15.0213 17.1984 15.0624 17.16 15.0949L17.112 15.1349L17.104 15.2149L17.192 15.2469L17.32 15.2789L17.352 15.2549C17.368 15.1989 17.352 15.1189 17.384 15.1189C17.416 15.1189 17.4373 15.1109 17.448 15.0949V15.0389L17.504 14.6789L17.536 14.5269L17.568 14.3909C17.624 14.2309 17.552 14.2069 17.488 14.1029C17.4507 14.0549 17.432 14.0149 17.432 13.9829V13.5269L17.464 13.5109C17.56 13.4549 17.6 13.4389 17.656 13.3109L17.68 13.1909V13.1109L17.648 13.0309L17.6 12.9669C17.544 12.8869 17.464 12.8789 17.384 12.8469C17.264 12.8069 17.184 12.8149 17.064 12.8069C16.92 12.7909 16.848 12.7909 16.712 12.8069C16.552 12.8069 16.464 12.8389 16.304 12.8629L15.912 12.8949C15.728 12.8949 15.56 12.8549 15.448 12.8629C15.256 12.8789 15.248 12.9269 14.952 12.9509L14.648 12.9669L14.472 12.9109C14.544 12.8869 14.56 12.8709 14.592 12.8309C14.624 12.7909 14.608 12.7749 14.64 12.7429L14.696 12.6629L14.624 12.6309H14.544L14.448 12.6549L14.384 12.7029L14.208 12.6069C14.1328 12.5691 14.0516 12.5447 13.968 12.5349V12.5509Z" fill="#D52B1E"/>
<path d="M17.5041 13.5509L17.4401 13.5749C17.3761 13.6015 17.3067 13.6149 17.2321 13.6149C17.0241 13.6309 16.8881 13.5269 16.6721 13.5429C16.5601 13.5509 16.5121 13.6389 16.3921 13.6709L16.2561 13.6869L16.2961 13.6069C16.2961 13.6069 16.2001 13.6309 16.1361 13.6309L16.0081 13.6149L16.0881 13.5349L15.9841 13.5189L15.9041 13.4629L16.0401 13.4389C16.1601 13.4069 16.2001 13.3429 16.3521 13.3269C16.4401 13.3269 16.5921 13.3269 16.9601 13.3909C17.2001 13.4309 17.3121 13.4069 17.4001 13.3669C17.4534 13.3402 17.4827 13.2922 17.4881 13.2229C17.4881 13.1589 17.4667 13.1109 17.4241 13.0789C17.4134 13.0735 17.3841 13.0629 17.3361 13.0469" stroke="#FEDF00" stroke-width="0.08" stroke-linecap="round"/>
<path d="M13.984 12.8389C13.9467 12.8389 13.912 12.8469 13.88 12.8629C13.848 12.8895 13.8214 12.9189 13.8 12.9509C13.8374 12.9669 13.8694 12.9749 13.896 12.9749C13.9227 12.9749 13.944 12.9615 13.96 12.9349C13.9814 12.9082 13.9921 12.8762 13.9921 12.8389H13.984Z" fill="#FCD900" stroke="#FEDF00" stroke-width="0.04"/>
<path d="M14.88 13.8949L14.96 14.0789C14.976 14.1429 14.96 14.1749 14.976 14.2389V14.3669M15.52 13.8069L15.496 13.9109L15.416 14.1909V14.2469M14.536 13.9269C14.608 13.9429 14.584 14.1909 14.688 14.2469" stroke="#FEDF00" stroke-width="0.08" stroke-linecap="round"/>
<path d="M16.808 14.3749L16.84 14.3509C16.9211 14.3182 16.9946 14.2692 17.056 14.2069" stroke="#FEDF00" stroke-width="0.08"/>
<path d="M16.192 14.2309C16.472 14.1589 16.664 14.0229 16.8 13.9989M16.48 13.8789H16.544C16.664 13.8549 16.68 13.9269 16.76 13.9749C16.912 14.0549 16.928 14.1589 17.104 14.2469L17.136 14.2549L17.2 14.2869" stroke="#FEDF00" stroke-width="0.08" stroke-linecap="round"/>
<path d="M13.416 13.1509H13.472L13.536 13.1349C13.5573 13.1349 13.576 13.1402 13.592 13.1509C13.6027 13.1509 13.6107 13.1589 13.616 13.1749C13.6213 13.1909 13.624 13.2042 13.624 13.2149C13.624 13.2309 13.608 13.2416 13.576 13.2469C13.56 13.2469 13.5467 13.2389 13.536 13.2229V13.1909C13.5248 13.1965 13.5125 13.1994 13.5 13.1994C13.4875 13.1994 13.4752 13.1965 13.464 13.1909L13.416 13.1509Z" fill="#FCD900" stroke="#FEDF00" stroke-width="0.04"/>
<path d="M14.008 13.9269L13.848 13.8549C13.88 13.8443 13.9067 13.8309 13.928 13.8149C13.944 13.7829 13.9573 13.7483 13.968 13.7109C13.9733 13.6576 13.992 13.6203 14.024 13.5989C14.056 13.5776 14.0853 13.5749 14.112 13.5909C14.1493 13.5963 14.1733 13.6149 14.184 13.6469C14.184 13.6896 14.176 13.7296 14.16 13.7669C14.1493 13.8096 14.144 13.8469 14.144 13.8789C14.144 13.9109 14.1547 13.9376 14.176 13.9589L14.016 13.9269H14.008ZM13.928 14.0069C13.9266 13.9976 13.9279 13.988 13.9319 13.9795C13.9359 13.9709 13.9423 13.9637 13.9503 13.9588C13.9584 13.9538 13.9677 13.9514 13.9771 13.9517C13.9866 13.952 13.9957 13.9551 14.0034 13.9606C14.011 13.9661 14.0169 13.9737 14.0203 13.9826C14.0237 13.9914 14.0244 14.001 14.0223 14.0102C14.0202 14.0194 14.0155 14.0278 14.0087 14.0343C14.0019 14.0409 13.9933 14.0452 13.984 14.0469C13.9771 14.0481 13.97 14.0477 13.9632 14.0458C13.9564 14.044 13.9501 14.0406 13.9448 14.036C13.9394 14.0315 13.9351 14.0258 13.9323 14.0193C13.9294 14.0129 13.9279 14.006 13.928 13.9989V14.0069ZM13.792 12.6789H13.776C13.7547 12.6469 13.7387 12.6149 13.728 12.5829L13.704 12.4869V12.3269C13.704 12.3003 13.6987 12.2763 13.688 12.2549C13.688 12.2389 13.656 12.2309 13.664 12.2229H13.696C13.7227 12.2229 13.7493 12.2336 13.776 12.2549C13.8027 12.2763 13.8187 12.3029 13.824 12.3349L13.856 12.4549L13.88 12.5189L13.92 12.5669L13.864 12.6309L13.792 12.6789ZM14.08 13.5269L14.256 13.6069C14.377 13.5351 14.4744 13.4294 14.536 13.3029C14.608 13.1589 14.616 13.0869 14.648 12.9509L14.504 12.9109H14.472C14.432 13.0549 14.416 13.1269 14.344 13.2469C14.28 13.3536 14.2107 13.4336 14.136 13.4869L14.08 13.5269ZM14.48 14.9829L14.544 14.8789L14.656 14.7909H14.688C14.6866 14.8672 14.6731 14.9428 14.648 15.0149L14.616 15.0949L14.576 15.1349C14.536 15.0709 14.472 15.0309 14.472 14.9749L14.48 14.9829ZM17.12 15.1269L17.232 15.1749L17.352 15.2469V15.2869L17.232 15.3029H17.048L17 15.2709C17.04 15.2149 17.064 15.1429 17.112 15.1269H17.12ZM16.336 14.9669L16.448 15.0069L16.568 15.0869V15.1189C16.4976 15.1378 16.4248 15.1459 16.352 15.1429L16.272 15.1349L16.216 15.1109C16.264 15.0549 16.288 14.9749 16.336 14.9669ZM14.944 15.1349L15.064 15.1749L15.184 15.2549V15.2949C15.1106 15.3119 15.035 15.3173 14.96 15.3109H14.88L14.832 15.2789C14.872 15.2229 14.896 15.1509 14.944 15.1349ZM14.224 12.7509C14.1707 12.7189 14.1547 12.6763 14.176 12.6229C14.1867 12.6123 14.2027 12.6016 14.224 12.5909C14.2347 12.5696 14.2347 12.5483 14.224 12.5269L14.216 12.4469L14.2 12.3669C14.1947 12.3243 14.2053 12.2816 14.232 12.2389C14.2587 12.2123 14.28 12.1963 14.296 12.1909C14.3067 12.2069 14.3067 12.2283 14.296 12.2549C14.296 12.2869 14.304 12.3189 14.32 12.3509L14.376 12.4549C14.392 12.4923 14.4027 12.5296 14.408 12.5669C14.408 12.5989 14.4027 12.6309 14.392 12.6629L14.344 12.7269L14.28 12.7589L14.224 12.7509Z" fill="#0065BD"/>
<path d="M13.968 15.479L13.92 15.495L13.856 15.559C13.8293 15.5857 13.7973 15.607 13.76 15.623L13.712 15.663C13.688 15.687 13.712 15.711 13.688 15.743C13.6827 15.7697 13.6667 15.7963 13.64 15.823C13.6133 15.8497 13.5867 15.8763 13.56 15.903L13.464 15.983L13.44 15.991H13.392C13.3653 16.0123 13.344 16.0337 13.328 16.055L13.352 16.103L13.416 16.215C13.4267 16.247 13.44 16.2683 13.456 16.279C13.4933 16.295 13.528 16.2977 13.56 16.287C13.6133 16.2977 13.6667 16.311 13.72 16.327L13.84 16.391C13.872 16.4123 13.9067 16.4257 13.944 16.431H14.088V16.455L14.248 16.535L14.24 16.567C14.2293 16.5937 14.2267 16.615 14.232 16.631C14.2853 16.7857 14.3253 16.871 14.352 16.887C14.3947 16.9083 14.424 16.9483 14.44 17.007L14.416 17.031C14.3627 17.0737 14.3173 17.1217 14.28 17.175C14.224 17.271 14.184 17.271 14.256 17.399L14.376 17.591C14.4027 17.6443 14.424 17.6977 14.44 17.751C14.456 17.8043 14.464 17.8577 14.464 17.911L14.544 17.935L14.6 17.887L14.648 17.791V17.711C14.632 17.7003 14.6267 17.6817 14.632 17.655C14.632 17.623 14.672 17.631 14.688 17.607C14.712 17.567 14.656 17.543 14.632 17.519C14.584 17.463 14.52 17.447 14.504 17.367C14.4987 17.351 14.5093 17.3323 14.536 17.311L14.696 17.167C14.7173 17.1777 14.744 17.1803 14.776 17.175L14.88 17.207C14.9227 17.2123 14.9547 17.2123 14.976 17.207H15.008L15.016 17.255C15.024 17.335 15.008 17.495 15.032 17.535L15.056 17.583L15.072 17.631V17.791L15.056 17.927C15.056 17.959 15.0427 17.9857 15.016 18.007C14.9893 18.0283 14.9627 18.047 14.936 18.063V18.143L15.024 18.183L15.128 18.207L15.184 18.183L15.192 18.135L15.232 18.095C15.2693 18.0897 15.2933 18.087 15.304 18.087C15.3147 18.071 15.3147 18.0497 15.304 18.023C15.304 17.9803 15.296 17.9377 15.28 17.895L15.272 17.671C15.272 17.6283 15.2773 17.5883 15.288 17.551C15.296 17.471 15.32 17.439 15.336 17.375C15.352 17.3057 15.3627 17.239 15.368 17.175C15.6377 17.2166 15.9131 17.2002 16.176 17.127C16.24 17.1803 16.312 17.223 16.392 17.255V17.335C16.392 17.3563 16.3973 17.375 16.408 17.391L16.432 17.415C16.4533 17.415 16.472 17.4097 16.488 17.399C16.504 17.3883 16.5093 17.3697 16.504 17.343V17.287H16.648V17.375C16.6587 17.3963 16.672 17.407 16.688 17.407H16.736C16.752 17.3857 16.76 17.359 16.76 17.327V17.271L16.84 17.239V17.311L16.816 17.383C16.8 17.431 16.776 17.447 16.752 17.495C16.7307 17.5377 16.704 17.5777 16.672 17.615L16.624 17.671L16.576 17.743L16.504 17.823C16.448 17.871 16.408 17.839 16.344 17.895L16.32 17.975L16.432 18.023L16.536 18.039L16.568 18.023C16.568 17.9963 16.576 17.975 16.592 17.959C16.608 17.943 16.6267 17.9323 16.648 17.927C16.68 17.927 16.7067 17.9217 16.728 17.911C16.7493 17.879 16.768 17.839 16.784 17.791C16.8434 17.6727 16.9249 17.5668 17.024 17.479L17.16 17.367C17.1813 17.3457 17.1947 17.319 17.2 17.287L17.184 17.239L17.168 17.159C17.288 17.215 17.248 17.215 17.264 17.271C17.288 17.319 17.264 17.351 17.272 17.407C17.28 17.471 17.312 17.495 17.312 17.559C17.312 17.6177 17.304 17.679 17.288 17.743C17.288 17.7963 17.2747 17.8497 17.248 17.903C17.2285 17.9494 17.1984 17.9905 17.16 18.023L17.112 18.063L17.104 18.143L17.192 18.175L17.32 18.207L17.352 18.183C17.368 18.127 17.352 18.047 17.384 18.047C17.416 18.047 17.4373 18.039 17.448 18.023V17.967L17.504 17.607L17.536 17.455L17.568 17.319C17.624 17.159 17.552 17.135 17.488 17.031C17.4507 16.983 17.432 16.943 17.432 16.911V16.455L17.464 16.439C17.56 16.383 17.6 16.367 17.656 16.239L17.68 16.119V16.039L17.648 15.959L17.6 15.895C17.544 15.815 17.464 15.807 17.384 15.775C17.264 15.735 17.184 15.743 17.064 15.735C16.92 15.719 16.848 15.719 16.712 15.735C16.552 15.735 16.464 15.767 16.304 15.791L15.912 15.823C15.728 15.823 15.56 15.783 15.448 15.791C15.256 15.807 15.248 15.855 14.952 15.879L14.648 15.895L14.472 15.839C14.544 15.815 14.56 15.799 14.592 15.759C14.624 15.719 14.608 15.703 14.64 15.671L14.696 15.591L14.624 15.559H14.544L14.448 15.583L14.384 15.631L14.208 15.535C14.1328 15.4972 14.0516 15.4728 13.968 15.463V15.479Z" fill="#D52B1E"/>
<path d="M17.5041 16.479L17.4401 16.503C17.3761 16.5296 17.3067 16.543 17.2321 16.543C17.0241 16.559 16.8881 16.455 16.6721 16.471C16.5601 16.479 16.5121 16.567 16.3921 16.599L16.2561 16.615L16.2961 16.535C16.2961 16.535 16.2001 16.559 16.1361 16.559L16.0081 16.543L16.0881 16.463L15.9841 16.447L15.9041 16.391L16.0401 16.367C16.1601 16.335 16.2001 16.271 16.3521 16.255C16.4401 16.255 16.5921 16.255 16.9601 16.319C17.2001 16.359 17.3121 16.335 17.4001 16.295C17.4534 16.2683 17.4827 16.2203 17.4881 16.151C17.4881 16.087 17.4667 16.039 17.4241 16.007C17.4134 16.0016 17.3841 15.991 17.3361 15.975" stroke="#FEDF00" stroke-width="0.08" stroke-linecap="round"/>
<path d="M13.984 15.767C13.9467 15.767 13.912 15.775 13.88 15.791C13.848 15.8176 13.8214 15.847 13.8 15.879C13.8374 15.895 13.8694 15.903 13.896 15.903C13.9227 15.903 13.944 15.8896 13.96 15.863C13.9814 15.8363 13.9921 15.8043 13.9921 15.767H13.984Z" fill="#FCD900" stroke="#FEDF00" stroke-width="0.04"/>
<path d="M14.88 16.823L14.96 17.007C14.976 17.071 14.96 17.103 14.976 17.167V17.295M15.52 16.735L15.496 16.839L15.416 17.119V17.175M14.536 16.855C14.608 16.871 14.584 17.119 14.688 17.175" stroke="#FEDF00" stroke-width="0.08" stroke-linecap="round"/>
<path d="M16.808 17.303L16.84 17.279C16.9211 17.2463 16.9946 17.1973 17.056 17.135" stroke="#FEDF00" stroke-width="0.08"/>
<path d="M16.192 17.159C16.472 17.087 16.664 16.951 16.8 16.927M16.48 16.807H16.544C16.664 16.783 16.68 16.855 16.76 16.903C16.912 16.983 16.928 17.087 17.104 17.175L17.136 17.183L17.2 17.215" stroke="#FEDF00" stroke-width="0.08" stroke-linecap="round"/>
<path d="M13.416 16.079H13.472L13.536 16.063C13.5573 16.063 13.576 16.0683 13.592 16.079C13.6027 16.079 13.6107 16.087 13.616 16.103C13.6213 16.119 13.624 16.1323 13.624 16.143C13.624 16.159 13.608 16.1697 13.576 16.175C13.56 16.175 13.5467 16.167 13.536 16.151V16.119C13.5248 16.1246 13.5125 16.1275 13.5 16.1275C13.4875 16.1275 13.4752 16.1246 13.464 16.119L13.416 16.079Z" fill="#FCD900" stroke="#FEDF00" stroke-width="0.04"/>
<path d="M14.008 16.855L13.848 16.783C13.88 16.7724 13.9067 16.759 13.928 16.743C13.944 16.711 13.9573 16.6764 13.968 16.639C13.9733 16.5857 13.992 16.5484 14.024 16.527C14.056 16.5057 14.0853 16.503 14.112 16.519C14.1493 16.5244 14.1733 16.543 14.184 16.575C14.184 16.6177 14.176 16.6577 14.16 16.695C14.1493 16.7377 14.144 16.775 14.144 16.807C14.144 16.839 14.1547 16.8657 14.176 16.887L14.016 16.855H14.008ZM13.928 16.935C13.9266 16.9257 13.9279 16.9161 13.9319 16.9076C13.9359 16.899 13.9423 16.8918 13.9503 16.8869C13.9584 16.8819 13.9677 16.8795 13.9771 16.8798C13.9866 16.8801 13.9957 16.8832 14.0034 16.8887C14.011 16.8942 14.0169 16.9018 14.0203 16.9107C14.0237 16.9195 14.0244 16.9291 14.0223 16.9383C14.0202 16.9475 14.0155 16.9559 14.0087 16.9624C14.0019 16.969 13.9933 16.9733 13.984 16.975C13.9771 16.9762 13.97 16.9758 13.9632 16.9739C13.9564 16.9721 13.9501 16.9687 13.9448 16.9641C13.9394 16.9596 13.9351 16.9539 13.9323 16.9474C13.9294 16.941 13.9279 16.9341 13.928 16.927V16.935ZM13.792 15.607H13.776C13.7547 15.575 13.7387 15.543 13.728 15.511L13.704 15.415V15.255C13.704 15.2284 13.6987 15.2044 13.688 15.183C13.688 15.167 13.656 15.159 13.664 15.151H13.696C13.7227 15.151 13.7493 15.1617 13.776 15.183C13.8027 15.2044 13.8187 15.231 13.824 15.263L13.856 15.383L13.88 15.447L13.92 15.495L13.864 15.559L13.792 15.607ZM14.08 16.455L14.256 16.535C14.377 16.4632 14.4744 16.3575 14.536 16.231C14.608 16.087 14.616 16.015 14.648 15.879L14.504 15.839H14.472C14.432 15.983 14.416 16.055 14.344 16.175C14.28 16.2817 14.2107 16.3617 14.136 16.415L14.08 16.455ZM14.48 17.911L14.544 17.807L14.656 17.719H14.688C14.6866 17.7953 14.6731 17.8709 14.648 17.943L14.616 18.023L14.576 18.063C14.536 17.999 14.472 17.959 14.472 17.903L14.48 17.911ZM17.12 18.055L17.232 18.103L17.352 18.175V18.215L17.232 18.231H17.048L17 18.199C17.04 18.143 17.064 18.071 17.112 18.055H17.12ZM16.336 17.895L16.448 17.935L16.568 18.015V18.047C16.4976 18.0659 16.4248 18.074 16.352 18.071L16.272 18.063L16.216 18.039C16.264 17.983 16.288 17.903 16.336 17.895ZM14.944 18.063L15.064 18.103L15.184 18.183V18.223C15.1106 18.24 15.035 18.2454 14.96 18.239H14.88L14.832 18.207C14.872 18.151 14.896 18.079 14.944 18.063ZM14.224 15.679C14.1707 15.647 14.1547 15.6044 14.176 15.551C14.1867 15.5404 14.2027 15.5297 14.224 15.519C14.2347 15.4977 14.2347 15.4764 14.224 15.455L14.216 15.375L14.2 15.295C14.1947 15.2524 14.2053 15.2097 14.232 15.167C14.2587 15.1404 14.28 15.1244 14.296 15.119C14.3067 15.135 14.3067 15.1564 14.296 15.183C14.296 15.215 14.304 15.247 14.32 15.279L14.376 15.383C14.392 15.4204 14.4027 15.4577 14.408 15.495C14.408 15.527 14.4027 15.559 14.392 15.591L14.344 15.655L14.28 15.687L14.224 15.679Z" fill="#0065BD"/>
<path d="M5.01245 4.72852H11.5875V11.291H5.01245V4.72852ZM12.2874 4.72852H18.8624V11.291H12.2874V4.72852ZM5.03745 16.9785C5.04578 17.1118 5.10412 17.291 5.21245 17.516C5.33745 17.7035 5.28745 17.691 5.54995 17.991C5.69543 18.1387 5.86439 18.2611 6.04995 18.3535C6.64108 18.6065 7.28316 18.7178 7.92495 18.6785C8.25828 18.6618 8.53328 18.6327 8.74995 18.591C9.20565 18.5304 9.66537 18.5054 10.125 18.516C10.3083 18.516 10.5041 18.541 10.7125 18.591C11.15 18.6785 11.5875 18.841 11.5875 18.841V12.0035H5.01245V16.666L5.03745 16.966V16.9785ZM18.8375 16.9785C18.811 17.1665 18.7517 17.3484 18.6624 17.516C18.5374 17.7035 18.5875 17.691 18.325 17.991C18.1795 18.1387 18.0105 18.2611 17.825 18.3535C17.6625 18.441 17.5375 18.4785 17.275 18.5535C16.843 18.6666 16.3955 18.7088 15.95 18.6785C15.6166 18.6535 15.3458 18.6243 15.1375 18.591L14.2374 18.516H13.75C13.5666 18.516 13.3708 18.541 13.1624 18.591C12.7249 18.6785 12.2874 18.841 12.2874 18.841V11.991H18.875V16.6785L18.8499 16.9785H18.8375Z" stroke="#703D29" stroke-width="0.0625"/>
</g>
<g clip-path="url(#clip5_235_1559)">
<path d="M-28 -17.209H52V42.791H-28V-17.209Z" fill="#012169"/>
<path d="M-28 -17.209L12 12.791L-28 -17.209ZM12 -17.209L-28 12.791L12 -17.209Z" fill="black"/>
<path d="M-28 -17.209L12 12.791M12 -17.209L-28 12.791" stroke="white" stroke-width="6.25"/>
<mask id="mask2_235_1559" style="mask-type:luminance" maskUnits="userSpaceOnUse" x="-28" y="-18" width="47" height="36">
<path d="M-28 -17.209V-2.20898H18.6625V12.791H12L-28 -17.209ZM12 -17.209H-8V17.791H-28V12.791L12 -17.209Z" fill="white"/>
</mask>
<g mask="url(#mask2_235_1559)">
<path d="M-28 -17.209L12 12.791L-28 -17.209ZM12 -17.209L-28 12.791L12 -17.209Z" fill="black"/>
<path d="M-28 -17.209L12 12.791M12 -17.209L-28 12.791" stroke="#C8102E" stroke-width="3.75"/>
</g>
<path d="M-8 -17.209V17.791V-17.209ZM-28 -2.20898H18.6625H-28Z" fill="black"/>
<path d="M-8 -17.209V17.791M-28 -2.20898H18.6625" stroke="white" stroke-width="9.375"/>
<path d="M-8 -17.209V17.791V-17.209ZM-28 -2.20898H18.6625H-28Z" fill="black"/>
<path d="M-8 -17.209V17.791M-28 -2.20898H18.6625" stroke="#C8102E" stroke-width="6.25"/>
<path d="M-28 12.791H12V-17.209H25.3375V22.791H-28V12.791Z" fill="#012169"/>
</g>
<g clip-path="url(#clip6_235_1559)">
<path fill-rule="evenodd" clip-rule="evenodd" d="M-28 -17.209H52V13.241H-28V-17.209Z" fill="#FF0000"/>
<path fill-rule="evenodd" clip-rule="evenodd" d="M-28 12.3411H52V42.7911H-28V12.3411Z" fill="#000001"/>
<path fill-rule="evenodd" clip-rule="evenodd" d="M0.58745 1.31597C21.2374 6.72847 7.96245 33.266 -8.32505 22.216L-9.42505 23.916C0.162451 30.741 9.64995 25.241 12.325 18.116C15.1 10.766 11.375 0.428467 0.74995 -0.634033L0.58745 1.31597Z" fill="#FFEC00"/>
<path fill-rule="evenodd" clip-rule="evenodd" d="M-6.75002 24.141L-4.03753 25.4035L-5.31252 28.1285L-8.02502 26.8535L-6.75002 24.141ZM11.875 11.7035H14.875V14.7035H11.875V11.7035ZM10.4125 6.84101L13.2 5.76602L14.2875 8.55352L11.5 9.64102L10.4125 6.84101ZM7.16247 3.20352L9.29997 1.09101L11.4125 3.21601L9.28747 5.32852L7.16247 3.20352ZM3.88748 -1.77148L6.68748 -0.721485L5.62498 2.07852L2.82498 1.02851L3.88748 -1.77148ZM11.5 16.541L14.2875 17.6535L13.1625 20.4285L10.3875 19.316L11.5 16.541ZM2.76248 25.291L5.51248 24.1285L6.69998 26.8785L3.94998 28.0535L2.76248 25.291ZM-2.17502 25.641H0.824976V28.641H-2.17502V25.641ZM2.98747 11.141L0.449976 9.26602L-2.08752 11.091L-1.08752 8.21601L-3.62502 6.34101H-0.562525L0.499975 3.51602L1.47498 6.35352L4.56248 6.31602L2.11247 8.22852L2.98747 11.141Z" fill="#FFEC00"/>
<path fill-rule="evenodd" clip-rule="evenodd" d="M12.5625 28.2536C7.23747 25.2161 1.64997 21.9411 -3.68753 18.9036C-6.02503 17.4411 -6.13753 14.7286 -4.56253 12.6661C-4.41253 12.3786 -4.21253 12.4411 -4.13753 12.6036C-3.95003 13.6036 -3.38753 14.6411 -2.71253 15.2911C2.82764 18.776 8.31574 22.3431 13.75 25.9911C13.325 26.7161 13 27.5286 12.5625 28.2411V28.2536Z" fill="#FFEE00"/>
<path fill-rule="evenodd" clip-rule="evenodd" d="M9.15002 20.9785L11.375 22.9785L9.37502 25.2035L7.15002 23.2035L9.15002 20.9785Z" fill="#FFEC00"/>
<path d="M13.4375 26.391L-2.1875 16.9535M11.5125 24.216L6.25 20.8035M8.525 26.141L3.1625 23.041" stroke="black" stroke-width="0.375"/>
</g>
</g>
<rect x="0.5" y="1.29102" width="23" height="23" rx="11.5" stroke="#C4C6CD"/>
<defs>
<clipPath id="clip0_235_1559">
<rect y="0.791016" width="24" height="24" rx="12" fill="white"/>
</clipPath>
<clipPath id="clip1_235_1559">
<rect width="64" height="64" fill="white" transform="translate(-20 -19.209)"/>
</clipPath>
<clipPath id="clip2_235_1559">
<rect width="80" height="60" fill="white" transform="translate(-28 -17.209)"/>
</clipPath>
<clipPath id="clip3_235_1559">
<rect width="80" height="60" fill="white" transform="translate(-28 -17.209)"/>
</clipPath>
<clipPath id="clip4_235_1559">
<rect width="80" height="60" fill="white" transform="translate(-28 -17.209)"/>
</clipPath>
<clipPath id="clip5_235_1559">
<rect width="80" height="60" fill="white" transform="translate(-28 -17.209)"/>
</clipPath>
<clipPath id="clip6_235_1559">
<rect width="80" height="60" fill="white" transform="translate(-28 -17.209)"/>
</clipPath>
</defs>
</svg>
