<svg width="24" height="25" viewBox="0 0 24 25" fill="none" xmlns="http://www.w3.org/2000/svg">
<g clip-path="url(#clip0_235_1725)">
<mask id="mask0_235_1725" style="mask-type:luminance" maskUnits="userSpaceOnUse" x="-5" y="1" width="33" height="24">
<path d="M-4.33337 1H27.607V24.9553H-4.33337V1Z" fill="white"/>
</mask>
<g mask="url(#mask0_235_1725)">
<path fill-rule="evenodd" clip-rule="evenodd" d="M-4.33337 1V24.9553H27.607V1H-4.33337Z" fill="#EA1A1A"/>
<mask id="mask1_235_1725" style="mask-type:luminance" maskUnits="userSpaceOnUse" x="-5" y="1" width="33" height="24">
<path fill-rule="evenodd" clip-rule="evenodd" d="M-4.33337 1V24.9553H27.607V1H-4.33337Z" fill="white"/>
</mask>
<g mask="url(#mask1_235_1725)">
<path fill-rule="evenodd" clip-rule="evenodd" d="M11.5066 12.5531C11.5066 12.5531 5.72771 7.3995 12.6236 4.39673C12.6236 4.39673 14.6292 6.60921 13.1247 9.09305C12.631 9.90769 12.2148 10.4894 11.9019 10.9266C11.261 11.8223 11.0543 12.1112 11.5066 12.5531ZM2.97775 8.8528C2.58085 16.3636 9.77436 13.4987 9.77436 13.4987C9.17698 13.7056 9.01099 13.3916 8.49655 12.4182C8.24532 11.9429 7.91104 11.3104 7.40289 10.5045C5.85378 8.04814 2.97775 8.8528 2.97775 8.8528ZM13.8708 12.805C13.8708 12.805 21.2889 15.0257 16.3142 20.6669C16.3142 20.6669 13.56 19.5119 13.8708 16.6247C13.9728 15.6781 14.1035 14.975 14.2016 14.4465C14.4028 13.3633 14.4677 13.0139 13.8708 12.805ZM11.9211 14.5364C11.9211 14.5364 13.2509 22.1645 5.98104 20.2367C5.98104 20.2367 5.78311 17.257 8.50453 16.2443C9.39717 15.9122 10.0847 15.7145 10.6013 15.566C11.6597 15.2618 12.0012 15.1637 11.9211 14.5364ZM21.0978 11.2562C16.5509 5.26511 12.9083 12.0977 12.9083 12.0977C13.2309 11.5539 13.5605 11.6865 14.5816 12.0975C15.0805 12.2982 15.7442 12.5653 16.6529 12.8525C19.4217 13.7275 21.0978 11.2562 21.0978 11.2562Z" fill="white"/>
<path d="M5.59839 11.3228L6.0196 11.0552C6.94418 12.5104 8.14424 13.2263 9.64175 13.2263V13.7254C7.96637 13.7254 6.6112 12.9168 5.59839 11.3228Z" fill="#EA1A1A"/>
<path fill-rule="evenodd" clip-rule="evenodd" d="M17.3762 11.73C17.7896 11.73 18.1248 11.3948 18.1248 10.9814C18.1248 10.568 17.7896 10.2328 17.3762 10.2328C16.9627 10.2328 16.6276 10.568 16.6276 10.9814C16.6276 11.3948 16.9627 11.73 17.3762 11.73Z" fill="#EA1A1A"/>
<path fill-rule="evenodd" clip-rule="evenodd" d="M15.588 16.6987C16.0014 16.6987 16.3366 16.3636 16.3366 15.9501C16.3366 15.5367 16.0014 15.2015 15.588 15.2015C15.1745 15.2015 14.8394 15.5367 14.8394 15.9501C14.8394 16.3636 15.1745 16.6987 15.588 16.6987Z" fill="#EA1A1A"/>
<path fill-rule="evenodd" clip-rule="evenodd" d="M9.59919 18.695C10.0126 18.695 10.3478 18.3598 10.3478 17.9464C10.3478 17.5329 10.0126 17.1978 9.59919 17.1978C9.18576 17.1978 8.85059 17.5329 8.85059 17.9464C8.85059 18.3598 9.18576 18.695 9.59919 18.695Z" fill="#EA1A1A"/>
<path fill-rule="evenodd" clip-rule="evenodd" d="M5.60664 11.7081C6.02006 11.7081 6.35524 11.3729 6.35524 10.9595C6.35524 10.5461 6.02006 10.2109 5.60664 10.2109C5.19319 10.2109 4.85803 10.5461 4.85803 10.9595C4.85803 11.3729 5.19319 11.7081 5.60664 11.7081Z" fill="#EA1A1A"/>
<path fill-rule="evenodd" clip-rule="evenodd" d="M11.5955 8.71364C12.009 8.71364 12.3441 8.37847 12.3441 7.96503C12.3441 7.55159 12.009 7.21643 11.5955 7.21643C11.1821 7.21643 10.8469 7.55159 10.8469 7.96503C10.8469 8.37847 11.1821 8.71364 11.5955 8.71364Z" fill="#EA1A1A"/>
<path d="M11.2722 8.03967L11.711 8.2775C10.8799 9.81063 10.8213 11.2247 11.525 12.5483L11.0844 12.7826C10.2986 11.3047 10.3645 9.71421 11.2722 8.03967Z" fill="#EA1A1A"/>
<path d="M17.6405 10.6678L17.5658 11.1613C15.6136 10.8653 14.1523 11.2771 13.1518 12.3884L12.7809 12.0544C13.9034 10.8077 15.5333 10.3483 17.6405 10.6678Z" fill="#EA1A1A"/>
<path d="M15.9799 16.3363L15.4906 16.4348C15.101 14.4991 14.2143 13.2669 12.8279 12.7068L13.0148 12.244C14.5702 12.8724 15.5594 14.247 15.9799 16.3363Z" fill="#EA1A1A"/>
<path d="M9.54729 18.1182L9.28748 17.692C10.9731 16.664 11.8277 15.4092 11.8799 13.9148L12.3787 13.9322C12.3201 15.6087 11.3668 17.0083 9.54729 18.1182Z" fill="#EA1A1A"/>
</g>
</g>
</g>
<rect x="0.5" y="1.29102" width="23" height="23" rx="11.5" stroke="#C4C6CD"/>
<defs>
<clipPath id="clip0_235_1725">
<rect y="0.791016" width="24" height="24" rx="12" fill="white"/>
</clipPath>
</defs>
</svg>
