<svg width="24" height="25" viewBox="0 0 24 25" fill="none" xmlns="http://www.w3.org/2000/svg">
<g clip-path="url(#clip0_235_1642)">
<mask id="mask0_235_1642" style="mask-type:luminance" maskUnits="userSpaceOnUse" x="-6" y="0" width="37" height="27">
<path d="M29.9164 0.5V26.5H-5.08362V0.5H29.9164Z" fill="white" stroke="#C4C6CD"/>
</mask>
<g mask="url(#mask0_235_1642)">
<path d="M29.9164 0.5V26.5H-5.08362V0.5H29.9164Z" fill="#E31D1C" stroke="#C4C6CD"/>
<mask id="mask1_235_1642" style="mask-type:luminance" maskUnits="userSpaceOnUse" x="-6" y="0" width="37" height="27">
<path d="M29.9164 0.5V26.5H-5.08362V0.5H29.9164Z" fill="white" stroke="#C4C6CD"/>
</mask>
<g mask="url(#mask1_235_1642)">
<path d="M12.1364 5.09595C13.0894 5.09438 14.1664 5.37366 15.0895 5.85864C15.4041 6.02397 15.6917 6.21167 15.9489 6.41235C15.0646 6.18479 13.9097 6.03589 12.6666 6.27856L12.399 6.33716C9.59232 7.00819 7.80697 9.43063 7.67834 12.2815L7.67151 12.5579C7.64846 15.6629 9.58252 17.8298 12.0817 18.5481L12.3258 18.6125C13.6527 18.9393 14.9889 18.7109 15.9655 18.4202C16.0224 18.4032 16.0777 18.3839 16.1324 18.3665C15.423 19.1237 14.2309 19.8829 12.4401 19.886L12.0875 19.8792C8.55816 19.727 4.79998 17.217 4.59143 12.9934L4.58264 12.5657C4.61493 8.20784 8.25034 5.28852 11.7936 5.10474L12.1364 5.09595ZM19.2555 11.4065L19.4752 11.6506L19.7867 11.5461L20.816 11.1995L20.1842 12.0823L19.9176 12.4543L20.2643 12.7522L21.4508 13.7727L20.0153 13.6682L19.7594 13.6497L19.5944 13.8469L18.7164 14.8997L18.7408 13.4622L18.7467 13.1028L18.4069 12.9827L17.0074 12.4885L18.1051 12.0862L18.4449 11.9612L18.4323 11.5999L18.3912 10.4456L19.2555 11.4065Z" fill="#F7FCFF" stroke="#C4C6CD"/>
</g>
</g>
</g>
<defs>
<clipPath id="clip0_235_1642">
<rect y="0.791016" width="24" height="24" rx="12" fill="white"/>
</clipPath>
</defs>
</svg>
