<svg width="24" height="25" viewBox="0 0 24 25" fill="none" xmlns="http://www.w3.org/2000/svg">
<g clip-path="url(#clip0_235_1307)">
<g clip-path="url(#clip1_235_1307)">
<path d="M-11 -3H35.3675V27.9116H-11V-3Z" fill="#DA251D"/>
<path d="M12.1838 3.18225L6.72789 19.9518L21.0091 9.59642H3.35852L17.6397 19.9518L12.1838 3.18225Z" fill="#FFFF00"/>
<g clip-path="url(#clip2_235_1307)">
<path fill-rule="evenodd" clip-rule="evenodd" d="M-27.8163 -17.5442H52.1837V42.4558H-27.8163V-17.5442Z" fill="#000001"/>
<path fill-rule="evenodd" clip-rule="evenodd" d="M-1.15381 -17.5442H25.5212V42.4558H-1.15381V-17.5442Z" fill="#BF0000"/>
<path fill-rule="evenodd" clip-rule="evenodd" d="M14.7806 15.8844H15.8839C15.8839 16.3098 16.1498 16.7618 16.4821 17.0143H14.3552C14.6876 16.7219 14.7806 16.3497 14.7806 15.8844Z" fill="white" stroke="#BD6B00" stroke-width="0.0664662"/>
<path fill-rule="evenodd" clip-rule="evenodd" d="M7.76184 9.59678L8.37333 10.2614L15.9505 10.288L16.562 9.62337L14.6212 9.58349L13.6906 8.91882H10.6332L9.75583 9.59678H7.76184Z" fill="white"/>
<path fill-rule="evenodd" clip-rule="evenodd" d="M10.8592 8.82568H13.478C13.8236 8.63957 13.9432 8.04138 13.9432 7.70905C13.9432 6.72535 13.2387 6.24679 12.5474 6.2202C12.4234 6.21134 12.3392 6.15374 12.2949 6.04739C12.2284 5.8347 12.2417 5.68847 12.1619 5.70177C12.1087 5.70177 12.122 5.8347 12.0689 6.0208C12.0157 6.13601 11.9271 6.20691 11.803 6.2335C10.9522 6.27338 10.3939 6.89816 10.4072 7.70905C10.4205 8.24078 10.487 8.55981 10.8592 8.82568Z" fill="white" stroke="#BD6B00" stroke-width="0.0664662"/>
<path fill-rule="evenodd" clip-rule="evenodd" d="M6.56543 18.1443H17.7716L16.7746 17.3334H7.54913L6.56543 18.1443Z" fill="white"/>
<path fill-rule="evenodd" clip-rule="evenodd" d="M11.71 15.0736L11.9094 15.6851H12.3746L12.0024 15.0736H11.71ZM11.4441 15.6851L11.577 16.2966H12.1088L11.9094 15.6851H11.4441ZM12.3746 15.6851L12.7468 16.2966H13.5311L12.9196 15.6851H12.3746ZM7.78845 17.0676C8.20054 16.6821 8.46641 16.363 8.46641 15.8978H9.4767C9.4767 16.1636 9.55645 16.2966 9.71597 16.2966H10.7396V15.6984H9.99513V12.4149C9.96855 11.2451 11.4042 10.5805 11.9891 10.5805H8.493V10.4741H15.8442V10.5805H12.3215C13.3716 10.5805 14.3819 11.5775 14.3952 12.4149V13.3455H14.2623L14.249 12.4282C14.249 11.511 13.0925 10.6602 12.1619 10.6868C11.3643 10.7001 10.1148 11.4711 10.1281 12.4149V12.7074L12.029 12.7207L12.0157 13.053L12.3082 13.2391L12.9064 13.4252V13.9304L13.3317 14.05V14.5419L13.8369 14.7678V15.273L14.1692 15.4724L14.1559 15.9908L14.5946 16.2966H13.5577L14.2091 17.0277H13.2387L12.7601 16.2966H12.1353L12.4145 17.0144H11.7498L11.577 16.2966H10.7528V17.0676H7.80175H7.78845ZM10.7396 15.0736V15.6851H11.4441L11.3112 15.0736H10.7263H10.7396Z" fill="white"/>
<path d="M11.9094 15.6851L11.71 15.0736H12.0024L12.3746 15.6851M11.9094 15.6851H12.3746M11.9094 15.6851L12.1088 16.2966H11.577M11.9094 15.6851H11.4441M12.3746 15.6851L12.7468 16.2966H13.5311L12.9196 15.6851H12.3746ZM11.4441 15.6851L11.577 16.2966M11.4441 15.6851H10.7396V15.0736H10.7263H11.3112L11.4441 15.6851ZM11.577 16.2966L11.7498 17.0144H12.4145L12.1353 16.2966H12.7601L13.2387 17.0277H14.2091L13.5577 16.2966H14.5946L14.1559 15.9908L14.1692 15.4724L13.8369 15.273V14.7678L13.3317 14.5419V14.05L12.9064 13.9304V13.4252L12.3082 13.2391L12.0157 13.053L12.029 12.7207L10.1281 12.7074V12.4149C10.1148 11.4711 11.3643 10.7001 12.1619 10.6868C13.0925 10.6602 14.249 11.511 14.249 12.4282L14.2623 13.3455H14.3952V12.4149C14.3819 11.5775 13.3716 10.5805 12.3215 10.5805H15.8442V10.4741H8.493V10.5805H11.9891C11.4042 10.5805 9.96855 11.2451 9.99513 12.4149V15.6984H10.7396V16.2966H9.71597C9.55645 16.2966 9.4767 16.1636 9.4767 15.8978H8.46641C8.46641 16.363 8.20054 16.6821 7.78845 17.0676H7.80175H10.7528V16.2966H11.577Z" stroke="#BD6B00" stroke-width="0.0664662"/>
<path fill-rule="evenodd" clip-rule="evenodd" d="M10.7794 14.0101H11.2181V15.0204H10.7794V14.0101Z" stroke="#BD6B00" stroke-width="0.0664662"/>
<path fill-rule="evenodd" clip-rule="evenodd" d="M10.1547 15.0868H10.58V14.3424C10.58 14.0234 10.8725 13.691 11.0054 13.6778C11.1649 13.6778 11.3909 13.9835 11.4042 14.3158V15.0868H11.8562V13.1726H10.1547V15.0868ZM13.5577 15.5255H14.0895V15.9509H13.5577V15.5255ZM13.2387 14.821H13.7704V15.2331H13.2387V14.821ZM12.7203 14.1031H13.252V14.5152H12.7203V14.1031ZM12.2816 13.5049H12.8133V13.917H12.2816V13.5049Z" stroke="#BD6B00" stroke-width="0.0664662"/>
<path fill-rule="evenodd" clip-rule="evenodd" d="M11.9226 15.0868L12.4809 15.1134L13.4513 15.9642V15.4591L13.119 15.2198V14.821L12.6404 14.5551V14.1164L12.1752 13.9569V13.3853L11.9492 13.1859L11.9226 15.0868Z" stroke="#BD6B00" stroke-width="0.0664662"/>
<path fill-rule="evenodd" clip-rule="evenodd" d="M14.2356 13.824H14.3685V14.7678H14.2356V13.824Z" fill="white" stroke="#BD6B00" stroke-width="0.0664662"/>
<path fill-rule="evenodd" clip-rule="evenodd" d="M6.51224 10.6602C6.35272 10.3943 6.15333 11.0324 5.47537 11.4976C5.16962 11.7103 4.94364 12.2819 4.94364 12.6541C4.9525 12.92 4.9525 13.177 4.94364 13.4252C4.93035 13.5714 4.75753 13.9303 4.87717 14.0233C5.16962 14.236 5.55513 14.7412 5.72794 14.914C5.88746 15.0469 6.02039 14.2095 6.12674 13.8505C6.25967 13.4517 6.2065 12.9599 6.55212 12.601C6.7914 12.3351 7.40289 12.0958 7.34972 11.9895L6.51224 10.6602Z" fill="white" stroke="#BD6B00" stroke-width="0.0664662"/>
<path fill-rule="evenodd" clip-rule="evenodd" d="M6.47233 12.7073C6.41954 12.5819 6.3478 12.4653 6.25963 12.3617C6.17527 12.2562 6.06549 12.1739 5.9406 12.1224C5.81727 12.0881 5.70648 12.0188 5.62156 11.923C5.57223 11.8649 5.53597 11.7969 5.51521 11.7236V11.4578L5.47533 11.4976C5.16959 11.7103 4.9436 12.2819 4.9436 12.6542V12.9599C4.96133 13.0308 4.98792 13.0884 5.02336 13.1327L5.16959 13.2391L5.52851 13.3321C5.66315 13.3921 5.78161 13.4832 5.87413 13.598C5.97012 13.7011 6.05071 13.8175 6.11341 13.9436L6.14 13.8373C6.24634 13.4783 6.23305 13.053 6.48562 12.7073H6.47233Z" fill="#BF0000" stroke="#BD6B00" stroke-width="0.0664662"/>
<path d="M5.51531 11.4445C5.44884 11.8831 5.70142 12.0427 5.94069 12.1224C6.17997 12.2155 6.37937 12.468 6.47242 12.7073M4.91711 12.9067C5.02346 13.3055 5.28932 13.2523 5.5286 13.3321C5.76788 13.4119 6.02045 13.7309 6.1268 13.9702" stroke="#BD6B00" stroke-width="0.0664662"/>
<path fill-rule="evenodd" clip-rule="evenodd" d="M6.28625 10.3943L6.41919 10.3146L8.77209 14.2893L8.63916 14.369L6.28625 10.3943Z" fill="white" stroke="#BD6B00" stroke-width="0.0664662"/>
<path fill-rule="evenodd" clip-rule="evenodd" d="M6.53881 10.2347C6.53881 10.3052 6.5108 10.3729 6.46094 10.4227C6.41108 10.4726 6.34346 10.5006 6.27295 10.5006C6.20243 10.5006 6.13481 10.4726 6.08495 10.4227C6.03509 10.3729 6.00708 10.3052 6.00708 10.2347C6.00708 10.1642 6.03509 10.0966 6.08495 10.0467C6.13481 9.99688 6.20243 9.96887 6.27295 9.96887C6.34346 9.96887 6.41108 9.99688 6.46094 10.0467C6.5108 10.0966 6.53881 10.1642 6.53881 10.2347ZM8.55939 7.04436H9.5165V7.25705H8.55939V7.04436ZM8.55939 7.45645H9.5165V9.29092H8.55939V7.45645ZM8.50621 6.79178H9.56967C9.59626 6.43287 9.23734 6.04736 9.03794 6.04736C8.82525 6.06066 8.49292 6.44616 8.50621 6.79178Z" fill="white" stroke="#BD6B00" stroke-width="0.0664662"/>
<path fill-rule="evenodd" clip-rule="evenodd" d="M11.2047 6.57917C11.0053 6.65893 10.8458 6.88492 10.7527 7.15079C10.6597 7.41665 10.6198 7.72239 10.673 7.96167C10.6818 8.05029 10.704 8.11676 10.7395 8.16107C10.766 8.20538 10.7926 8.22754 10.8192 8.22754C10.8635 8.22754 10.8945 8.21424 10.9123 8.18766L10.9389 8.08131C10.9211 7.81545 10.9344 7.57617 10.9787 7.36348C11.041 7.12869 11.1817 6.92228 11.3775 6.77857C11.413 6.75199 11.4351 6.72097 11.444 6.68552L11.4041 6.59247C11.3421 6.54816 11.2756 6.54373 11.2047 6.57917ZM11.2313 6.63235C11.2845 6.61462 11.3288 6.61905 11.3642 6.64564L11.3775 6.67223C11.3775 6.68109 11.3642 6.69881 11.3376 6.7254C11.1318 6.87356 10.9856 7.09044 10.9256 7.33689C10.8711 7.58111 10.8577 7.83268 10.8857 8.08131L10.8591 8.16107C10.8591 8.16107 10.8591 8.17436 10.8325 8.16107L10.7793 8.12119L10.7262 7.96167C10.6907 7.70467 10.7217 7.4388 10.8192 7.16408C10.9167 6.90707 11.0496 6.72983 11.218 6.63235H11.2313Z" fill="#BD6B00"/>
<path fill-rule="evenodd" clip-rule="evenodd" d="M11.5504 6.83173C11.3466 6.93807 11.2136 7.12418 11.1516 7.39004C11.0827 7.64566 11.0691 7.91305 11.1117 8.17435C11.156 8.35159 11.2269 8.44021 11.3244 8.44021C11.3687 8.45794 11.4042 8.44464 11.4307 8.40033C11.4573 8.35602 11.4662 8.31171 11.4573 8.2674C11.4042 8.04584 11.3909 7.81986 11.4175 7.58944C11.4529 7.35903 11.5504 7.17735 11.7099 7.04442C11.7542 7.00897 11.7764 6.97352 11.7764 6.93807L11.7498 6.85831C11.6877 6.814 11.6213 6.80514 11.5504 6.83173ZM11.577 6.89819C11.6301 6.88047 11.6745 6.88047 11.7099 6.89819L11.7232 6.93807L11.6833 6.99125C11.5084 7.14015 11.3948 7.34849 11.3643 7.57615C11.3288 7.82429 11.3377 8.05471 11.3909 8.2674V8.37375L11.3244 8.38704C11.2845 8.38704 11.1915 8.32057 11.1649 8.16105C11.125 7.93507 11.1383 7.64262 11.2048 7.40334C11.2757 7.14633 11.3997 6.97795 11.577 6.89819Z" fill="#BD6B00"/>
<path fill-rule="evenodd" clip-rule="evenodd" d="M8.5063 10.7798H9.56976V12.242H8.5063V10.7798ZM8.57276 13.0928H9.59635V13.4118H8.57276V13.0928ZM8.54618 13.6378H9.60964V14.7943H8.54618V13.6378ZM8.46642 15.0336H9.62293V15.685H8.46642V15.0336ZM8.61265 12.8269H9.54317L9.72928 12.5079H8.45312L8.61265 12.8269ZM9.86221 11.6837L9.8755 10.8861H10.5136C10.238 11.0983 10.0151 11.3713 9.86221 11.6837Z" fill="white" stroke="#BD6B00" stroke-width="0.0664662"/>
<path fill-rule="evenodd" clip-rule="evenodd" d="M8.67908 12.0161C8.67908 12.1889 8.87848 12.1224 8.87848 12.0294V11.285C8.87848 11.152 9.19751 11.1786 9.19751 11.2717V12.0693C9.19751 12.2022 9.4235 12.1889 9.41021 12.0693V11.1387C9.41021 10.8463 8.67908 10.8596 8.67908 11.1255V12.0161ZM8.67908 13.7841H9.43679V14.7146H8.67908V13.7841Z" stroke="#BD6B00" stroke-width="0.0664662"/>
<path fill-rule="evenodd" clip-rule="evenodd" d="M9.15756 14.1829H9.42343V14.3158H9.15756V14.1829ZM8.6923 14.1829H8.95816V14.3158H8.6923V14.1829ZM8.95816 13.7841H9.15756V14.1829H8.95816V13.7841ZM8.95816 14.3158H9.15756V14.7279H8.95816V14.3158ZM4.7442 4.34588C4.79737 5.07701 4.55809 5.4891 4.17259 5.42263C4.06624 5.02384 4.30552 4.74468 4.7442 4.34588ZM3.88014 5.98095C3.53451 5.80814 3.78709 4.45223 3.92002 3.88062C4.01307 4.61174 4.18588 5.64862 3.88014 5.98095Z" fill="white"/>
<path d="M9.15756 14.1829H9.42343V14.3158H9.15756M9.15756 14.1829V14.3158M9.15756 14.1829V13.7841H8.95816V14.1829M9.15756 14.1829H8.95816M9.15756 14.3158H8.95816M9.15756 14.3158V14.7279H8.95816V14.3158M8.95816 14.1829H8.6923V14.3158H8.95816M8.95816 14.1829V14.3158M4.7442 4.34588C4.79737 5.07701 4.55809 5.4891 4.17259 5.42263C4.06624 5.02384 4.30552 4.74468 4.7442 4.34588ZM3.88014 5.98095C3.53451 5.80814 3.78709 4.45223 3.92002 3.88062C4.01307 4.61174 4.18588 5.64862 3.88014 5.98095Z" stroke="#BD6B00" stroke-width="0.0664662"/>
<path fill-rule="evenodd" clip-rule="evenodd" d="M3.99981 6.04735C4.58471 6.24675 5.06327 5.62197 5.20949 4.89084C4.73094 5.5555 3.94664 5.5555 4.0131 6.04735H3.99981ZM3.56113 6.72531C3.10916 6.60567 3.37503 5.17 3.46808 4.59839C3.56113 5.19658 3.88017 6.52591 3.56113 6.72531ZM3.72065 6.68543C3.74724 6.19358 4.23909 6.32651 4.58471 6.06065C4.51825 6.32651 4.31885 6.7519 3.72065 6.68543ZM3.16233 7.35009C2.71036 7.21716 2.97623 5.67514 2.94964 5.03707C3.08257 5.59538 3.50796 7.20387 3.16233 7.35009ZM3.37503 7.28363C3.74724 7.40327 4.23909 7.15069 4.27897 6.71202C3.94664 6.938 3.44149 6.76519 3.37503 7.28363Z" fill="white" stroke="#BD6B00" stroke-width="0.0664662"/>
<path fill-rule="evenodd" clip-rule="evenodd" d="M2.81667 8.02806C2.39129 8.06794 2.57739 6.75191 2.57739 5.52893C2.73691 6.67215 3.17559 7.72232 2.81667 8.02806Z" fill="white" stroke="#BD6B00" stroke-width="0.0664662"/>
<path fill-rule="evenodd" clip-rule="evenodd" d="M2.9762 7.9749C3.26865 8.10784 3.78708 7.88185 3.93331 7.39C3.40158 7.61599 3.05596 7.39 2.9762 7.9749ZM6.37927 5.0238C6.29951 5.67517 6.03364 6.04738 5.64814 5.98092C5.54179 5.58212 5.86083 5.31626 6.37927 5.0238ZM5.3424 6.67217C5.99376 6.76522 6.21975 6.27337 6.67172 5.622C6.04694 6.07397 5.31581 6.15373 5.3424 6.68546V6.67217Z" fill="white" stroke="#BD6B00" stroke-width="0.0664662"/>
<path fill-rule="evenodd" clip-rule="evenodd" d="M5.14305 6.60573C4.79743 6.18034 5.14305 5.63532 5.40892 5.18335C5.35574 5.86131 5.58173 6.24681 5.14305 6.60573ZM5.01012 7.31027C4.95695 6.88489 5.67478 6.79183 5.99382 6.56585C5.87418 6.80513 5.72795 7.4565 4.99683 7.31027H5.01012Z" fill="white" stroke="#BD6B00" stroke-width="0.0664662"/>
<path fill-rule="evenodd" clip-rule="evenodd" d="M4.85061 7.31027C4.35876 7.2571 4.55816 6.41962 4.91707 5.96765C4.77085 6.60573 5.18294 7.04441 4.85061 7.31027Z" fill="white" stroke="#BD6B00" stroke-width="0.0664662"/>
<path fill-rule="evenodd" clip-rule="evenodd" d="M4.47844 8.01484C3.92013 7.74897 4.27905 7.05772 4.47844 6.64563C4.39869 7.19065 4.85066 7.60274 4.47844 8.00154V8.01484Z" fill="white" stroke="#BD6B00" stroke-width="0.0664662"/>
<path fill-rule="evenodd" clip-rule="evenodd" d="M4.58476 7.93502C4.87721 8.33382 5.44882 7.82868 5.56846 7.24377C5.07661 7.65587 4.7044 7.5894 4.58476 7.94832V7.93502ZM3.30861 10.6336C3.25543 10.0619 3.68082 9.03836 3.37507 8.48005C3.33519 8.40029 3.46813 8.20089 3.56118 8.32053C3.69411 8.51993 3.82704 9.07824 3.89351 8.86555C3.95998 8.65286 3.95998 8.25406 4.15937 8.1743C4.29231 8.13442 4.46512 8.09454 4.41195 8.30723C4.35877 8.49334 4.25243 8.7592 4.37207 8.7725C4.43853 8.7725 4.63793 8.50663 4.81074 8.3737C4.94368 8.26735 5.15637 8.45346 4.94368 8.61298C4.3056 9.14471 3.68082 9.39728 3.30861 10.6336ZM2.15209 19.2077C2.07233 19.2077 1.97928 19.1678 2.07233 19.2875C2.83005 20.218 3.04274 20.4839 4.14608 20.3509C5.24942 20.2047 5.51528 19.8989 6.29959 19.4603C6.75986 19.2246 7.29369 19.1769 7.78843 19.3273C8.00112 19.3938 8.13405 19.3938 7.97453 19.2343C7.81502 19.0748 7.6422 18.8754 7.4428 18.7291C6.94431 18.4036 6.34237 18.2757 5.75456 18.3702C4.95697 18.5032 4.27901 19.0216 3.46812 19.221C3.03383 19.3087 2.58638 19.3087 2.15209 19.221V19.2077ZM8.50626 20.8694C8.6392 20.8959 8.73225 21.1618 8.81201 20.989C8.91836 20.6833 8.8386 20.4573 8.70566 20.4706C8.54614 20.5104 8.29357 20.8694 8.50626 20.8694Z" fill="white" stroke="#BD6B00" stroke-width="0.0664662"/>
<path fill-rule="evenodd" clip-rule="evenodd" d="M1.63367 10.1949C1.47415 10.0176 1.51846 9.93346 1.7666 9.94232C1.95271 9.94232 2.32492 10.0753 2.47114 9.95561C2.60408 9.86256 2.53761 9.46376 2.60408 9.29095C2.63066 9.17131 2.69713 9.02509 2.86994 9.26436C3.3485 10.0354 3.9334 10.9659 4.19927 11.8698C4.3322 12.375 4.19927 13.1726 3.7473 13.7043C3.7473 13.2523 3.58778 12.9466 3.38838 12.5611C3.12251 12.0692 2.17869 10.7 1.63367 10.1816V10.1949Z" fill="white"/>
<path fill-rule="evenodd" clip-rule="evenodd" d="M3.61436 14.2361C4.14609 14.2361 4.23914 13.5316 4.23914 13.3322C3.97328 13.3853 3.52131 13.824 3.61436 14.2361ZM8.20053 21.1353C8.57274 21.215 8.55945 20.3111 8.17394 19.9256C8.34676 20.5105 7.90808 21.0422 8.18724 21.122L8.20053 21.1353ZM8.04101 21.122C8.0676 21.5474 6.97755 21.0688 6.71169 20.7232C7.34976 21.0024 8.01442 20.7764 8.04101 21.122ZM7.57575 20.5105C7.61563 20.9226 6.64522 20.5504 6.33948 20.2313C6.99085 20.444 7.53587 20.1649 7.57575 20.4972V20.5105ZM7.74856 20.5637C8.13407 20.6567 8.0676 19.7129 7.69539 19.3939C7.88149 20.0187 7.45611 20.4706 7.74856 20.5637ZM7.34976 19.9921C7.73527 20.0851 7.50928 19.2742 7.23013 18.9552C7.2833 19.5401 7.09719 19.9522 7.36306 19.9921H7.34976ZM7.15037 19.9921C7.19025 20.4175 6.43253 20.0984 6.14008 19.6863C6.77815 19.8857 7.11049 19.6464 7.15037 19.9921ZM6.95097 19.6597C7.19025 19.4869 6.93767 19.0217 6.45911 19.0483C6.51229 19.3274 6.67181 19.8326 6.95097 19.6597ZM8.81202 21.6138C8.82531 22.0392 7.74856 21.8265 7.40294 21.3746C8.09419 21.5075 8.77214 21.2682 8.79873 21.6138H8.81202ZM4.50501 20.8428C4.54489 21.2682 3.36179 20.7897 3.06934 20.3909C3.69412 20.6036 4.46513 20.4972 4.50501 20.8428ZM5.22284 21.0157C5.47542 20.8428 4.97027 20.3909 4.55818 20.2845C4.61135 20.5637 4.95698 21.1885 5.22284 21.0289V21.0157ZM5.3026 21.3214C5.32919 21.7069 4.03974 21.4942 3.70741 21.1353C4.81075 21.3347 5.26272 20.9891 5.3026 21.3214Z" fill="white" stroke="#BD6B00" stroke-width="0.0664662"/>
<path fill-rule="evenodd" clip-rule="evenodd" d="M5.91409 21.574C6.04702 21.9329 4.81075 21.8398 4.37207 21.6404C5.07661 21.6404 5.80774 21.3214 5.91409 21.574Z" fill="white" stroke="#BD6B00" stroke-width="0.0664662"/>
<path fill-rule="evenodd" clip-rule="evenodd" d="M6.48572 21.8398C6.61865 22.1589 5.47543 22.1589 4.91711 21.9728C5.66154 21.9728 6.35279 21.5208 6.48572 21.8398ZM7.32319 22.0126C7.53588 22.3981 6.3129 22.4247 5.9274 22.2386C6.61865 22.1456 7.15038 21.7069 7.32319 22.0126ZM5.90081 21.3613C5.51531 21.6006 5.5419 20.8827 5.23615 20.3909C5.71471 20.8295 6.16668 21.1353 5.90081 21.3613Z" fill="white" stroke="#BD6B00" stroke-width="0.0664662"/>
<path fill-rule="evenodd" clip-rule="evenodd" d="M6.59201 21.6271C6.27297 21.9062 6.00711 20.9225 5.71466 20.3642C6.19321 20.8959 6.88446 21.3878 6.59201 21.6138V21.6271ZM7.49595 21.8929C7.23009 22.212 6.43249 20.9624 6.14004 20.2977C6.57872 20.8162 7.70865 21.6271 7.49595 21.8929ZM6.72494 22.85C6.59201 23.3286 4.57144 22.3981 4.33216 21.9062C5.50196 22.5177 6.75153 22.3848 6.72494 22.8367V22.85ZM0.25113 13.0396C0.197957 12.9732 0.0650249 13.0396 0.0916114 13.1858C0.131491 13.3852 0.423943 14.4088 0.929087 14.7544C1.288 15.0203 3.18894 15.4324 4.03971 15.6185C4.5094 15.7071 4.90377 15.942 5.22281 16.3231C5.11366 15.8819 4.98053 15.447 4.82401 15.0203C4.66449 14.6215 4.23911 14.1961 3.78714 14.1828C2.97625 14.143 1.91279 14.0765 1.12849 13.7442C0.773235 13.5944 0.465379 13.3508 0.237838 13.0396H0.25113Z" fill="white" stroke="#BD6B00" stroke-width="0.0664662"/>
<path fill-rule="evenodd" clip-rule="evenodd" d="M4.94363 17.0941C5.2095 17.2803 5.48865 16.6023 5.16962 15.9509C5.15632 16.5757 4.66447 16.7884 4.94363 17.0941Z" fill="white" stroke="#BD6B00" stroke-width="0.0664662"/>
<path fill-rule="evenodd" clip-rule="evenodd" d="M5.19625 17.7189C5.55516 17.8252 5.66151 17.1872 5.43553 16.682C5.47541 17.227 4.86392 17.5594 5.19625 17.7189Z" fill="white" stroke="#BD6B00" stroke-width="0.0664662"/>
<path fill-rule="evenodd" clip-rule="evenodd" d="M5.47537 18.2241C5.821 18.3969 5.94063 17.7455 5.70136 17.2803C5.72794 17.8785 5.20951 18.0646 5.47537 18.2108V18.2241Z" fill="white" stroke="#BD6B00" stroke-width="0.0664662"/>
<path fill-rule="evenodd" clip-rule="evenodd" d="M5.32921 18.2639C5.19627 18.6627 4.39868 17.905 4.26575 17.4929C4.7576 17.9848 5.42226 17.9183 5.32921 18.2506V18.2639Z" fill="white" stroke="#BD6B00" stroke-width="0.0664662"/>
<path fill-rule="evenodd" clip-rule="evenodd" d="M4.97027 17.6392C4.81075 18.038 3.81375 16.9745 3.58777 16.4827C4.07962 16.9745 5.07661 17.3467 4.97027 17.6259V17.6392Z" fill="white" stroke="#BD6B00" stroke-width="0.0664662"/>
<path fill-rule="evenodd" clip-rule="evenodd" d="M4.77089 17.0143C4.61137 17.4796 3.53461 16.2433 3.21558 15.8047C3.74731 16.2832 4.89053 16.682 4.77089 17.0143ZM4.73101 16.5624C5.1298 16.4826 4.71771 16.1636 4.23916 15.6451C4.22586 16.1902 4.30562 16.5757 4.73101 16.5624Z" fill="white" stroke="#BD6B00" stroke-width="0.0664662"/>
<path fill-rule="evenodd" clip-rule="evenodd" d="M4.07962 16.2433C4.25244 16.0705 3.9334 15.9908 3.5346 15.5388C3.46813 15.8445 3.90681 16.4028 4.09292 16.2433H4.07962ZM5.94068 18.2639C6.15337 18.3968 6.2863 17.9582 6.03373 17.5727C5.96727 17.998 5.75457 18.1044 5.94068 18.2639ZM1.39439 15.5654C0.955711 15.8312 0.251169 14.7678 0.0650635 14.3291C0.450568 14.8342 1.47415 15.2862 1.39439 15.5654Z" fill="white" stroke="#BD6B00" stroke-width="0.0664662"/>
<path fill-rule="evenodd" clip-rule="evenodd" d="M1.7798 16.1768C1.52723 16.4427 0.756221 15.7116 0.490356 15.3394C0.889154 15.6983 1.88615 15.7382 1.7798 16.1768Z" fill="white" stroke="#BD6B00" stroke-width="0.0664662"/>
<path fill-rule="evenodd" clip-rule="evenodd" d="M2.19199 16.7352C2.11223 17.1074 0.995601 16.2699 0.729736 15.8711C1.20829 16.3364 2.27175 16.2965 2.19199 16.7352Z" fill="white" stroke="#BD6B00" stroke-width="0.0664662"/>
<path fill-rule="evenodd" clip-rule="evenodd" d="M2.01916 17.1473C1.84634 17.4796 0.92911 16.6421 0.703125 16.2167C1.27473 16.6953 2.16538 16.8149 2.03245 17.1473H2.01916ZM1.55389 15.5122C1.83305 15.2064 1.71341 15.0602 1.50072 14.5817C1.39437 15.0735 1.22156 15.2729 1.55389 15.5122ZM1.9394 16.0838C2.47113 16.1104 1.9394 15.4723 1.80646 14.9273C1.85964 15.5388 1.67353 16.0306 1.9394 16.0838Z" fill="white" stroke="#BD6B00" stroke-width="0.0664662"/>
<path fill-rule="evenodd" clip-rule="evenodd" d="M2.27171 16.5889C2.63062 16.5092 2.53757 15.9907 2.24512 15.366C2.31159 16.0439 1.93937 16.4294 2.27171 16.5889ZM2.13877 17.6125C2.00584 18.0113 0.968967 17.0808 0.809448 16.7086C1.34118 17.1606 2.23183 17.3068 2.13877 17.6125Z" fill="white" stroke="#BD6B00" stroke-width="0.0664662"/>
<path fill-rule="evenodd" clip-rule="evenodd" d="M2.76355 18.2506C2.61732 18.6494 1.52728 17.8253 1.19495 17.3733C1.84632 17.905 2.84331 17.8518 2.76355 18.2506Z" fill="white" stroke="#BD6B00" stroke-width="0.0664662"/>
<path fill-rule="evenodd" clip-rule="evenodd" d="M3.40166 18.902C3.22885 19.4737 2.08563 18.5564 1.7533 18.1044C2.47113 18.6628 3.48142 18.5032 3.40166 18.902ZM2.3382 17.4398C2.64394 17.586 2.76358 16.722 2.59077 16.0972C2.59077 16.7618 1.96599 17.267 2.32491 17.4265L2.3382 17.4398Z" fill="white" stroke="#BD6B00" stroke-width="0.0664662"/>
<path fill-rule="evenodd" clip-rule="evenodd" d="M2.85661 18.131C3.22882 18.2373 3.12248 17.2935 2.79015 16.6687C2.75027 17.2935 2.4844 17.8651 2.85661 18.131ZM3.52128 18.7823C3.92007 18.7956 3.65421 17.9714 3.30858 17.5062C3.36176 18.1044 3.17565 18.7026 3.52128 18.7823ZM2.79015 19.128C2.65721 19.3407 2.36476 18.9551 1.85962 18.6627C2.31159 18.7956 2.84332 18.9286 2.79015 19.128ZM2.55087 12.1224C2.94967 11.83 2.64392 11.2982 2.55087 10.7931C2.41794 11.2716 2.0989 11.9097 2.55087 12.1224ZM2.55087 12.827C1.95267 12.7605 2.04572 12.0161 2.01914 11.5375C2.20524 12.1889 2.6838 12.2952 2.55087 12.8403V12.827ZM2.63063 12.7339C3.12248 12.7073 3.09589 12.149 3.12248 11.5907C2.86991 12.1091 2.59075 12.1889 2.63063 12.7339Z" fill="white" stroke="#BD6B00" stroke-width="0.0664662"/>
<path fill-rule="evenodd" clip-rule="evenodd" d="M2.6173 13.4251C2.2185 13.465 2.0324 13.0795 1.95264 12.4946C2.31155 13.0396 2.63059 12.8668 2.6173 13.4251ZM2.75023 13.3852C3.24208 13.4517 3.14903 12.8801 3.14903 12.4547C2.98951 12.8535 2.59071 12.9864 2.75023 13.3852Z" fill="white" stroke="#BD6B00" stroke-width="0.0664662"/>
<path fill-rule="evenodd" clip-rule="evenodd" d="M1.97925 13.146C2.01913 13.5182 2.25841 14.1563 2.64391 14.0101C2.79014 13.5581 2.29829 13.465 1.97925 13.146Z" fill="white" stroke="#BD6B00" stroke-width="0.0664662"/>
<path fill-rule="evenodd" clip-rule="evenodd" d="M2.75028 14.0499C2.59076 13.7309 3.14908 13.5581 3.25542 13.1327C3.32189 13.7442 3.26872 14.143 2.75028 14.0632V14.0499ZM1.16838 10.1683C1.47413 9.84925 1.20826 9.31752 1.11521 8.81238C0.982278 9.29093 0.78288 9.92901 1.16838 10.1683ZM1.16838 10.7798C0.636655 10.8462 0.503722 9.7562 0.437256 9.27764C0.623361 9.92901 1.23485 10.2082 1.16838 10.7931V10.7798ZM1.27473 10.7798C1.64694 10.5804 1.56718 10.155 1.67353 9.84925C1.43425 10.2348 1.19497 10.2879 1.27473 10.7798Z" fill="white" stroke="#BD6B00" stroke-width="0.0664662"/>
<path fill-rule="evenodd" clip-rule="evenodd" d="M1.15504 11.4976C0.610017 11.5375 0.277685 10.3278 0.251099 9.84924C0.423911 10.5006 1.2348 10.8462 1.16833 11.4976H1.15504ZM1.27468 11.471C1.80641 11.3514 1.73994 11.0058 1.66018 10.4607C1.48737 11.019 1.19492 10.8994 1.27468 11.471Z" fill="white" stroke="#BD6B00" stroke-width="0.0664662"/>
<path fill-rule="evenodd" clip-rule="evenodd" d="M1.15513 12.189C0.543645 12.2953 0.583525 11.3116 0.0916748 10.6071C0.517059 11.1388 1.28807 11.8034 1.15513 12.189ZM1.28807 12.1491C1.76662 12.1757 1.8198 11.4711 1.79321 11.1787C1.67357 11.4711 1.12855 11.737 1.30136 12.1624L1.28807 12.1491Z" fill="white" stroke="#BD6B00" stroke-width="0.0664662"/>
<path fill-rule="evenodd" clip-rule="evenodd" d="M0.197998 11.4312C0.423983 12.1889 0.756314 12.9466 1.15511 12.8934C1.35451 12.4547 0.769608 12.4016 0.197998 11.4312Z" fill="white" stroke="#BD6B00" stroke-width="0.0664662"/>
<path fill-rule="evenodd" clip-rule="evenodd" d="M1.30124 12.7738C1.14172 12.4415 1.70004 12.282 1.80639 11.8566C1.87285 12.4681 1.81968 12.8669 1.30124 12.7738ZM0.357422 12.2952C0.689753 12.9732 0.835979 13.7575 1.28795 13.6379C1.46076 13.1061 0.782806 12.9998 0.357422 12.2952Z" fill="white" stroke="#BD6B00" stroke-width="0.0664662"/>
<path fill-rule="evenodd" clip-rule="evenodd" d="M1.38106 13.5183C1.18166 13.146 1.73998 13.0264 1.88621 12.5346C1.95267 13.1726 1.88621 13.6379 1.38106 13.505V13.5183ZM2.33818 8.93208C2.65721 9.01184 3.00284 8.65293 2.8832 8.1079C2.51099 8.18766 2.35147 8.53329 2.33818 8.93208ZM1.28801 8.65292C1.3146 8.81244 1.51399 8.82574 1.44753 8.59975C1.39473 8.45372 1.39473 8.29381 1.44753 8.14778C1.50739 7.94835 1.50739 7.73573 1.44753 7.53629C1.39436 7.40336 1.20825 7.48312 1.28801 7.58946C1.36777 7.69581 1.38106 7.96168 1.3146 8.08132C1.25256 8.27628 1.2437 8.46682 1.28801 8.65292ZM4.33216 10.7798C4.19923 10.9527 3.94666 10.833 4.14606 10.5804C4.30558 10.381 4.54486 10.2082 4.54486 9.99554C4.57144 9.72968 4.71767 9.33088 4.86389 9.18465C5.01012 9.03843 5.18293 9.23783 5.02341 9.34417C4.8506 9.45052 4.73096 9.92908 4.74425 10.1152C4.73096 10.381 4.47839 10.5804 4.33216 10.7798ZM3.93337 10.4741C3.80043 10.6602 3.61433 10.5406 3.72067 10.2481C3.81373 10.0487 3.82702 9.78285 3.93337 9.63663C4.09288 9.41064 4.33216 9.22454 4.47839 9.07831C4.63791 8.94538 4.74425 9.07831 4.61132 9.21124C4.44837 9.374 4.30147 9.55206 4.17264 9.74297C3.98654 10.0354 4.0663 10.2747 3.93337 10.4741ZM1.84633 9.51699C1.83303 9.78285 2.04573 9.83602 2.03243 9.46381C2.03243 9.06502 1.73998 8.6928 1.8995 8.09461C2.00585 7.80216 2.00585 7.25713 1.95267 6.97798C1.8995 6.69882 1.68681 6.87163 1.77986 7.09761C1.85962 7.36348 1.76657 7.84204 1.7001 8.09461C1.5007 8.81244 1.85962 9.15807 1.83303 9.51699H1.84633ZM2.41794 8.05473C2.39135 8.3073 2.17866 8.32059 2.24512 7.98826C2.2983 7.73126 2.2983 7.49641 2.24512 7.28372C2.16536 7.00456 2.19195 6.526 2.24512 6.32661C2.31159 6.11391 2.51099 6.23355 2.43123 6.39307C2.33926 6.64452 2.32535 6.91789 2.39135 7.17737C2.47111 7.44324 2.45782 7.81545 2.41794 8.06802V8.05473ZM0.344188 12.9865C0.450534 13.1062 0.610053 13.0264 0.477121 12.8536C0.344188 12.7207 0.384069 12.6941 0.30431 12.5346C0.22455 12.3484 0.237842 12.2554 0.144789 12.1358C0.0517366 12.0028 -0.0679027 12.1358 0.0118568 12.2288C0.118203 12.3617 0.0916163 12.4415 0.144789 12.5611C0.277722 12.7605 0.237842 12.8669 0.344188 12.9865ZM3.05601 16.2567C3.21569 16.3498 3.35161 16.4787 3.45309 16.6333C3.55457 16.7878 3.61886 16.9638 3.64091 17.1473C3.65482 17.4783 3.74586 17.8015 3.90678 18.0911C3.64091 18.0247 3.50798 17.5993 3.4681 17.1872C3.42822 16.7618 3.20224 16.589 3.0693 16.2567H3.05601ZM3.73397 17.041C3.95995 17.4531 4.2657 17.6126 4.29228 17.9183C4.31887 18.2772 4.34546 18.2905 4.43851 18.6362C4.17264 18.5697 4.10618 18.5431 4.03971 18.0114C3.99983 17.6392 3.69409 17.3866 3.73397 17.041Z" fill="white" stroke="#BD6B00" stroke-width="0.0664662"/>
<path fill-rule="evenodd" clip-rule="evenodd" d="M10.7262 20.8693C10.8591 21.1086 10.992 21.4675 11.2579 21.4011C11.2579 21.2283 10.9787 21.0953 10.7262 20.8693ZM11.125 20.9491C11.6168 21.1618 12.0555 21.1086 12.1219 21.4277C11.6434 21.4808 11.4573 21.2947 11.1117 20.9491H11.125ZM8.98474 19.2609C9.31505 19.5176 9.5492 19.8782 9.6494 20.2844C9.75656 20.6519 9.91785 21.0014 10.128 21.3213C9.78224 21.089 9.53205 20.7397 9.42342 20.3376C9.33037 19.9388 9.21073 19.6331 8.98474 19.2742V19.2609ZM9.39683 19.2609C9.76904 19.5533 10.1147 19.8989 10.221 20.311C10.3274 20.6965 10.3938 20.989 10.6464 21.3745C10.2476 21.1219 10.1014 20.7497 9.98173 20.3376C9.88868 19.9388 9.6494 19.6464 9.39683 19.2742V19.2609ZM10.6198 20.2313C10.6116 20.1978 10.6168 20.1625 10.6341 20.1327C10.6515 20.103 10.6797 20.0811 10.7129 20.0718L11.0585 19.9654C11.1914 19.9255 11.2712 20.0186 11.2712 20.085V20.3509C11.2712 20.4307 11.2402 20.4705 11.1781 20.4705C11.0718 20.4705 10.9654 20.5016 10.8591 20.5636C10.7705 20.6079 10.704 20.5858 10.6597 20.4971L10.6198 20.2313ZM12.0289 20.2313C12.0289 20.1427 12.0023 20.0895 11.9491 20.0718C11.8488 20.028 11.7392 20.0098 11.6301 20.0186C11.5149 20.0186 11.4662 20.0452 11.4839 20.0983V20.3775C11.4839 20.4838 11.4839 20.4838 11.537 20.5104C11.6523 20.5016 11.763 20.5282 11.8694 20.5902C11.9491 20.6256 11.9979 20.5991 12.0156 20.5104L12.0289 20.2313Z" fill="white"/>
<path fill-rule="evenodd" clip-rule="evenodd" d="M17.8647 10.6602C18.0242 10.3943 18.2236 11.0324 18.9016 11.4976C19.2073 11.7103 19.4333 12.2819 19.4333 12.6541C19.4245 12.92 19.4245 13.177 19.4333 13.4252C19.4466 13.5714 19.6194 13.9303 19.4998 14.0233C19.2073 14.236 18.8218 14.7412 18.649 14.914C18.4895 15.0469 18.3566 14.2095 18.2502 13.8505C18.1173 13.4517 18.1705 12.9599 17.8248 12.601C17.5856 12.3351 16.9741 12.0958 17.0272 11.9895L17.8647 10.6602Z" fill="white" stroke="#BD6B00" stroke-width="0.0664662"/>
<path fill-rule="evenodd" clip-rule="evenodd" d="M17.9046 12.7073C17.9574 12.5819 18.0291 12.4653 18.1173 12.3617C18.2017 12.2562 18.3115 12.1739 18.4364 12.1224C18.5597 12.0881 18.6705 12.0188 18.7554 11.923C18.8047 11.8649 18.841 11.7969 18.8617 11.7236V11.4578L18.9016 11.4976C19.2074 11.7103 19.4333 12.2819 19.4333 12.6542V12.9599C19.4156 13.0308 19.389 13.0884 19.3536 13.1327L19.2074 13.2391L18.8484 13.3321C18.7138 13.3921 18.5953 13.4832 18.5028 13.598C18.4068 13.7011 18.3262 13.8175 18.2635 13.9436L18.237 13.8373C18.1306 13.4783 18.1439 13.053 17.8913 12.7073H17.9046Z" fill="#BF0000" stroke="#BD6B00" stroke-width="0.0664662"/>
<path d="M18.8616 11.4445C18.9281 11.8831 18.6755 12.0427 18.4363 12.1224C18.197 12.2155 17.9976 12.468 17.9045 12.7073M19.4598 12.9067C19.3535 13.3055 19.0876 13.2523 18.8484 13.3321C18.6091 13.4119 18.3565 13.7309 18.2502 13.9702" stroke="#BD6B00" stroke-width="0.0664662"/>
<path fill-rule="evenodd" clip-rule="evenodd" d="M18.0907 10.3943L17.9578 10.3146L15.6049 14.2893L15.7378 14.369L18.0907 10.3943Z" fill="white" stroke="#BD6B00" stroke-width="0.0664662"/>
<path fill-rule="evenodd" clip-rule="evenodd" d="M17.8381 10.2347C17.8381 10.3052 17.8662 10.3729 17.916 10.4227C17.9659 10.4726 18.0335 10.5006 18.104 10.5006C18.1745 10.5006 18.2421 10.4726 18.292 10.4227C18.3419 10.3729 18.3699 10.3052 18.3699 10.2347C18.3699 10.1642 18.3419 10.0966 18.292 10.0467C18.2421 9.99688 18.1745 9.96887 18.104 9.96887C18.0335 9.96887 17.9659 9.99688 17.916 10.0467C17.8662 10.0966 17.8381 10.1642 17.8381 10.2347ZM15.8176 7.04436H14.8605V7.25705H15.8176V7.04436ZM15.8176 7.45645H14.8605V9.29092H15.8176V7.45645ZM15.8707 6.79178H14.8073C14.7807 6.43287 15.1396 6.04736 15.339 6.04736C15.5517 6.06066 15.884 6.44616 15.8707 6.79178Z" fill="white" stroke="#BD6B00" stroke-width="0.0664662"/>
<path fill-rule="evenodd" clip-rule="evenodd" d="M13.1722 6.57917C13.3716 6.65893 13.5312 6.88492 13.6242 7.15079C13.7173 7.41665 13.7571 7.72239 13.704 7.96167C13.6951 8.05029 13.6729 8.11676 13.6375 8.16107C13.6109 8.20538 13.5843 8.22754 13.5577 8.22754C13.5134 8.22754 13.4824 8.21424 13.4647 8.18766L13.4381 8.08131C13.4558 7.81545 13.4425 7.57617 13.3982 7.36348C13.336 7.12869 13.1953 6.92228 12.9994 6.77857C12.964 6.75199 12.9418 6.72097 12.933 6.68552L12.9728 6.59247C13.0349 6.54816 13.1013 6.54373 13.1722 6.57917ZM13.1457 6.63235C13.0925 6.61462 13.0482 6.61905 13.0127 6.64564L12.9994 6.67223C12.9994 6.68109 13.0127 6.69881 13.0393 6.7254C13.2452 6.87356 13.3914 7.09044 13.4514 7.33689C13.5058 7.58111 13.5193 7.83268 13.4913 8.08131L13.5179 8.16107C13.5179 8.16107 13.5179 8.17436 13.5445 8.16107L13.5976 8.12119L13.6508 7.96167C13.6862 7.70467 13.6552 7.4388 13.5577 7.16408C13.4603 6.90707 13.3273 6.72983 13.1589 6.63235H13.1457Z" fill="#BD6B00"/>
<path fill-rule="evenodd" clip-rule="evenodd" d="M12.8266 6.83173C13.0304 6.93807 13.1633 7.12418 13.2254 7.39004C13.2943 7.64566 13.3079 7.91305 13.2652 8.17435C13.2209 8.35159 13.15 8.44021 13.0526 8.44021C13.0082 8.45794 12.9728 8.44464 12.9462 8.40033C12.9196 8.35602 12.9108 8.31171 12.9196 8.2674C12.9728 8.04584 12.9861 7.81986 12.9595 7.58944C12.9241 7.35903 12.8266 7.17735 12.6671 7.04442C12.6227 7.00897 12.6006 6.97352 12.6006 6.93807L12.6272 6.85831C12.6892 6.814 12.7557 6.80514 12.8266 6.83173ZM12.8 6.89819C12.7468 6.88047 12.7025 6.88047 12.6671 6.89819L12.6538 6.93807L12.6936 6.99125C12.8685 7.14015 12.9822 7.34849 13.0127 7.57615C13.0481 7.82429 13.0393 8.05471 12.9861 8.2674V8.37375L13.0526 8.38704C13.0924 8.38704 13.1855 8.32057 13.2121 8.16105C13.252 7.93507 13.2387 7.64262 13.1722 7.40334C13.1013 7.14633 12.9772 6.97795 12.8 6.89819Z" fill="#BD6B00"/>
<path fill-rule="evenodd" clip-rule="evenodd" d="M15.8707 10.7798H14.8072V12.242H15.8707V10.7798ZM15.8042 13.0928H14.7806V13.4118H15.8042V13.0928ZM15.8308 13.6378H14.7673V14.7943H15.8308V13.6378ZM15.9105 15.0336H14.754V15.685H15.9105V15.0336ZM15.7643 12.8269H14.8338L14.6477 12.5079H15.9238L15.7643 12.8269ZM14.5147 11.6837L14.5014 10.8861H13.8634C14.139 11.0983 14.3619 11.3713 14.5147 11.6837Z" fill="white" stroke="#BD6B00" stroke-width="0.0664662"/>
<path fill-rule="evenodd" clip-rule="evenodd" d="M15.6979 12.0161C15.6979 12.1889 15.4985 12.1224 15.4985 12.0294V11.285C15.4985 11.152 15.1794 11.1786 15.1794 11.2717V12.0693C15.1794 12.2022 14.9535 12.1889 14.9667 12.0693V11.1387C14.9667 10.8463 15.6979 10.8596 15.6979 11.1255V12.0161ZM15.6979 13.7841H14.9402V14.7146H15.6979V13.7841Z" stroke="#BD6B00" stroke-width="0.0664662"/>
<path fill-rule="evenodd" clip-rule="evenodd" d="M15.2194 14.1829H14.9535V14.3158H15.2194V14.1829ZM15.6847 14.1829H15.4188V14.3158H15.6847V14.1829ZM15.4188 13.7841H15.2194V14.1829H15.4188V13.7841ZM15.4188 14.3158H15.2194V14.7279H15.4188V14.3158ZM19.6328 4.34588C19.5796 5.07701 19.8189 5.4891 20.2044 5.42263C20.3107 5.02384 20.0714 4.74468 19.6328 4.34588ZM20.4968 5.98095C20.8424 5.80814 20.5899 4.45223 20.4569 3.88062C20.3639 4.61174 20.1911 5.64862 20.4968 5.98095Z" fill="white"/>
<path d="M15.2194 14.1829H14.9535V14.3158H15.2194M15.2194 14.1829V14.3158M15.2194 14.1829V13.7841H15.4188V14.1829M15.2194 14.1829H15.4188M15.2194 14.3158H15.4188M15.2194 14.3158V14.7279H15.4188V14.3158M15.4188 14.1829H15.6847V14.3158H15.4188M15.4188 14.1829V14.3158M19.6328 4.34588C19.5796 5.07701 19.8189 5.4891 20.2044 5.42263C20.3107 5.02384 20.0714 4.74468 19.6328 4.34588ZM20.4968 5.98095C20.8424 5.80814 20.5899 4.45223 20.4569 3.88062C20.3639 4.61174 20.1911 5.64862 20.4968 5.98095Z" stroke="#BD6B00" stroke-width="0.0664662"/>
<path fill-rule="evenodd" clip-rule="evenodd" d="M20.3771 6.04735C19.7922 6.24675 19.3137 5.62197 19.1675 4.89084C19.646 5.5555 20.4303 5.5555 20.3639 6.04735H20.3771ZM20.8158 6.72531C21.2678 6.60567 21.0019 5.17 20.9089 4.59839C20.8158 5.19658 20.4968 6.52591 20.8158 6.72531ZM20.6563 6.68543C20.6297 6.19358 20.1379 6.32651 19.7922 6.06065C19.8587 6.32651 20.0581 6.7519 20.6563 6.68543ZM21.2146 7.35009C21.6666 7.21716 21.4007 5.67514 21.4273 5.03707C21.2944 5.59538 20.869 7.20387 21.2146 7.35009ZM21.0019 7.28363C20.6297 7.40327 20.1379 7.15069 20.098 6.71202C20.4303 6.938 20.9355 6.76519 21.0019 7.28363Z" fill="white" stroke="#BD6B00" stroke-width="0.0664662"/>
<path fill-rule="evenodd" clip-rule="evenodd" d="M21.5603 8.02806C21.9857 8.06794 21.7996 6.75191 21.7996 5.52893C21.64 6.67215 21.2014 7.72232 21.5603 8.02806Z" fill="white" stroke="#BD6B00" stroke-width="0.0664662"/>
<path fill-rule="evenodd" clip-rule="evenodd" d="M21.4008 7.9749C21.1083 8.10784 20.5899 7.88185 20.4436 7.39C20.9754 7.61599 21.321 7.39 21.4008 7.9749ZM17.9977 5.0238C18.0774 5.67517 18.3433 6.04738 18.7288 5.98092C18.8352 5.58212 18.5161 5.31626 17.9977 5.0238ZM19.0346 6.67217C18.3832 6.76522 18.1572 6.27337 17.7052 5.622C18.33 6.07397 19.0611 6.15373 19.0346 6.68546V6.67217Z" fill="white" stroke="#BD6B00" stroke-width="0.0664662"/>
<path fill-rule="evenodd" clip-rule="evenodd" d="M19.2339 6.60573C19.5795 6.18034 19.2339 5.63532 18.968 5.18335C19.0212 5.86131 18.7952 6.24681 19.2339 6.60573ZM19.3668 7.31027C19.42 6.88489 18.7022 6.79183 18.3831 6.56585C18.5028 6.80513 18.649 7.4565 19.3801 7.31027H19.3668Z" fill="white" stroke="#BD6B00" stroke-width="0.0664662"/>
<path fill-rule="evenodd" clip-rule="evenodd" d="M19.5263 7.31027C20.0182 7.2571 19.8188 6.41962 19.4599 5.96765C19.6061 6.60573 19.194 7.04441 19.5263 7.31027Z" fill="white" stroke="#BD6B00" stroke-width="0.0664662"/>
<path fill-rule="evenodd" clip-rule="evenodd" d="M19.8985 8.01484C20.4568 7.74897 20.0979 7.05772 19.8985 6.64563C19.9783 7.19065 19.5263 7.60274 19.8985 8.00154V8.01484Z" fill="white" stroke="#BD6B00" stroke-width="0.0664662"/>
<path fill-rule="evenodd" clip-rule="evenodd" d="M19.7922 7.93502C19.4997 8.33382 18.9281 7.82868 18.8085 7.24377C19.3003 7.65587 19.6726 7.5894 19.7922 7.94832V7.93502ZM21.0683 10.6336C21.1215 10.0619 20.6961 9.03836 21.0019 8.48005C21.0418 8.40029 20.9088 8.20089 20.8158 8.32053C20.6828 8.51993 20.5499 9.07824 20.4834 8.86555C20.417 8.65286 20.417 8.25406 20.2176 8.1743C20.0846 8.13442 19.9118 8.09454 19.965 8.30723C20.0182 8.49334 20.1245 8.7592 20.0049 8.7725C19.9384 8.7725 19.739 8.50663 19.5662 8.3737C19.4333 8.26735 19.2206 8.45346 19.4333 8.61298C20.0714 9.14471 20.6961 9.39728 21.0683 10.6336ZM22.2249 19.2077C22.3046 19.2077 22.3977 19.1678 22.3046 19.2875C21.5469 20.218 21.3342 20.4839 20.2309 20.3509C19.1275 20.2047 18.8617 19.8989 18.0774 19.4603C17.6171 19.2246 17.0833 19.1769 16.5885 19.3273C16.3758 19.3938 16.2429 19.3938 16.4024 19.2343C16.5619 19.0748 16.7347 18.8754 16.9341 18.7291C17.4326 18.4036 18.0346 18.2757 18.6224 18.3702C19.42 18.5032 20.0979 19.0216 20.9088 19.221C21.3431 19.3087 21.7906 19.3087 22.2249 19.221V19.2077ZM15.8707 20.8694C15.7378 20.8959 15.6447 21.1618 15.5649 20.989C15.4586 20.6833 15.5384 20.4573 15.6713 20.4706C15.8308 20.5104 16.0834 20.8694 15.8707 20.8694Z" fill="white" stroke="#BD6B00" stroke-width="0.0664662"/>
<path fill-rule="evenodd" clip-rule="evenodd" d="M22.7433 10.1949C22.9028 10.0176 22.8585 9.93346 22.6104 9.94232C22.4242 9.94232 22.052 10.0753 21.9058 9.95561C21.7729 9.86256 21.8393 9.46376 21.7729 9.29095C21.7463 9.17131 21.6798 9.02509 21.507 9.26436C21.0285 10.0354 20.4436 10.9659 20.1777 11.8698C20.0448 12.375 20.1777 13.1726 20.6297 13.7043C20.6297 13.2523 20.7892 12.9466 20.9886 12.5611C21.2544 12.0692 22.1983 10.7 22.7433 10.1816V10.1949Z" fill="white"/>
<path fill-rule="evenodd" clip-rule="evenodd" d="M20.7626 14.2361C20.2309 14.2361 20.1378 13.5316 20.1378 13.3322C20.4037 13.3853 20.8556 13.824 20.7626 14.2361ZM16.1764 21.1353C15.8042 21.215 15.8175 20.3111 16.203 19.9256C16.0302 20.5105 16.4689 21.0422 16.1897 21.122L16.1764 21.1353ZM16.3359 21.122C16.3094 21.5474 17.3994 21.0688 17.6653 20.7232C17.0272 21.0024 16.3625 20.7764 16.3359 21.122ZM16.8012 20.5105C16.7613 20.9226 17.7317 20.5504 18.0375 20.2313C17.3861 20.444 16.8411 20.1649 16.8012 20.4972V20.5105ZM16.6284 20.5637C16.2429 20.6567 16.3094 19.7129 16.6816 19.3939C16.4955 20.0187 16.9208 20.4706 16.6284 20.5637ZM17.0272 19.9921C16.6417 20.0851 16.8677 19.2742 17.1468 18.9552C17.0937 19.5401 17.2798 19.9522 17.0139 19.9921H17.0272ZM17.2266 19.9921C17.1867 20.4175 17.9444 20.0984 18.2369 19.6863C17.5988 19.8857 17.2665 19.6464 17.2266 19.9921ZM17.426 19.6597C17.1867 19.4869 17.4393 19.0217 17.9178 19.0483C17.8647 19.3274 17.7051 19.8326 17.426 19.6597ZM15.5649 21.6138C15.5516 22.0392 16.6284 21.8265 16.974 21.3746C16.2828 21.5075 15.6048 21.2682 15.5782 21.6138H15.5649ZM19.8719 20.8428C19.8321 21.2682 21.0152 20.7897 21.3076 20.3909C20.6828 20.6036 19.9118 20.4972 19.8719 20.8428ZM19.1541 21.0157C18.9015 20.8428 19.4067 20.3909 19.8188 20.2845C19.7656 20.5637 19.42 21.1885 19.1541 21.0289V21.0157ZM19.0744 21.3214C19.0478 21.7069 20.3372 21.4942 20.6695 21.1353C19.5662 21.3347 19.1142 20.9891 19.0744 21.3214Z" fill="white" stroke="#BD6B00" stroke-width="0.0664662"/>
<path fill-rule="evenodd" clip-rule="evenodd" d="M18.4629 21.574C18.3299 21.9329 19.5662 21.8398 20.0049 21.6404C19.3003 21.6404 18.5692 21.3214 18.4629 21.574Z" fill="white" stroke="#BD6B00" stroke-width="0.0664662"/>
<path fill-rule="evenodd" clip-rule="evenodd" d="M17.8912 21.8398C17.7583 22.1589 18.9015 22.1589 19.4598 21.9728C18.7154 21.9728 18.0242 21.5208 17.8912 21.8398ZM17.0538 22.0126C16.8411 22.3981 18.064 22.4247 18.4496 22.2386C17.7583 22.1456 17.2266 21.7069 17.0538 22.0126ZM18.4761 21.3613C18.8616 21.6006 18.8351 20.8827 19.1408 20.3909C18.6622 20.8295 18.2103 21.1353 18.4761 21.3613Z" fill="white" stroke="#BD6B00" stroke-width="0.0664662"/>
<path fill-rule="evenodd" clip-rule="evenodd" d="M17.7849 21.6271C18.104 21.9062 18.3698 20.9225 18.6623 20.3642C18.1837 20.8959 17.4925 21.3878 17.7849 21.6138V21.6271ZM16.881 21.8929C17.1469 22.212 17.9445 20.9624 18.2369 20.2977C17.7982 20.8162 16.6683 21.6271 16.881 21.8929ZM17.652 22.85C17.7849 23.3286 19.8055 22.3981 20.0448 21.9062C18.875 22.5177 17.6254 22.3848 17.652 22.8367V22.85ZM24.1258 13.0396C24.179 12.9732 24.3119 13.0396 24.2853 13.1858C24.2455 13.3852 23.953 14.4088 23.4479 14.7544C23.0889 15.0203 21.188 15.4324 20.3372 15.6185C19.8676 15.7071 19.4732 15.942 19.1541 16.3231C19.2633 15.8819 19.3964 15.447 19.5529 15.0203C19.7125 14.6215 20.1378 14.1961 20.5898 14.1828C21.4007 14.143 22.4642 14.0765 23.2485 13.7442C23.6037 13.5944 23.9116 13.3508 24.1391 13.0396H24.1258Z" fill="white" stroke="#BD6B00" stroke-width="0.0664662"/>
<path fill-rule="evenodd" clip-rule="evenodd" d="M19.4333 17.0941C19.1675 17.2803 18.8883 16.6023 19.2073 15.9509C19.2206 16.5757 19.7125 16.7884 19.4333 17.0941Z" fill="white" stroke="#BD6B00" stroke-width="0.0664662"/>
<path fill-rule="evenodd" clip-rule="evenodd" d="M19.1807 17.7189C18.8218 17.8252 18.7154 17.1872 18.9414 16.682C18.9015 17.227 19.513 17.5594 19.1807 17.7189Z" fill="white" stroke="#BD6B00" stroke-width="0.0664662"/>
<path fill-rule="evenodd" clip-rule="evenodd" d="M18.9016 18.2241C18.556 18.3969 18.4363 17.7455 18.6756 17.2803C18.649 17.8785 19.1674 18.0646 18.9016 18.2108V18.2241Z" fill="white" stroke="#BD6B00" stroke-width="0.0664662"/>
<path fill-rule="evenodd" clip-rule="evenodd" d="M19.0477 18.2639C19.1807 18.6627 19.9783 17.905 20.1112 17.4929C19.6194 17.9848 18.9547 17.9183 19.0477 18.2506V18.2639Z" fill="white" stroke="#BD6B00" stroke-width="0.0664662"/>
<path fill-rule="evenodd" clip-rule="evenodd" d="M19.4067 17.6392C19.5662 18.038 20.5632 16.9745 20.7892 16.4827C20.2973 16.9745 19.3003 17.3467 19.4067 17.6259V17.6392Z" fill="white" stroke="#BD6B00" stroke-width="0.0664662"/>
<path fill-rule="evenodd" clip-rule="evenodd" d="M19.6061 17.0143C19.7656 17.4796 20.8423 16.2433 21.1614 15.8047C20.6296 16.2832 19.4864 16.682 19.6061 17.0143ZM19.6459 16.5624C19.2471 16.4826 19.6592 16.1636 20.1378 15.6451C20.1511 16.1902 20.0713 16.5757 19.6459 16.5624Z" fill="white" stroke="#BD6B00" stroke-width="0.0664662"/>
<path fill-rule="evenodd" clip-rule="evenodd" d="M20.2973 16.2433C20.1245 16.0705 20.4436 15.9908 20.8424 15.5388C20.9088 15.8445 20.4701 16.4028 20.284 16.2433H20.2973ZM18.4363 18.2639C18.2236 18.3968 18.0906 17.9582 18.3432 17.5727C18.4097 17.998 18.6224 18.1044 18.4363 18.2639ZM22.9826 15.5654C23.4212 15.8312 24.1258 14.7678 24.3119 14.3291C23.9264 14.8342 22.9028 15.2862 22.9826 15.5654Z" fill="white" stroke="#BD6B00" stroke-width="0.0664662"/>
<path fill-rule="evenodd" clip-rule="evenodd" d="M22.5972 16.1768C22.8497 16.4427 23.6207 15.7116 23.8866 15.3394C23.4878 15.6983 22.4908 15.7382 22.5972 16.1768Z" fill="white" stroke="#BD6B00" stroke-width="0.0664662"/>
<path fill-rule="evenodd" clip-rule="evenodd" d="M22.185 16.7352C22.2647 17.1074 23.3814 16.2699 23.6472 15.8711C23.1687 16.3364 22.1052 16.2965 22.185 16.7352Z" fill="white" stroke="#BD6B00" stroke-width="0.0664662"/>
<path fill-rule="evenodd" clip-rule="evenodd" d="M22.3578 17.1473C22.5306 17.4796 23.4478 16.6421 23.6738 16.2167C23.1022 16.6953 22.2116 16.8149 22.3445 17.1473H22.3578ZM22.8231 15.5122C22.5439 15.2064 22.6635 15.0602 22.8762 14.5817C22.9826 15.0735 23.1554 15.2729 22.8231 15.5122ZM22.4376 16.0838C21.9058 16.1104 22.4376 15.4723 22.5705 14.9273C22.5173 15.5388 22.7034 16.0306 22.4376 16.0838Z" fill="white" stroke="#BD6B00" stroke-width="0.0664662"/>
<path fill-rule="evenodd" clip-rule="evenodd" d="M22.1052 16.5889C21.7463 16.5092 21.8394 15.9907 22.1318 15.366C22.0654 16.0439 22.4376 16.4294 22.1052 16.5889ZM22.2382 17.6125C22.3711 18.0113 23.408 17.0808 23.5675 16.7086C23.0358 17.1606 22.1451 17.3068 22.2382 17.6125Z" fill="white" stroke="#BD6B00" stroke-width="0.0664662"/>
<path fill-rule="evenodd" clip-rule="evenodd" d="M21.6134 18.2506C21.7596 18.6494 22.8497 17.8253 23.182 17.3733C22.5306 17.905 21.5336 17.8518 21.6134 18.2506Z" fill="white" stroke="#BD6B00" stroke-width="0.0664662"/>
<path fill-rule="evenodd" clip-rule="evenodd" d="M20.9753 18.902C21.1481 19.4737 22.2913 18.5564 22.6237 18.1044C21.9058 18.6628 20.8955 18.5032 20.9753 18.902ZM22.0388 17.4398C21.733 17.586 21.6134 16.722 21.7862 16.0972C21.7862 16.7618 22.411 17.267 22.052 17.4265L22.0388 17.4398Z" fill="white" stroke="#BD6B00" stroke-width="0.0664662"/>
<path fill-rule="evenodd" clip-rule="evenodd" d="M21.5203 18.131C21.1481 18.2373 21.2545 17.2935 21.5868 16.6687C21.6267 17.2935 21.8926 17.8651 21.5203 18.131ZM20.8557 18.7823C20.4569 18.7956 20.7227 17.9714 21.0684 17.5062C21.0152 18.1044 21.2013 18.7026 20.8557 18.7823ZM21.5868 19.128C21.7197 19.3407 22.0122 18.9551 22.5173 18.6627C22.0654 18.7956 21.5336 18.9286 21.5868 19.128ZM21.8261 12.1224C21.4273 11.83 21.733 11.2982 21.8261 10.7931C21.959 11.2716 22.2781 11.9097 21.8261 12.1224ZM21.8261 12.827C22.4243 12.7605 22.3312 12.0161 22.3578 11.5375C22.1717 12.1889 21.6932 12.2952 21.8261 12.8403V12.827ZM21.7463 12.7339C21.2545 12.7073 21.2811 12.149 21.2545 11.5907C21.507 12.1091 21.7862 12.1889 21.7463 12.7339Z" fill="white" stroke="#BD6B00" stroke-width="0.0664662"/>
<path fill-rule="evenodd" clip-rule="evenodd" d="M21.7597 13.4251C22.1585 13.465 22.3446 13.0795 22.4243 12.4946C22.0654 13.0396 21.7464 12.8668 21.7597 13.4251ZM21.6267 13.3852C21.1349 13.4517 21.2279 12.8801 21.2279 12.4547C21.3874 12.8535 21.7862 12.9864 21.6267 13.3852Z" fill="white" stroke="#BD6B00" stroke-width="0.0664662"/>
<path fill-rule="evenodd" clip-rule="evenodd" d="M22.3977 13.146C22.3578 13.5182 22.1185 14.1563 21.733 14.0101C21.5868 13.5581 22.0787 13.465 22.3977 13.146Z" fill="white" stroke="#BD6B00" stroke-width="0.0664662"/>
<path fill-rule="evenodd" clip-rule="evenodd" d="M21.6267 14.0499C21.7862 13.7309 21.2279 13.5581 21.1215 13.1327C21.0551 13.7442 21.1082 14.143 21.6267 14.0632V14.0499ZM23.2086 10.1683C22.9028 9.84925 23.1687 9.31752 23.2617 8.81238C23.3947 9.29093 23.5941 9.92901 23.2086 10.1683ZM23.2086 10.7798C23.7403 10.8462 23.8732 9.7562 23.9397 9.27764C23.7536 9.92901 23.1421 10.2082 23.2086 10.7931V10.7798ZM23.1022 10.7798C22.73 10.5804 22.8098 10.155 22.7034 9.84925C22.9427 10.2348 23.182 10.2879 23.1022 10.7798Z" fill="white" stroke="#BD6B00" stroke-width="0.0664662"/>
<path fill-rule="evenodd" clip-rule="evenodd" d="M23.2219 11.4976C23.7669 11.5375 24.0993 10.3278 24.1259 9.84924C23.953 10.5006 23.1422 10.8462 23.2086 11.4976H23.2219ZM23.1023 11.471C22.5705 11.3514 22.637 11.0058 22.7168 10.4607C22.8896 11.019 23.182 10.8994 23.1023 11.471Z" fill="white" stroke="#BD6B00" stroke-width="0.0664662"/>
<path fill-rule="evenodd" clip-rule="evenodd" d="M23.2219 12.189C23.8334 12.2953 23.7936 11.3116 24.2854 10.6071C23.86 11.1388 23.089 11.8034 23.2219 12.189ZM23.089 12.1491C22.6105 12.1757 22.5573 11.4711 22.5839 11.1787C22.7035 11.4711 23.2485 11.737 23.0757 12.1624L23.089 12.1491Z" fill="white" stroke="#BD6B00" stroke-width="0.0664662"/>
<path fill-rule="evenodd" clip-rule="evenodd" d="M24.179 11.4312C23.953 12.1889 23.6206 12.9466 23.2218 12.8934C23.0224 12.4547 23.6073 12.4016 24.179 11.4312Z" fill="white" stroke="#BD6B00" stroke-width="0.0664662"/>
<path fill-rule="evenodd" clip-rule="evenodd" d="M23.0757 12.7738C23.2352 12.4415 22.6769 12.282 22.5706 11.8566C22.5041 12.4681 22.5573 12.8669 23.0757 12.7738ZM24.0195 12.2952C23.6872 12.9732 23.541 13.7575 23.089 13.6379C22.9162 13.1061 23.5941 12.9998 24.0195 12.2952Z" fill="white" stroke="#BD6B00" stroke-width="0.0664662"/>
<path fill-rule="evenodd" clip-rule="evenodd" d="M22.9959 13.5183C23.1953 13.146 22.637 13.0264 22.4907 12.5346C22.4243 13.1726 22.4907 13.6379 22.9959 13.505V13.5183ZM22.0388 8.93208C21.7197 9.01184 21.3741 8.65293 21.4938 8.1079C21.866 8.18766 22.0255 8.53329 22.0388 8.93208ZM23.0889 8.65292C23.0624 8.81244 22.863 8.82574 22.9294 8.59975C22.9822 8.45372 22.9822 8.29381 22.9294 8.14778C22.8696 7.94835 22.8696 7.73573 22.9294 7.53629C22.9826 7.40336 23.1687 7.48312 23.0889 7.58946C23.0092 7.69581 22.9959 7.96168 23.0624 8.08132C23.1244 8.27628 23.1333 8.46682 23.0889 8.65292ZM20.0448 10.7798C20.1777 10.9527 20.4303 10.833 20.2309 10.5804C20.0714 10.381 19.8321 10.2082 19.8321 9.99554C19.8055 9.72968 19.6593 9.33088 19.5131 9.18465C19.3668 9.03843 19.194 9.23783 19.3535 9.34417C19.5264 9.45052 19.646 9.92908 19.6327 10.1152C19.646 10.381 19.8986 10.5804 20.0448 10.7798ZM20.4436 10.4741C20.5765 10.6602 20.7626 10.5406 20.6563 10.2481C20.5632 10.0487 20.5499 9.78285 20.4436 9.63663C20.2841 9.41064 20.0448 9.22454 19.8986 9.07831C19.739 8.94538 19.6327 9.07831 19.7656 9.21124C19.9286 9.374 20.0755 9.55206 20.2043 9.74297C20.3904 10.0354 20.3107 10.2747 20.4436 10.4741ZM22.5306 9.51699C22.5439 9.78285 22.3312 9.83602 22.3445 9.46381C22.3445 9.06502 22.637 8.6928 22.4775 8.09461C22.3711 7.80216 22.3711 7.25713 22.4243 6.97798C22.4775 6.69882 22.6901 6.87163 22.5971 7.09761C22.5173 7.36348 22.6104 7.84204 22.6769 8.09461C22.8763 8.81244 22.5173 9.15807 22.5439 9.51699H22.5306ZM21.959 8.05473C21.9856 8.3073 22.1983 8.32059 22.1318 7.98826C22.0787 7.73126 22.0787 7.49641 22.1318 7.28372C22.2116 7.00456 22.185 6.526 22.1318 6.32661C22.0654 6.11391 21.866 6.23355 21.9457 6.39307C22.0377 6.64452 22.0516 6.91789 21.9856 7.17737C21.9058 7.44324 21.9191 7.81545 21.959 8.06802V8.05473ZM24.0328 12.9865C23.9264 13.1062 23.7669 13.0264 23.8998 12.8536C24.0328 12.7207 23.9929 12.6941 24.0726 12.5346C24.1524 12.3484 24.1391 12.2554 24.2322 12.1358C24.3252 12.0028 24.4449 12.1358 24.3651 12.2288C24.2588 12.3617 24.2853 12.4415 24.2322 12.5611C24.0992 12.7605 24.1391 12.8669 24.0328 12.9865ZM21.3209 16.2567C21.1613 16.3498 21.0253 16.4787 20.9239 16.6333C20.8224 16.7878 20.7581 16.9638 20.736 17.1473C20.7221 17.4783 20.6311 17.8015 20.4702 18.0911C20.736 18.0247 20.869 17.5993 20.9089 17.1872C20.9487 16.7618 21.1747 16.589 21.3076 16.2567H21.3209ZM20.643 17.041C20.417 17.4531 20.1113 17.6126 20.0847 17.9183C20.0581 18.2772 20.0315 18.2905 19.9384 18.6362C20.2043 18.5697 20.2708 18.5431 20.3372 18.0114C20.3771 17.6392 20.6829 17.3866 20.643 17.041Z" fill="white" stroke="#BD6B00" stroke-width="0.0664662"/>
<path fill-rule="evenodd" clip-rule="evenodd" d="M13.6507 20.8693C13.5177 21.1086 13.3848 21.4675 13.1189 21.4011C13.1189 21.2283 13.3981 21.0953 13.6507 20.8693ZM13.2519 20.9491C12.76 21.1618 12.3213 21.1086 12.2549 21.4277C12.7334 21.4808 12.9195 21.2947 13.2652 20.9491H13.2519ZM15.3921 19.2609C15.0618 19.5176 14.8276 19.8782 14.7274 20.2844C14.6203 20.6519 14.459 21.0014 14.2489 21.3213C14.5946 21.089 14.8448 20.7397 14.9534 20.3376C15.0465 19.9388 15.1661 19.6331 15.3921 19.2742V19.2609ZM14.98 19.2609C14.6078 19.5533 14.2622 19.8989 14.1558 20.311C14.0495 20.6965 13.983 20.989 13.7304 21.3745C14.1292 21.1219 14.2755 20.7497 14.3951 20.3376C14.4881 19.9388 14.7274 19.6464 14.98 19.2742V19.2609ZM13.757 20.2313C13.7652 20.1978 13.7601 20.1625 13.7427 20.1327C13.7254 20.103 13.6971 20.0811 13.664 20.0718L13.3183 19.9654C13.1854 19.9255 13.1056 20.0186 13.1056 20.085V20.3509C13.1056 20.4307 13.1367 20.4705 13.1987 20.4705C13.305 20.4705 13.4114 20.5016 13.5177 20.5636C13.6064 20.6079 13.6728 20.5858 13.7171 20.4971L13.757 20.2313ZM12.3479 20.2313C12.3479 20.1427 12.3745 20.0895 12.4277 20.0718C12.528 20.028 12.6376 20.0098 12.7467 20.0186C12.8619 20.0186 12.9107 20.0452 12.893 20.0983V20.3775C12.893 20.4838 12.893 20.4838 12.8398 20.5104C12.7246 20.5016 12.6138 20.5282 12.5075 20.5902C12.4277 20.6256 12.379 20.5991 12.3612 20.5104L12.3479 20.2313Z" fill="white"/>
<path fill-rule="evenodd" clip-rule="evenodd" d="M15.9771 23.9668C15.9682 24.1263 16.0125 24.2637 16.11 24.3789C15.5019 24.1952 14.8469 24.2474 14.2755 24.5251C14.0363 24.6315 13.7438 24.3922 14.023 24.1662C14.4218 23.8604 15.3124 24.0333 15.9771 23.9668ZM8.33345 23.9668C8.34502 24.102 8.32687 24.2381 8.28028 24.3656C8.86518 24.1396 9.48996 24.339 10.0882 24.5783C10.487 24.7511 10.5268 24.4453 10.4604 24.3523C10.3834 24.2444 10.2843 24.1542 10.1697 24.0877C10.0551 24.0213 9.92756 23.98 9.79571 23.9668H8.33345ZM8.83859 21.0822C8.66135 21.0201 8.48411 21.0822 8.30686 21.2683C7.73525 21.8266 7.0573 22.3716 6.51227 22.8103C6.31287 22.9831 6.11348 23.3021 6.96425 23.6079C7.00413 23.6345 7.62891 23.8737 8.02771 23.8737C8.20052 23.8737 8.20052 24.113 8.16064 24.1795C8.09417 24.3124 8.14735 24.3656 8.01441 24.4852C7.86819 24.6182 8.01441 24.7644 8.14735 24.658C8.6259 24.2327 9.4235 24.5118 10.1812 24.7511C10.3673 24.8043 10.6864 24.791 10.6864 24.5384C10.6864 24.2858 10.8858 24.0864 11.0054 24.0731C11.3244 24.1263 12.8664 24.1396 13.3317 24.0864C13.5976 24.0466 13.6242 24.4719 13.7704 24.6182C13.8767 24.7378 14.2622 24.7644 14.5414 24.6448C15.0731 24.4055 15.8707 24.4055 16.2031 24.6448C16.336 24.7378 16.4556 24.6447 16.3759 24.5517C16.2695 24.4188 16.2828 24.339 16.2296 24.2327C16.0967 23.9668 16.2031 23.9136 16.336 23.9003C17.7982 23.7009 18.2768 23.2091 17.8248 22.797C17.2399 22.2918 16.6019 21.7734 16.0435 21.1752C15.884 21.0157 15.7777 20.9492 15.4719 21.0822C14.4128 21.5605 13.2702 21.827 12.1087 21.8665C10.9833 21.7938 9.87796 21.5332 8.83859 21.0955V21.0822Z" fill="white"/>
<path fill-rule="evenodd" clip-rule="evenodd" d="M15.7244 21.1619L15.5117 21.215C14.3153 21.6404 13.2253 21.9329 12.0954 21.9329C10.992 21.9329 9.83551 21.6138 8.78534 21.1885C8.72139 21.1626 8.64989 21.1626 8.58594 21.1885C8.51505 21.2062 8.45744 21.2372 8.41313 21.2815C7.92171 21.7727 7.39765 22.2302 6.84453 22.6507C6.75147 22.7172 6.76477 22.89 6.91099 22.9432C8.01433 23.342 9.09109 24.0731 12.1751 24.0465C15.299 24.0199 16.4024 23.3021 17.3861 22.9697C17.457 22.9432 17.5146 22.8989 17.5589 22.8368L17.5722 22.7305L17.4924 22.6241C16.9208 22.1589 16.3226 21.7866 15.9238 21.2416C15.8795 21.1796 15.813 21.1574 15.7244 21.1752V21.1619ZM15.7244 21.2283C15.8042 21.2283 15.8529 21.2416 15.8706 21.2682C16.2694 21.8398 16.8942 22.1987 17.4525 22.664L17.5057 22.7571V22.8102C17.4791 22.8545 17.4348 22.8856 17.3728 22.9033C16.3625 23.2489 15.2857 23.9667 12.1884 23.9933C9.10438 24.0199 8.04092 23.2888 6.93758 22.89C6.83124 22.8368 6.84453 22.7305 6.88441 22.7039C7.45159 22.2696 7.97445 21.8088 8.45301 21.3214L8.59924 21.2416H8.75876C9.80936 21.6981 10.9371 21.9507 12.0821 21.986C13.2386 21.986 14.3419 21.6936 15.5383 21.2815L15.7377 21.2283H15.7244Z" fill="#BD6B00"/>
<path fill-rule="evenodd" clip-rule="evenodd" d="M8.16063 1.10234C8.16063 0.916237 8.4265 0.902944 8.39991 1.15552C8.36003 1.46126 8.99811 2.25886 9.05128 2.75071C9.09116 3.08304 8.85188 3.3622 8.6259 3.5483C8.49339 3.63551 8.34077 3.6874 8.18256 3.69903C8.02436 3.71067 7.8658 3.68166 7.72195 3.61477C7.60232 3.50842 7.49597 3.17609 7.58902 3.04316C7.61561 3.00328 7.76184 3.53501 8.08087 3.53501C8.51955 3.53501 8.87847 3.20268 8.87847 2.91022C8.90506 2.40508 8.17393 1.60749 8.16063 1.10234ZM9.42349 2.35191C9.50325 2.29874 9.6096 2.52472 9.52984 2.57789C9.45008 2.63107 9.33044 2.40508 9.42349 2.33862V2.35191ZM9.62289 1.88664C9.58301 1.91323 9.51654 1.88664 9.52984 1.86006C9.6576 1.68258 9.82049 1.53326 10.0084 1.42138C10.0616 1.39479 10.1413 1.47455 10.1147 1.51443C9.97912 1.67206 9.81144 1.79896 9.62289 1.88664ZM11.2978 0.55732C11.3377 0.47756 11.577 0.384508 11.6435 0.331335C11.6966 0.264869 11.7232 0.384507 11.6966 0.424387C11.6568 0.51744 11.4441 0.650373 11.351 0.663666C11.2978 0.654804 11.2801 0.623786 11.2978 0.570613V0.55732ZM11.8695 0.5972C11.9378 0.419513 12.0525 0.263425 12.2018 0.145229C12.2682 0.105349 12.3746 0.145229 12.348 0.198402C12.2577 0.374227 12.1253 0.524942 11.9625 0.637079C11.9226 0.676959 11.8562 0.63708 11.8695 0.5972ZM11.3776 0.956117C11.351 1.00043 11.3554 1.03588 11.3909 1.06246C11.4795 1.08905 11.5681 1.08905 11.6568 1.06246C11.7365 1.00929 11.6966 0.676959 11.5903 0.849771C11.5105 0.956117 11.4574 0.929531 11.3776 0.956117ZM10.4072 1.70054C10.2344 1.56761 10.4604 1.3815 10.6332 1.51443C10.9921 1.7803 10.1014 2.81717 9.62289 3.29573C9.52984 3.38878 9.45008 3.1628 9.56972 3.04316C9.91539 2.75277 10.2156 2.41222 10.4604 2.03287C10.5135 1.9664 10.5534 1.82018 10.4072 1.70054ZM12.4411 0.823185C12.4544 0.690252 12.2284 0.823184 12.2284 0.650372C12.2284 0.557319 12.4809 0.490854 12.5873 0.5972C12.7601 0.783305 12.6272 1.08905 12.3214 1.11564C12.0821 1.11564 11.6568 1.47455 11.7232 1.54102C11.7897 1.63407 12.4411 1.68725 12.8266 1.63407C13.0658 1.59419 13.0127 1.80688 12.7734 1.83347C12.5341 1.86006 12.348 1.83347 12.1353 1.91323C11.8695 1.9797 11.7631 2.31203 11.6169 2.44496C11.5903 2.47155 11.5105 2.33862 11.5371 2.28544C11.6435 2.12592 11.803 1.88664 11.9891 1.80689C12.0954 1.76701 11.6701 1.75371 11.5371 1.71383C11.4308 1.68725 11.4574 1.54102 11.4972 1.46126C11.5504 1.35492 11.9492 0.942824 12.122 0.956117C12.2682 0.956117 12.4278 0.916237 12.4411 0.823185ZM13.1057 0.849771C13.1766 0.770011 13.2431 0.690252 13.3051 0.610493C13.345 0.570613 13.4248 0.610492 13.4115 0.716838C13.3982 0.809891 13.2785 0.876358 13.2121 0.942824C13.1456 0.982704 13.0791 0.889651 13.119 0.849771H13.1057ZM13.9698 0.544027C14.0894 0.544027 14.1027 0.756718 13.9964 0.783305C13.9166 0.809891 13.8634 0.55732 13.9698 0.544027ZM13.6906 1.20869C13.6906 1.40809 13.7837 1.39479 13.9565 1.3815C14.1293 1.36821 14.2755 1.3815 14.2755 1.22198C14.2755 1.04917 14.1825 0.889651 14.1426 1.00929C14.1293 1.11564 14.1027 1.30174 14.0362 1.22198C13.9831 1.15552 14.0097 1.14222 13.9033 1.24857C13.8368 1.31503 13.8369 1.22198 13.797 1.16881C13.7704 1.12893 13.6906 1.1954 13.6906 1.22198V1.20869ZM12.4676 2.1658C12.4278 2.41837 12.4676 2.764 12.5873 2.764C12.7468 2.764 13.0658 2.23227 13.2254 1.93982C13.3184 1.7803 13.4646 1.75371 13.3982 1.92652C13.3051 2.1791 13.3184 2.72412 13.3982 2.88364C13.4513 2.9634 13.797 2.80388 13.8501 2.68424C13.9565 2.45825 13.8634 2.04616 13.9033 1.79359C13.9166 1.63407 14.0761 1.59419 14.0628 1.75371L14.0495 2.75071C14.0495 2.88364 14.435 3.06974 14.4882 2.67095C14.5148 2.43167 14.6477 2.1791 14.4882 1.91323C14.3819 1.74042 14.6344 1.75371 14.7674 1.99299C14.8604 2.15251 14.6876 2.41837 14.7009 2.61777C14.7009 2.93681 14.4616 3.12292 14.2888 3.12292C14.1293 3.12292 14.023 2.92352 13.89 2.92352C13.7571 2.92352 13.5976 3.1495 13.4912 3.13621C13.0127 3.10962 13.2652 2.43167 13.119 2.41837C12.9595 2.41837 12.7867 3.08304 12.5873 3.06974C12.4012 3.04316 12.1885 2.51143 12.2815 2.29874C12.348 2.08604 12.4809 2.03287 12.4676 2.1658ZM14.7142 1.10234C14.4882 0.96941 14.7142 0.610493 14.8338 0.730132C15.0465 0.995997 15.2592 1.59419 15.4187 1.64737C15.5118 1.67395 15.4985 1.1954 15.565 0.982703C15.6181 0.809891 15.8043 0.863065 15.7777 1.07576C15.7644 1.14222 15.5118 1.92652 15.5384 1.95311C15.7155 2.28483 15.8623 2.63186 15.9771 2.98998C16.0169 3.1495 15.8308 3.04316 15.8043 3.01657C15.6846 2.83047 15.4852 2.15251 15.4852 2.19239L15.2592 3.21597C15.2326 3.3489 15.0332 3.32232 15.0864 3.08304C15.1263 2.89693 15.3922 1.9797 15.3789 1.93982C15.2275 1.61151 14.9996 1.32432 14.7142 1.10234Z" fill="white"/>
<path fill-rule="evenodd" clip-rule="evenodd" d="M15.1129 3.30899C15.0597 3.30899 14.9534 3.44192 15.2724 3.50839C15.6845 3.58815 16.1498 3.44192 16.2827 3.02983C16.4555 2.53798 16.5486 2.07271 16.6416 1.8999C16.748 1.7005 16.8809 1.7138 16.7746 1.42135C16.7081 1.19536 16.5752 1.26183 16.5486 1.38147C16.4821 1.68721 16.203 2.71079 16.1099 2.8836C15.9504 3.22037 15.6181 3.36216 15.1129 3.30899Z" fill="white"/>
<path fill-rule="evenodd" clip-rule="evenodd" d="M15.9638 1.68719C15.9106 1.59413 15.8043 1.68719 15.8309 1.78024C15.8305 1.80018 15.8345 1.81995 15.8428 1.83809C15.8511 1.85624 15.8633 1.87229 15.8787 1.88505C15.894 1.89782 15.912 1.90698 15.9313 1.91184C15.9507 1.91671 15.9708 1.91716 15.9904 1.91317C16.0834 1.91317 16.2828 1.92647 16.2828 1.78024C16.2828 1.67389 16.1898 1.58084 16.1366 1.70048C16.0657 1.79796 16.0081 1.79796 15.9638 1.70048V1.68719ZM16.0568 1.28839C16.0303 1.31498 16.0568 1.43462 16.0967 1.42132C16.2495 1.42241 16.4001 1.38589 16.5354 1.31498C16.562 1.28839 16.5487 1.22192 16.5088 1.22192C16.3759 1.22192 16.1632 1.22192 16.0568 1.28839ZM17.2266 1.59414C17.333 1.43462 17.5989 1.42132 17.4925 1.64731L16.655 3.28238C16.5487 3.46848 16.4689 3.37543 16.5487 3.22921C16.6417 3.0431 17.2001 1.63401 17.2266 1.59414Z" fill="white"/>
<path fill-rule="evenodd" clip-rule="evenodd" d="M16.2031 3.54824C16.1765 3.4419 16.0037 3.28238 16.0302 3.57483C16.0568 4.07997 16.7614 3.92045 16.9608 3.74764C17.1602 3.57483 17.0006 4.31925 17.2532 4.39901C17.3862 4.43889 17.652 4.25278 17.7849 4.07997C18.1439 3.61471 18.3831 2.93675 18.7155 2.48478C18.8484 2.29868 18.649 2.16574 18.5825 2.31197C18.2635 2.81711 17.8913 3.85399 17.4792 4.11985C17.1469 4.33254 17.2532 3.85399 17.2399 3.69447C17.2266 3.58812 17.0937 3.4286 16.9209 3.57483C16.7792 3.68114 16.6061 3.73727 16.429 3.73435C16.336 3.73435 16.2429 3.73435 16.2031 3.54824Z" fill="white"/>
<path fill-rule="evenodd" clip-rule="evenodd" d="M17.4526 2.6178C17.4526 2.57792 17.3064 2.56463 17.3197 2.71086C17.3197 2.8172 17.4526 2.84379 17.4659 2.84379C17.6653 2.68427 17.426 2.76403 17.4526 2.60451V2.6178ZM17.1468 3.20271C17.107 3.20271 17.0671 3.33564 17.1734 3.34893L17.6919 3.32235C17.745 3.32235 17.7716 3.20271 17.6387 3.216C17.4792 3.216 17.2798 3.17612 17.1468 3.216V3.20271ZM8.90503 0.996028C8.9715 0.996028 9.11772 1.18213 9.10443 1.2486C9.10443 1.27519 8.94491 1.2486 8.90503 1.20872C8.86515 1.16884 8.87844 0.996028 8.90503 0.996028ZM8.20049 2.37853C8.06756 2.45828 8.22708 2.60451 8.33342 2.53804C8.70563 2.28547 9.26395 2.0329 9.39688 1.54105C9.43676 1.38153 9.58299 1.12896 9.72921 1.07579C9.86215 1.00932 10.0748 1.32836 10.2078 1.07579C10.2875 0.942855 10.5667 1.16884 10.6332 1.02261C10.7129 0.849802 10.673 0.756749 10.673 0.570644C10.673 0.464298 10.58 0.437712 10.5135 0.610524C10.5047 0.699145 10.5002 0.770043 10.5002 0.823216C10.4648 0.858664 10.4205 0.867526 10.3673 0.849802C10.3407 0.823215 10.3673 0.756749 10.2875 0.716869C10.2521 0.708007 10.2166 0.71687 10.1812 0.743456C10.0881 0.916269 10.0483 1.07579 9.90202 0.876389C9.78238 0.743456 9.71592 0.464298 9.63616 0.836509C9.60957 0.969441 9.41018 1.15555 9.29054 1.15555C9.14431 1.15555 9.18419 0.756749 8.86515 0.823216C8.69234 0.863095 8.70563 1.18213 8.73222 1.28848C8.7721 1.46129 9.26395 1.34165 9.22407 1.448C9.14431 1.80692 8.63917 2.16583 8.20049 2.37853ZM5.18292 4.13323C5.16963 4.1997 5.24939 4.35922 5.32915 4.37251C5.40891 4.37251 5.46208 4.1997 5.43549 4.13323C5.40891 4.09335 5.19622 4.09335 5.18292 4.13323ZM5.6216 4.7846C5.56843 4.73143 5.40891 4.87766 5.54184 4.984C5.60831 5.05047 5.87417 5.13023 5.94064 5.01059C6.04698 4.85107 5.84758 4.27946 5.94064 4.21299C6.0071 4.14653 6.31285 4.58521 6.47237 4.61179C6.83129 4.66497 6.73823 4.0003 7.13703 4.05348C7.3896 4.08006 7.41619 3.76102 7.37631 3.54833C7.34972 3.34893 7.03068 3.06977 6.88446 2.93684C6.69835 2.77732 6.6053 3.06977 6.72494 3.14953C6.88446 3.28247 7.16362 3.53504 7.2035 3.69456C7.21679 3.77432 7.01739 3.93384 6.93763 3.89396C6.75153 3.78761 6.59201 3.36223 6.43249 3.26917C6.37932 3.24259 6.24638 3.30905 6.29955 3.44199C6.37931 3.58821 6.69835 3.8009 6.71164 3.96042C6.72494 4.09336 6.57871 4.38581 6.47237 4.38581C6.36602 4.38581 6.07357 4.02689 5.98052 3.85408C5.92734 3.78761 5.78112 3.78761 5.75453 3.90725C5.74589 4.15278 5.76822 4.39843 5.821 4.63838C5.84759 4.85107 5.70136 4.86436 5.6216 4.7846ZM5.08987 3.64138C5.0367 3.69456 5.19622 3.8009 5.2228 3.77432C5.27598 3.72114 5.50196 3.46857 5.46208 3.37552C5.4222 3.29576 5.11646 3.10965 5.06328 3.20271C4.97023 3.34893 5.35574 3.42869 5.28927 3.46857L5.08987 3.64138ZM5.63489 2.52475C5.63489 2.52475 5.74124 2.85708 5.821 2.71086C5.87417 2.6178 5.63489 2.52475 5.63489 2.52475ZM5.79441 3.05648C5.76782 3.05648 5.66148 3.14953 5.72794 3.18941C5.83429 3.24259 6.11345 3.29576 6.04698 3.09636C6.0071 2.97672 6.47237 3.09636 6.35273 2.77732C6.30236 2.6806 6.22346 2.60171 6.12674 2.55134C6.07357 2.55134 5.92735 2.6178 6.0204 2.67098C6.08686 2.69756 6.28626 2.8172 6.2198 2.89696C6.12674 2.97672 6.07357 2.85708 5.96722 2.88367C5.91405 2.88367 5.95393 3.04319 5.91405 3.08307C5.91405 3.10965 5.821 3.02989 5.79441 3.04319V3.05648ZM6.52554 1.79362C6.44714 1.86443 6.3916 1.95699 6.36602 2.05949C6.37489 2.1038 6.39704 2.12595 6.43249 2.12595C6.51638 2.06561 6.57356 1.97506 6.59201 1.87338C6.59201 1.8335 6.56542 1.76704 6.52554 1.79362ZM6.89775 1.75374C6.79141 1.62081 7.03068 1.40812 7.12374 1.68728C7.1902 1.86009 7.85486 2.73744 7.9878 3.0299C8.09414 3.22929 7.9878 3.30905 7.86816 3.16283C7.53583 2.73744 7.25667 2.20571 6.89775 1.75374ZM7.589 1.76704C7.70864 1.6341 7.94792 1.36824 7.88145 1.23531C7.81499 1.10237 7.68205 1.10237 7.65547 1.14225C7.52253 1.31507 7.76181 1.27519 7.72193 1.32836C7.65104 1.44357 7.59343 1.55878 7.54912 1.67398C7.53583 1.71386 7.56241 1.79362 7.589 1.76704ZM17.9312 2.19242C17.8381 2.12595 18.0109 1.79362 18.1305 1.92656C18.4363 2.28547 18.5825 3.46857 18.6756 4.35922C18.6756 4.35922 18.5426 4.47886 18.5426 4.45227C18.5426 3.98701 18.3432 2.53805 17.9312 2.19242ZM10.8724 1.0492C10.7661 0.809922 11.0187 0.730163 11.0585 0.889682C11.2314 1.66069 11.6567 2.24559 11.9891 2.76403C12.0821 2.92355 11.9891 3.0299 11.7631 2.87038C11.6036 2.76403 11.4307 2.35194 11.3643 2.33865C11.2048 2.31206 10.8591 3.00331 10.1546 2.80391C9.96849 2.75074 9.98178 2.20571 9.96849 1.96643C9.96849 1.8468 10.1014 1.8335 10.1014 1.96643C10.1014 2.19242 10.1014 2.65768 10.3806 2.68427C10.6199 2.68427 11.125 2.36523 11.2313 2.09937C11.3377 1.8335 10.9788 1.31507 10.8724 1.03591V1.0492Z" fill="white"/>
<path fill-rule="evenodd" clip-rule="evenodd" d="M18.1173 4.26618C18.1705 4.10666 18.9282 2.83051 19.0345 2.55135C19.0877 2.41841 19.3004 2.79063 19.0877 2.99002C18.9016 3.14954 18.3566 4.05348 18.2502 4.37252C18.1971 4.50545 18.0641 4.43899 18.1173 4.26618Z" fill="white"/>
<path fill-rule="evenodd" clip-rule="evenodd" d="M19.4067 3.05646C19.5396 2.52473 19.8852 3.13622 19.5795 3.42868C19.1275 3.88065 18.9813 4.74471 18.2502 4.87764C18.0641 4.91752 17.7184 4.78459 17.6121 4.70483C17.5722 4.67824 17.6387 4.49213 17.7583 4.58519C17.9311 4.71812 18.3033 4.758 18.5027 4.59848C18.9392 4.17667 19.2519 3.64338 19.4067 3.05646ZM11.8295 4.74471C11.7897 4.78459 11.6966 4.78459 11.6833 4.83776C11.6434 5.02386 11.6833 5.13021 11.6434 5.31632C11.6035 5.50242 11.4706 5.50242 11.4839 5.3562C11.4839 5.17009 11.6567 4.89093 11.5371 4.87764C11.4573 4.86435 11.4042 4.758 11.4839 4.70483C11.6168 4.62507 11.7232 4.60734 11.803 4.65165C11.8473 4.67824 11.8561 4.70926 11.8295 4.74471Z" fill="white"/>
<path fill-rule="evenodd" clip-rule="evenodd" d="M11.7232 4.47877C11.5371 4.66487 11.351 4.73134 11.1782 4.94403C11.0985 5.02379 11.1118 5.14343 11.0586 5.26307C11.0187 5.38271 10.8725 5.396 10.8326 5.38271C10.7661 5.32954 10.7794 5.11685 10.6997 5.22319C10.6199 5.32954 10.58 5.48906 10.4737 5.48906C10.3673 5.48906 10.2078 5.28966 10.3009 5.28966C10.6066 5.24978 10.5933 5.02379 10.6997 4.9972C10.8326 4.98391 10.8326 5.19661 10.9257 5.15673C10.9788 5.13014 11.0187 4.87757 11.0852 4.8111C11.2846 4.59841 11.4441 4.49206 11.6568 4.33254C11.7498 4.25278 11.8296 4.39901 11.7232 4.49206V4.47877ZM12.4278 5.14343C12.2683 5.17002 12.2949 5.36942 12.348 5.38271C12.4145 5.42259 12.5341 5.43588 12.574 5.2099C12.6006 5.11684 12.6139 5.67516 12.8133 5.46247C12.9462 5.32954 13.2254 5.48905 13.345 5.32954C13.4381 5.2099 13.478 5.13014 13.3982 4.97062C13.3716 4.93074 13.2653 4.94403 13.2653 5.06367C13.2653 5.18331 13.1988 5.28966 13.0924 5.27636C13.0393 5.26307 13.119 5.02379 13.0659 4.95733C13.0359 4.94612 13.0028 4.94612 12.9728 4.95733C12.9329 5.0105 13.0127 5.24978 12.8931 5.27636C12.7335 5.30295 12.8133 5.11685 12.7601 5.09026C12.5341 4.98391 12.5208 5.11684 12.4278 5.13014V5.14343ZM13.6242 4.74463C13.7438 4.71805 13.7039 4.71805 13.89 4.57182C13.9565 4.51865 13.9698 4.67817 13.9565 4.74463C13.9565 4.83769 13.8236 4.77122 13.7837 4.86427C13.7305 4.98391 13.7571 5.26307 13.7305 5.36942C13.7305 5.42259 13.6242 5.42259 13.6242 5.36942C13.5976 5.23648 13.6375 5.10355 13.6242 4.93074C13.6242 4.87757 13.5577 4.78451 13.6242 4.75793V4.74463ZM12.9595 4.4123C12.9418 4.52751 12.9329 4.62943 12.9329 4.71805C12.9329 4.78451 13.0659 4.74463 13.0659 4.73134C13.0659 4.62499 13.0925 4.46548 13.0659 4.4256C13.0216 4.39901 12.9861 4.39458 12.9595 4.4123Z" fill="white"/>
<path fill-rule="evenodd" clip-rule="evenodd" d="M12.122 3.17615L11.9359 3.92057L11.67 3.41543V3.93386L11.0851 3.24261L11.2845 3.98704L10.7528 3.53506L11.0452 4.04021L10.1147 3.44201L10.6996 4.13326L9.95519 3.76105L10.4869 4.21302L9.29053 3.76105L10.447 4.33266C10.9724 4.0935 11.5448 3.97538 12.122 3.98704C12.7867 3.9959 13.3405 4.11111 13.7836 4.33266L14.9534 3.76105L13.7571 4.21302L14.2888 3.76105L13.5577 4.13326L14.1293 3.44201L13.1987 4.04021L13.4912 3.53506L12.9595 3.97374L13.1589 3.24261L12.5873 3.93386V3.41543L12.3214 3.92057L12.122 3.17615Z" fill="white"/>
<path d="M11.0962 19.3308L11.0587 19.6558H11.0087L10.9962 19.4308L10.9337 19.2308L10.8712 19.0683L10.7462 18.8933L10.8462 18.6183C10.9285 18.7045 10.9923 18.8066 11.0337 18.9183C11.0786 19.0467 11.0997 19.1823 11.0962 19.3183M11.9712 18.7933C11.9712 18.8766 11.9504 18.9391 11.9087 18.9808C11.8837 19.0225 11.8295 19.0516 11.7462 19.0683L11.7962 19.2558V19.5058L11.7837 19.6683H11.7337L11.7212 19.5058L11.6962 19.3808L11.6462 19.2558L11.5587 19.0808L11.4337 18.8683L11.5087 18.6183L11.6337 18.7433C11.667 18.7683 11.7087 18.7808 11.7587 18.7808C11.8587 18.7808 11.9087 18.7266 11.9087 18.6183H11.9587V18.7933M12.7587 19.3933L12.6962 19.6558C12.6462 19.6558 12.6129 19.6266 12.5962 19.5683L12.5462 19.4058L12.5337 19.1933L12.4087 19.2183C12.3504 19.2211 12.2929 19.2034 12.2462 19.1683C12.2245 19.156 12.207 19.1376 12.1959 19.1153C12.1847 19.0931 12.1805 19.068 12.1837 19.0433C12.1837 18.9266 12.2129 18.8308 12.2712 18.7558C12.3379 18.6725 12.4004 18.6266 12.4587 18.6183C12.5171 18.6183 12.5587 18.635 12.5837 18.6683L12.6212 18.7808V19.0308C12.6212 19.1391 12.6337 19.2183 12.6587 19.2683C12.6587 19.3016 12.692 19.3433 12.7587 19.3933ZM12.5087 18.9558C12.5087 18.8808 12.4754 18.8475 12.4087 18.8558L12.3337 18.8683C12.3171 18.8766 12.3087 18.8891 12.3087 18.9058C12.3087 18.9475 12.3504 18.9683 12.4337 18.9683L12.5087 18.9558ZM13.5962 19.3308L13.5587 19.6558C13.492 19.6141 13.4337 19.5308 13.3837 19.4058L13.2212 18.8933L12.9962 19.5808L12.8962 19.6683V19.3558C12.9712 19.2725 13.0129 19.21 13.0212 19.1683L13.1212 18.9558L13.1837 18.6183H13.2337L13.3462 18.9558C13.3712 19.0391 13.4087 19.1058 13.4587 19.1558L13.5837 19.3308" fill="white"/>
<path d="M16.0338 22.3808C16.0838 22.4308 16.1129 22.4808 16.1213 22.5308L16.1713 22.7308L16.0713 22.7433L15.9463 22.5558L15.8088 22.4058L15.5963 22.2183L15.3463 22.0058C15.2963 21.9808 15.2713 21.96 15.2713 21.9433L15.2338 21.8433L15.2088 21.6433L15.5463 21.9183L15.8588 22.1933L16.0338 22.3808ZM14.8463 21.6558L14.8213 21.9058H14.4338L14.4713 21.6558H14.8463ZM15.8963 22.7683L14.9463 23.0558L14.7838 22.8058L15.5963 22.5558L15.5088 22.4558L15.3963 22.3808C15.4007 22.4042 15.3984 22.4285 15.3895 22.4506C15.3807 22.4728 15.3657 22.4919 15.3463 22.5058L15.2213 22.5808C15.148 22.6038 15.0695 22.6038 14.9963 22.5808C14.9329 22.5734 14.8748 22.5421 14.8338 22.4933C14.7782 22.4122 14.7478 22.3166 14.7463 22.2183C14.7463 22.0933 14.7838 22.0183 14.8588 21.9933C14.9504 21.9683 15.0754 21.9975 15.2338 22.0808C15.3813 22.1489 15.51 22.2518 15.6088 22.3808L15.8963 22.7683ZM15.1713 22.2683L15.0713 22.2308H14.9963L14.9338 22.2683V22.3433L14.9963 22.3683H15.0713L15.1213 22.3308L15.1713 22.2683ZM14.1713 22.0683L14.1088 22.3183L13.7088 22.2808L13.7713 22.0308L14.1713 22.0683ZM15.1088 23.0308L14.8963 23.0808H14.6838L14.4963 23.0308C14.4546 23.0975 14.3921 23.1475 14.3088 23.1808L14.1088 23.2558L13.9588 23.2933L13.8338 23.0433L13.9713 23.0058L14.1338 22.9558L14.2463 22.8933L14.1213 22.8308H14.0088L13.9838 22.8683H13.9213C13.8546 22.7683 13.8421 22.685 13.8838 22.6183C13.9463 22.5183 13.9963 22.5183 14.1338 22.4933C14.2396 22.4647 14.3498 22.4562 14.4588 22.4683C14.5588 22.4766 14.6213 22.5141 14.6463 22.5808C14.6629 22.6058 14.6713 22.635 14.6713 22.6683L14.6213 22.8183H14.7588L14.9713 22.7808L15.1088 23.0308ZM14.1088 23.2558L13.9088 23.2933C13.8141 23.3127 13.7156 23.2948 13.6338 23.2433C13.5356 23.1555 13.4623 23.0434 13.4213 22.9183L13.3213 22.6433C13.3025 22.5918 13.2674 22.5479 13.2213 22.5183L13.1088 22.4558L13.1838 22.1933C13.2588 22.2266 13.3171 22.2683 13.3588 22.3183L13.4838 22.5308L13.5463 22.7183L13.6838 22.9933C13.7254 23.0266 13.7671 23.0391 13.8088 23.0308L14.0213 23.0058L14.1088 23.2558ZM13.2338 22.3183L13.1088 22.5558L12.7338 22.4683L12.8588 22.2308L13.2338 22.3183ZM13.4588 23.3683L12.5213 23.4558L12.4713 23.2058L13.2463 23.1183L13.1713 23.0183L13.0463 22.9433L13.1088 22.6933C13.1921 22.7433 13.2588 22.7975 13.3088 22.8558C13.3504 22.9225 13.3838 23.01 13.4088 23.1183L13.4588 23.3683ZM12.7088 23.4933L12.4338 23.4683L12.2213 23.4058L12.0588 23.4558H11.5963L11.4463 23.4183C11.4129 23.3933 11.3796 23.3516 11.3463 23.2933C11.2941 23.3487 11.23 23.3915 11.1588 23.4183L10.9463 23.4308H10.7338L10.7588 23.1683H10.9713C11.0713 23.1766 11.1588 23.16 11.2338 23.1183C11.28 23.1011 11.3202 23.0705 11.3491 23.0304C11.378 22.9904 11.3944 22.9427 11.3963 22.8933L11.4838 22.9058L11.4713 23.0683C11.4713 23.1016 11.4838 23.1308 11.5088 23.1558C11.5421 23.1808 11.5838 23.1933 11.6338 23.1933H11.8213C11.9463 23.1933 12.0296 23.185 12.0713 23.1683C12.1463 23.1516 12.1879 23.1058 12.1963 23.0308L12.2088 22.9808C12.2088 22.9808 12.2463 22.9808 12.2713 22.9558L12.3338 22.9308V23.0183L12.2963 23.1558L12.5463 23.2183C12.5546 23.1933 12.5504 23.1641 12.5338 23.1308L12.4963 23.0558L12.5088 23.0183L12.5463 22.9933L12.6713 22.8808L12.7338 23.0058V23.1308L12.7088 23.4933ZM11.2963 22.4058L11.0463 22.5683L10.8838 22.4558L10.7088 22.5808L10.4713 22.4558L10.6963 22.2933L10.8838 22.3933L11.0713 22.2683L11.2963 22.3933M10.9213 23.4183L10.0088 23.2683L10.1088 23.0183L10.8838 23.1433C10.8838 23.0933 10.8754 23.0516 10.8588 23.0183L10.7963 22.9183L10.9963 22.7058C11.0463 22.7725 11.0754 22.8391 11.0838 22.9058C11.0921 22.9725 11.0713 23.06 11.0213 23.1683L10.9213 23.4183ZM10.1588 23.2933L9.95877 23.2558C9.85043 23.2308 9.78793 23.1808 9.77127 23.1058C9.74627 23.0308 9.7796 22.9141 9.87126 22.7558L10.0213 22.5058C10.0546 22.4475 10.0671 22.3975 10.0588 22.3558L10.0213 22.2683L10.2963 22.0683C10.3296 22.135 10.3421 22.1933 10.3338 22.2433C10.3338 22.31 10.3046 22.385 10.2463 22.4683L10.1463 22.6433C10.0908 22.7266 10.0525 22.8201 10.0338 22.9183C10.0338 22.9683 10.0546 22.9975 10.0963 23.0058L10.2963 23.0558L10.1588 23.2933ZM9.68376 22.2933L9.37126 22.4308L9.14627 22.2183L9.47126 22.0933L9.68376 22.2933ZM9.55876 23.1183L9.35876 23.2933L9.14627 23.3683L8.84626 23.3558L8.49626 23.2683C8.33595 23.2218 8.18984 23.1358 8.07126 23.0183C7.99626 22.9183 7.99626 22.8266 8.07126 22.7433C8.14159 22.6618 8.22634 22.594 8.32126 22.5433C8.41293 22.485 8.57126 22.4183 8.79626 22.3433L8.84626 22.4058L8.49626 22.5558C8.4296 22.5891 8.37543 22.6308 8.33377 22.6808C8.2921 22.7308 8.30043 22.7975 8.35876 22.8808C8.58646 23.0518 8.86162 23.1479 9.14627 23.1558C9.29627 23.1558 9.3921 23.1266 9.43376 23.0683C9.4671 23.035 9.48793 22.9933 9.49626 22.9433L9.52127 22.7433L9.83377 22.5558L9.82126 22.7433C9.79614 22.819 9.75328 22.8876 9.69626 22.9433L9.55876 23.1183Z" fill="#BF0000"/>
</g>
<g clip-path="url(#clip3_235_1307)">
<g clip-path="url(#clip4_235_1307)">
<mask id="mask0_235_1307" style="mask-type:luminance" maskUnits="userSpaceOnUse" x="-28" y="-18" width="81" height="61">
<path d="M-27.8124 -17.5442H52.1798V42.4558H-27.8124V-17.5442Z" fill="white"/>
</mask>
<g mask="url(#mask0_235_1307)">
<path fill-rule="evenodd" clip-rule="evenodd" d="M-32.8163 -17.5442H57.1837V42.4558H-32.8163V-17.5442Z" fill="#DA251D"/>
<path fill-rule="evenodd" clip-rule="evenodd" d="M23.1525 27.1042L12.6525 19.2878L2.22278 27.1746L6.08997 14.3308L-4.33972 6.39722L8.56262 6.28003L12.5704 -6.54028L16.6368 6.24487L29.5392 6.25659L19.1681 14.2722L23.1407 27.116L23.1525 27.1042Z" fill="#FFFF00"/>
</g>
</g>
<g clip-path="url(#clip5_235_1307)">
<mask id="mask1_235_1307" style="mask-type:luminance" maskUnits="userSpaceOnUse" x="-5" y="0" width="34" height="26">
<path d="M-4.63074 0.25H28.9985V25.4744H-4.63074V0.25Z" fill="white"/>
</mask>
<g mask="url(#mask1_235_1307)">
<path fill-rule="evenodd" clip-rule="evenodd" d="M-6.73462 0.25H31.102V25.4744H-6.73462V0.25Z" fill="#DA251D"/>
<path fill-rule="evenodd" clip-rule="evenodd" d="M16.7951 19.0205L12.3808 15.7344L7.9961 19.0501L9.6219 13.6505L5.23718 10.3151L10.6614 10.2658L12.3463 4.8761L14.0559 10.2511L19.4801 10.256L15.12 13.6258L16.7902 19.0254L16.7951 19.0205Z" fill="#FFFF00"/>
</g>
</g>
<mask id="mask2_235_1307" style="mask-type:luminance" maskUnits="userSpaceOnUse" x="-7" y="-2" width="38" height="29">
<path d="M-6.63257 -1.65784H31V26.5693H-6.63257V-1.65784Z" fill="white"/>
</mask>
<g mask="url(#mask2_235_1307)">
<path fill-rule="evenodd" clip-rule="evenodd" d="M-8.98669 -1.65784H33.3541V26.5693H-8.98669V-1.65784Z" fill="#DA251D"/>
<path fill-rule="evenodd" clip-rule="evenodd" d="M17.3439 19.3472L12.4042 15.67L7.4975 19.3803L9.31683 13.3379L4.41016 9.60553L10.4801 9.5504L12.3656 3.51904L14.2786 9.53386L20.3486 9.53937L15.4695 13.3103L17.3384 19.3527L17.3439 19.3472Z" fill="#FFFF00"/>
</g>
</g>
</g>
</g>
<rect x="0.5" y="1.29102" width="23" height="23" rx="11.5" stroke="#C4C6CD"/>
<defs>
<clipPath id="clip0_235_1307">
<rect y="0.791016" width="24" height="24" rx="12" fill="white"/>
</clipPath>
<clipPath id="clip1_235_1307">
<rect width="46.3675" height="30.9116" fill="white" transform="translate(-11 -3)"/>
</clipPath>
<clipPath id="clip2_235_1307">
<rect width="80" height="60" fill="white" transform="translate(-27.8163 -17.5442)"/>
</clipPath>
<clipPath id="clip3_235_1307">
<rect width="80" height="60" fill="white" transform="translate(-27.8163 -17.5442)"/>
</clipPath>
<clipPath id="clip4_235_1307">
<rect width="80" height="60" fill="white" transform="translate(-27.8163 -17.5442)"/>
</clipPath>
<clipPath id="clip5_235_1307">
<rect width="33.6326" height="25.2244" fill="white" transform="translate(-4.63257 0.25)"/>
</clipPath>
</defs>
</svg>
