<svg width="24" height="25" viewBox="0 0 24 25" fill="none" xmlns="http://www.w3.org/2000/svg">
<rect y="0.791016" width="24" height="24" rx="12" fill="#295BAC"/>
<path d="M5.18 16.891C4.64667 16.891 4.15 16.8043 3.69 16.631C3.23667 16.451 2.84 16.201 2.5 15.881C2.16667 15.5543 1.90667 15.171 1.72 14.731C1.53333 14.291 1.44 13.811 1.44 13.291C1.44 12.771 1.53333 12.291 1.72 11.851C1.90667 11.411 2.17 11.031 2.51 10.711C2.85 10.3843 3.24667 10.1343 3.7 9.96102C4.15333 9.78102 4.65 9.69102 5.19 9.69102C5.76333 9.69102 6.28667 9.79102 6.76 9.99102C7.23333 10.1843 7.63333 10.4743 7.96 10.861L7.12 11.651C6.86667 11.3777 6.58333 11.1743 6.27 11.041C5.95667 10.901 5.61667 10.831 5.25 10.831C4.88333 10.831 4.54667 10.891 4.24 11.011C3.94 11.131 3.67667 11.301 3.45 11.521C3.23 11.741 3.05667 12.001 2.93 12.301C2.81 12.601 2.75 12.931 2.75 13.291C2.75 13.651 2.81 13.981 2.93 14.281C3.05667 14.581 3.23 14.841 3.45 15.061C3.67667 15.281 3.94 15.451 4.24 15.571C4.54667 15.691 4.88333 15.751 5.25 15.751C5.61667 15.751 5.95667 15.6843 6.27 15.551C6.58333 15.411 6.86667 15.201 7.12 14.921L7.96 15.721C7.63333 16.101 7.23333 16.391 6.76 16.591C6.28667 16.791 5.76 16.891 5.18 16.891ZM14.1256 9.79102H15.4256V16.791H14.1256V9.79102ZM10.5056 16.791H9.20563V9.79102H10.5056V16.791ZM14.2256 13.791H10.3956V12.681H14.2256V13.791ZM18.4913 13.011H21.9813V14.111H18.4913V13.011ZM18.6013 16.791H17.3013V9.79102H22.4113V10.881H18.6013V16.791Z" fill="white"/>
</svg>
