<svg width="24" height="25" viewBox="0 0 24 25" fill="none" xmlns="http://www.w3.org/2000/svg">
<rect y="0.791016" width="24" height="24" rx="12" fill="#295BAC"/>
<path d="M6.42 14.347V13.367H13.952V14.347H6.42ZM6.42 12.415V11.435H13.952V12.415H6.42ZM13.056 17.931C12.3 17.931 11.6 17.8097 10.956 17.567C10.3213 17.315 9.77067 16.965 9.304 16.517C8.83733 16.0597 8.47333 15.523 8.212 14.907C7.95067 14.291 7.82 13.619 7.82 12.891C7.82 12.163 7.95067 11.491 8.212 10.875C8.47333 10.259 8.83733 9.72702 9.304 9.27902C9.77067 8.82168 10.3213 8.47168 10.956 8.22902C11.6 7.97702 12.3 7.85102 13.056 7.85102C13.8587 7.85102 14.5913 7.99102 15.254 8.27102C15.926 8.54168 16.486 8.94768 16.934 9.48901L15.772 10.595C15.4173 10.2123 15.0207 9.92768 14.582 9.74101C14.1433 9.54502 13.6673 9.44702 13.154 9.44702C12.6407 9.44702 12.1693 9.53102 11.74 9.69902C11.32 9.86702 10.9513 10.105 10.634 10.413C10.326 10.721 10.0833 11.085 9.906 11.505C9.72867 11.925 9.64 12.387 9.64 12.891C9.64 13.395 9.72867 13.857 9.906 14.277C10.0833 14.697 10.326 15.061 10.634 15.369C10.9513 15.677 11.32 15.915 11.74 16.083C12.1693 16.251 12.6407 16.335 13.154 16.335C13.6673 16.335 14.1433 16.2417 14.582 16.055C15.0207 15.859 15.4173 15.565 15.772 15.173L16.934 16.293C16.486 16.825 15.926 17.231 15.254 17.511C14.5913 17.791 13.8587 17.931 13.056 17.931Z" fill="white"/>
</svg>
