<svg width="24" height="25" viewBox="0 0 24 25" fill="none" xmlns="http://www.w3.org/2000/svg">
<rect y="0.791016" width="24" height="24" rx="12" fill="#295BAC"/>
<path d="M8.89 17.567V11.673C8.89 10.8983 9.058 10.2263 9.394 9.65702C9.73933 9.07835 10.234 8.63502 10.878 8.32701C11.5313 8.00968 12.32 7.85102 13.244 7.85102C13.8133 7.85102 14.322 7.90702 14.77 8.01902C15.218 8.12168 15.6287 8.28502 16.002 8.50901L15.428 9.99302C15.12 9.78768 14.77 9.64768 14.378 9.57302C13.9953 9.48902 13.5847 9.44702 13.146 9.44702C12.3433 9.44702 11.7367 9.63368 11.326 10.007C10.9153 10.3803 10.71 10.931 10.71 11.659V17.567H8.89ZM7.42 17.791V16.265H15.764V17.791H7.42ZM7.42 13.465V12.317H14.252V13.465H7.42Z" fill="white"/>
</svg>
