<svg width="24" height="25" viewBox="0 0 24 25" fill="none" xmlns="http://www.w3.org/2000/svg">
<rect y="0.791016" width="24" height="24" rx="12" fill="#295BAC"/>
<path d="M6.42 12.919V11.953H17.55V12.919H6.42ZM6.42 10.987V10.021H17.55V10.987H6.42ZM7.89 17.791V7.99101H11.908C12.776 7.99101 13.518 8.13102 14.134 8.41102C14.7593 8.69102 15.24 9.09235 15.576 9.61501C15.912 10.1377 16.08 10.7583 16.08 11.477C16.08 12.1957 15.912 12.8163 15.576 13.339C15.24 13.8617 14.7593 14.263 14.134 14.543C13.518 14.823 12.776 14.963 11.908 14.963H8.898L9.71 14.109V17.791H7.89ZM9.71 14.305L8.898 13.423H11.838C12.6313 13.423 13.2287 13.255 13.63 12.919C14.0407 12.5737 14.246 12.093 14.246 11.477C14.246 10.8517 14.0407 10.371 13.63 10.035C13.2287 9.69902 12.6313 9.53102 11.838 9.53102H8.898L9.71 8.63502V14.305Z" fill="white"/>
</svg>
