<svg width="24" height="25" viewBox="0 0 24 25" fill="none" xmlns="http://www.w3.org/2000/svg">
<g clip-path="url(#clip0_229_793)">
<path fill-rule="evenodd" clip-rule="evenodd" d="M12 24.791C5.37225 24.791 0 19.4188 0 12.791C0 6.1633 5.37225 0.791046 12 0.791046C18.6278 0.791046 24 6.1633 24 12.791C24 19.4188 18.6278 24.791 12 24.791ZM16.875 15.1565C16.875 13.2643 15.693 12.1955 12.9277 11.5295V8.19955C13.7827 8.37505 14.601 8.7433 15.4012 9.32155L16.4205 7.67455C15.4164 6.93951 14.2373 6.48027 13.0005 6.34255V5.29105H11.418V6.3073C9.144 6.4828 7.59825 7.77955 7.59825 9.6718C7.59825 11.6518 8.835 12.6155 11.4908 13.2815V16.7165C10.308 16.541 9.32625 16.0153 8.289 15.209L7.125 16.8035C8.37105 17.7625 9.85556 18.3627 11.418 18.539V20.291H13.0005V18.5563C15.3105 18.3635 16.875 17.084 16.875 15.1565ZM11.49 11.1613C10.0898 10.7585 9.74475 10.2853 9.74475 9.5488C9.74475 8.77855 10.3448 8.16505 11.4908 8.0773L11.49 11.1613ZM14.7285 15.2788C14.7285 16.1203 14.0737 16.6985 12.9277 16.7863V13.6145C14.3467 14.018 14.7285 14.4898 14.7285 15.2788Z" fill="#244F96"/>
</g>
<defs>
<clipPath id="clip0_229_793">
<rect width="24" height="24" fill="white" transform="translate(0 0.791046)"/>
</clipPath>
</defs>
</svg>
