<svg width="24" height="25" viewBox="0 0 24 25" fill="none" xmlns="http://www.w3.org/2000/svg">
<rect y="0.791016" width="24" height="24" rx="12" fill="#295BAC"/>
<path d="M11.312 17.889C10.5933 17.889 9.94467 17.7303 9.366 17.413C8.79667 17.0863 8.34867 16.6383 8.022 16.069C7.69533 15.4997 7.532 14.8277 7.532 14.053C7.532 13.2783 7.69533 12.6063 8.022 12.037C8.34867 11.4677 8.79667 11.0243 9.366 10.707C9.94467 10.3897 10.5933 10.231 11.312 10.231C11.9373 10.231 12.4973 10.371 12.992 10.651C13.4867 10.9217 13.8787 11.337 14.168 11.897C14.4573 12.457 14.602 13.1757 14.602 14.053C14.602 14.921 14.462 15.6397 14.182 16.209C13.902 16.769 13.5147 17.189 13.02 17.469C12.5253 17.749 11.956 17.889 11.312 17.889ZM7.826 19.709V18.743H15.47V19.709H7.826ZM11.522 16.391C11.942 16.391 12.3153 16.2977 12.642 16.111C12.978 15.9243 13.244 15.6537 13.44 15.299C13.6453 14.9443 13.748 14.529 13.748 14.053C13.748 13.5677 13.6453 13.1523 13.44 12.807C13.244 12.4523 12.978 12.1817 12.642 11.995C12.3153 11.8083 11.942 11.715 11.522 11.715C11.102 11.715 10.724 11.8083 10.388 11.995C10.0613 12.1817 9.79533 12.4523 9.59 12.807C9.394 13.1523 9.296 13.5677 9.296 14.053C9.296 14.529 9.394 14.9443 9.59 15.299C9.79533 15.6537 10.0613 15.9243 10.388 16.111C10.724 16.2977 11.102 16.391 11.522 16.391ZM13.79 17.791V16.027L13.86 14.039L13.72 12.051V7.40302H15.456V17.791H13.79ZM10.962 9.36301V8.39702H16.618V9.36301H10.962Z" fill="white"/>
</svg>
